<svg xmlns="http://www.w3.org/2000/svg" width="147" height="105" viewBox="0 0 147 105"><g fill="none"><polygon fill="#0072CE" points="8.387 72.441 146.038 48.087 146.038 0 0 25.634"/><polygon fill="#FFF" points="9.04 52.635 14.48 27.017 29.368 27.017 27.749 32.418 19.92 32.418 19.001 36.718 25.396 36.718 24.295 41.939 17.9 41.939 16.796 47.16 25.581 47.16 24.405 52.635"/><path fill="#FFF" d="M30.8363851,26.7209457 L37.4892394,25.6195738 C37.5622585,26.5383979 37.3432011,28.4855747 36.9375393,30.3597325 L33.9255001,44.4341702 C33.2257334,47.7788521 33.1527143,48.6631949 34.5867289,48.6631949 C34.8057863,48.6631949 35.026872,48.624657 35.2844673,48.5516379 L35.4690434,52.521039 C34.5502193,52.8516534 32.9681381,53.1072204 31.2055374,53.1072204 C25.8021216,53.1072204 26.2808026,50.3162669 27.090098,46.5294136 L29.8465702,33.5908291 C30.7998756,29.1853414 30.8728947,27.7898647 30.8363851,26.7209457"/><path fill="#FFF" d="M46.7626692 37.9314108C46.2860165 37.9314108 45.3651641 37.8969295 44.4483683 38.9638202 43.0873728 40.5438731 42.2801058 44.255679 42.2801058 46.6085177 42.2801058 47.896494 42.6472297 48.4441375 43.5295443 48.4441375 44.3023301 48.4441375 45.6247877 47.1216799 45.7728543 46.498989L47.535455 38.1930627C47.3143693 38.0064582 46.9817266 37.9314108 46.7626692 37.9314108M53.5615617 39.513492 52.1275471 46.3509224C51.9815088 46.9736133 52.01599 48.2980992 52.861795 49.2189516L47.6794649 53.3709006C46.9066791 52.9652388 46.3570073 51.8273573 46.2454503 51.1275906 45.3996454 52.0119334 43.5254876 53.2248623 41.3186872 53.2248623 37.4588147 53.2248623 35.8422523 50.7969762 35.8422523 46.7545559 35.8422523 42.7121356 37.4588147 38.5216488 39.9232105 36.0592814 42.091473 33.8910188 44.4078021 33.1932804 47.7524841 33.1932804 50.3608897 33.1932804 53.5960429 33.6334235 54.9915197 34.3311619 54.4459045 35.6556478 53.8942044 37.9314108 53.5615617 39.513492M67.9706704 33.1912521C72.7108291 33.1912521 73.18951 35.8747052 72.6013004 38.6311775L69.6237424 52.6346244 63.2284834 52.6346244 65.8003795 40.5073635C66.1309939 39.0368393 65.9484461 38.3756105 64.8815555 38.3756105 63.8532027 38.3756105 63.0439073 38.8887727 62.2346119 40.1402395L59.5511588 52.6366527 53.1558998 52.6366527 55.689258 40.6919396C56.279496 37.8239104 56.4985534 36.1343288 56.2044486 34.2581428L61.8654596 33.1932804C62.0135262 33.820028 62.1595645 34.4812568 62.196074 35.249986 63.6686265 33.964038 65.8733987 33.1912521 67.9706704 33.1912521M78.9620781 53.1133053C73.668191 53.1133053 71.0942666 49.7321139 72.4552621 43.3368549 73.8162576 36.903058 77.7106113 33.1932804 83.2986032 33.1932804 86.0185659 33.1932804 87.4911184 33.8910188 89.0326334 35.4345621L85.2822896 39.2944346C84.7305895 38.5236771 83.7752559 37.8989578 82.8929414 37.8989578 81.4224172 37.8989578 80.3210453 39.0733489 79.5117499 42.9352497 78.7024545 46.7930938 78.7754736 48.375175 80.6131218 48.375175 82.0451081 48.375175 83.369594 47.6754083 84.4364847 46.6855934L86.347152 50.4318805C83.8868129 52.4520765 81.2763789 53.1133053 78.9620781 53.1133053"/><path fill="#FFF" d="M93.0933084,46.9005942 C93.0933084,48.0790418 93.496942,48.6266853 94.5252948,48.6266853 C97.1742666,48.6266853 98.2756385,40.6534018 98.2756385,39.3654254 C98.2756385,38.0774491 97.7969575,37.6393343 96.8416239,37.6393343 C94.1946804,37.6413626 93.0933084,45.5781366 93.0933084,46.9005942 M105.038021,39.9171255 C105.038021,44.8803982 102.281549,53.1133053 93.4218945,53.1133053 C88.9373028,53.1133053 86.4019163,50.6489096 86.4019163,46.2758749 C86.4019163,41.3876497 89.0488599,33.1912521 98.0180432,33.1912521 C101.987444,33.1932804 105.038021,35.1404573 105.038021,39.9171255"/><polygon fill="#000" points="141.385 51.886 142.142 51.886 142.142 53.91 142.483 53.91 142.483 51.886 143.237 51.886 143.237 51.578 141.385 51.578"/><polygon fill="#000" points="144.077 53.91 144.077 51.801 144.093 51.801 144.736 53.91 145.014 53.91 145.675 51.801 145.687 51.801 145.687 53.91 146.032 53.91 146.032 51.578 145.416 51.578 144.9 53.31 144.884 53.31 144.334 51.578 143.736 51.578 143.736 53.91"/><g fill="#0072CE" transform="translate(11.093 77.563)"><path d="M6.00785192 5.79893607C6.30804169 6.06261627 6.45813657 6.46827811 6.45813657 7.0138933 6.45813657 7.81710375 6.1579468 8.45804946 5.55553896 8.93875875 4.95313112 9.41946804 3.97142946 9.66083683 2.60840566 9.66083683L.0344812568 9.66083683 1.20075906 1.33462747 3.6063338 1.33462747C4.56166744 1.33462747 5.30402862 1.48472235 5.83747395 1.78491212 6.37091927 2.08510188 6.63662778 2.56581117 6.63662778 3.22298336 6.63662778 3.77671177 6.46219319 4.2229398 6.113324 4.56369575 5.76445481 4.9044517 5.32431171 5.13567895 4.79492301 5.2553492 5.30402862 5.35270804 5.70766216 5.53322756 6.00785192 5.79893607ZM4.23916628 7.96922694C4.51501633 7.71568829 4.65496967 7.35870586 4.65496967 6.89219474 4.65496967 6.24313579 4.20468502 5.91860632 3.30817234 5.91860632L2.31024421 5.91860632 1.97354487 8.34852077 2.75647224 8.34852077C3.46840877 8.34852077 3.96331622 8.22276559 4.23916628 7.96922694ZM2.76661378 2.61043397 2.47859387 4.71581895 3.30817234 4.71581895C3.8051081 4.71581895 4.18440193 4.59817701 4.44605382 4.36086483 4.7056774 4.12355265 4.8375175 3.80105149 4.8375175 3.39133302 4.8375175 3.10331311 4.73610204 2.90048219 4.53124281 2.78284026 4.32638357 2.66722663 4.02822212 2.60840566 3.63473013 2.60840566L2.76661378 2.60840566 2.76661378 2.61043397ZM13.401039 3.72803235 12.7986312 7.91446259C12.7824047 8.05847255 12.7742915 8.15583139 12.7742915 8.2024825 12.7742915 8.33026598 12.8006595 8.43370975 12.8533956 8.50875719 12.9061316 8.58583294 12.9953772 8.65073884 13.1231607 8.7075315L12.6424514 9.82715819C11.8554674 9.74602582 11.3909846 9.39512832 11.2469746 8.76838077 10.7256992 9.49045886 10.0928667 9.8514979 9.3464489 9.8514979 8.68927671 9.8514979 8.1801711 9.62432727 7.81913206 9.17201431 7.45809302 8.71970135 7.2775735 8.10715197 7.2775735 7.33639446 7.2775735 6.67110904 7.40130036 6.01393685 7.65078239 5.36284959 7.90026443 4.71379064 8.29375642 4.17223207 8.83531498 3.7381739 9.37687354 3.30614403 10.0604138 3.08911495 10.8859356 3.08911495 11.7702784 3.09114326 12.6079701 3.30411573 13.401039 3.72803235ZM9.81701664 4.78680977C9.5431949 5.09105615 9.3464489 5.4744066 9.22069373 5.9368611 9.09696687 6.39728729 9.03408928 6.86582672 9.03408928 7.33842277 9.03408928 8.16394463 9.30588272 8.57771971 9.8514979 8.57771971 10.1009799 8.57771971 10.3281506 8.49861565 10.5370664 8.33635091 10.7459823 8.17611448 10.9589547 7.9388023 11.1739555 7.62644268L11.6303251 4.47445015C11.3970695 4.37911961 11.1374459 4.33044019 10.8473977 4.33044019 10.4336226 4.33044019 10.0888101 4.48256338 9.81701664 4.78680977ZM17.3968082 9.6973464C17.0357692 10.4985285 16.5469466 11.1191912 15.9283123 11.557306 15.309678 11.9933924 14.528779 12.2449028 13.5815586 12.3098087L13.5328791 11.0826816C14.1494851 11.0015492 14.6200529 10.8575393 14.9405257 10.6506517 15.2609986 10.4417359 15.5490185 10.1131498 15.8066138 9.66489345L15.2042059 9.66489345 14.1332587 3.28788925 15.9019443 3.28788925 16.431333 8.52092705 18.4758687 3.28788925 20.2445544 3.28788925 17.3968082 9.6973464ZM24.7534858 6.58592005C24.0030114 6.95912895 23.0111681 7.20455436 21.7759278 7.32625292 21.816494 8.15177477 22.2140426 8.56554985 22.9665453 8.56554985 23.246452 8.56554985 23.5162171 8.51687043 23.7717841 8.4215399 24.0293794 8.32620936 24.309286 8.17611448 24.6135324 7.97531187L25.2382517 9.00974957C24.4593809 9.57159123 23.6338591 9.8514979 22.7596578 9.8514979 21.8854565 9.8514979 21.2181428 9.61215741 20.7556883 9.13550474 20.2952621 8.65885208 20.0640348 8.00573651 20.0640348 7.18021465 20.0640348 6.53926894 20.1837051 5.90440815 20.4250739 5.27968891 20.6664427 4.65496967 21.0497931 4.1336942 21.5791818 3.7158625 22.1085705 3.2980308 22.7819692 3.09114326 23.6014061 3.09114326 24.3234842 3.09114326 24.8832976 3.253408 25.2788179 3.57793747 25.6743382 3.90246695 25.8751733 4.31421372 25.8751733 4.81114948 25.8791974 5.62247317 25.5039602 6.21271115 24.7534858 6.58592005ZM23.6115477 5.79285114C23.9847566 5.55553896 24.171361 5.25332089 24.171361 4.88416861 24.171361 4.71581895 24.1165967 4.57180899 24.0090963 4.45011044 23.9015959 4.33044019 23.7271613 4.26959092 23.4857925 4.26959092 23.0294229 4.26959092 22.6683839 4.45822367 22.4026754 4.83548919 22.1389952 5.21275471 21.9584757 5.68129414 21.8611168 6.24313579 22.6541857 6.18025821 23.2383388 6.02813501 23.6115477 5.79285114ZM31.1852543 3.19864365 30.704545 4.8598289C30.5280821 4.80303624 30.3475626 4.77463991 30.1629865 4.77463991 29.7938342 4.77463991 29.4835029 4.93081972 29.2299642 5.24317934 28.9764256 5.55553896 28.7472266 6.00988023 28.5383108 6.60214652L28.1042526 9.65880852 26.4207559 9.65880852 27.3111837 3.28180432 28.7675097 3.28180432 28.7310002 4.49676155C28.9561425 4.04039197 29.2259076 3.6935511 29.5423238 3.45623892 29.8587401 3.21892674 30.1934111 3.1012848 30.5463369 3.1012848 30.763366 3.10331311 30.9763385 3.13576606 31.1852543 3.19864365ZM38.3188179 9.66083683 38.1139586 7.79682066 35.5278644 7.79682066 34.8057863 9.66083683 32.9884212 9.66083683 36.6819723 1.33462747 38.811697 1.33462747 40.1584943 9.66083683 38.3188179 9.66083683ZM36.0329134 6.48450459 37.9699487 6.48450459 37.5480604 2.56175455 36.0329134 6.48450459ZM46.4340831 3.50086172C46.6937066 3.77265516 46.8255467 4.15397729 46.8255467 4.64279981 46.8255467 4.77058329 46.8133769 4.91459325 46.7890372 5.07685799L46.1521481 9.66083683 44.4686514 9.66083683 45.0710593 5.38921761C45.0872857 5.22898118 45.095399 5.12959403 45.095399 5.08902784 45.095399 4.87199876 45.0548328 4.71987556 44.9757287 4.63265827 44.8945964 4.54544097 44.7789827 4.50081817 44.6268595 4.50081817 44.138037 4.50081817 43.6208182 5.02615026 43.075203 6.07681443L42.570154 9.66286514 40.8866573 9.66286514 41.7770851 3.28586094 43.2334111 3.28586094 43.1847317 4.43996889C43.4727516 4.01605226 43.8013377 3.68340955 44.17049 3.44812568 44.5396422 3.2108135 44.9371909 3.0931492 45.3611075 3.0931492 45.8134204 3.09114326 46.1724312 3.22703998 46.4340831 3.50086172ZM50.3142386 3.28383263 49.4238109 9.66083683 47.7403142 9.66083683 48.630742 3.28383263 50.3142386 3.28383263ZM49.0262622 1.74434593C48.8579126 1.57599627 48.7727236 1.3630238 48.7727236 1.10745684 48.7727236.786983979 48.880224.521275471 49.0972531.31235962 49.3142822.10344377 49.582019 1.15296031e-14 49.9024918 1.15296031e-14 50.1823985 1.15296031e-14 50.4075408.0831606782 50.5758905.247453725 50.7442402.411746772 50.8294291.62674755 50.8294291.890427749 50.8294291 1.21090061 50.7219288 1.47660911 50.5048997 1.68552497 50.2878706 1.89444082 50.0201338 1.99788459 49.6996609 1.99788459 49.4197542 1.99585628 49.1946119 1.9126956 49.0262622 1.74434593ZM59.8249806 3.50086172C60.0785192 3.77265516 60.2042744 4.14992067 60.2042744 4.63265827 60.2042744 4.80912117 60.1961611 4.94501789 60.1799347 5.04237673L59.5308757 9.66286514 57.8473791 9.66286514 58.4619568 5.39124592C58.4781832 5.30402862 58.4862965 5.1904433 58.4862965 5.05454659 58.4862965 4.8375175 58.4477586 4.69147923 58.3727112 4.61440348 58.2956354 4.53732773 58.1820501 4.50081817 58.0299269 4.50081817 57.603982 4.50081817 57.151669 5.00181055 56.6709597 6.00582361L56.1537409 9.66286514 54.4702442 9.66286514 55.072652 5.39124592C55.0888785 5.23100949 55.0969918 5.12756572 55.0969918 5.0788863 55.0969918 4.86185721 55.0564256 4.71176233 54.9773215 4.62860165 54.8961891 4.54341266 54.7805755 4.50284648 54.6284523 4.50284648 54.40331 4.50284648 54.1741111 4.64482812 53.9367989 4.93081972 53.6994867 5.21478301 53.4824576 5.59407684 53.281655 6.0687012L52.776606 9.66692176 51.0931093 9.66692176 51.9835371 3.28991756 53.4398631 3.28991756 53.3911837 4.37303469C53.6629771 3.97142946 53.9712801 3.65906984 54.3120361 3.43392752 54.652792 3.20878519 55.019916 3.09722818 55.413408 3.09722818 55.7906735 3.09722818 56.1030331 3.20067196 56.3525152 3.40958781 56.6019972 3.61850366 56.7541204 3.91869342 56.8088847 4.31218541 57.0745932 3.92680666 57.3808679 3.6286452 57.7297371 3.41567273 58.0786063 3.20270026 58.437617 3.09722818 58.8067693 3.09722818 59.2286576 3.09114326 59.5714419 3.22703998 59.8249806 3.50086172ZM67.2425074 3.72803235 66.6400995 7.91446259C66.6238731 8.05847255 66.6157598 8.15583139 66.6157598 8.2024825 66.6157598 8.33026598 66.6421279 8.43370975 66.6928356 8.50875719 66.7455716 8.58583294 66.8348172 8.65073884 66.9626007 8.7075315L66.4818914 9.82715819C65.6949075 9.74602582 65.2304246 9.39512832 65.0864147 8.76838077 64.5651392 9.49045886 63.9323067 9.8514979 63.1858889 9.8514979 62.5287168 9.8514979 62.0196111 9.62432727 61.6585721 9.17201431 61.2975331 8.71970135 61.1170135 8.10715197 61.1170135 7.33639446 61.1170135 6.67110904 61.2407404 6.01393685 61.4902224 5.36284959 61.7397045 4.71379064 62.1331965 4.17223207 62.674755 3.7381739 63.2163136 3.30614403 63.8998538 3.08911495 64.7253756 3.08911495 65.6097185 3.09114326 66.4474102 3.30411573 67.2425074 3.72803235ZM63.6564567 4.78680977C63.3846632 5.09105615 63.1858889 5.4744066 63.0601338 5.9368611 62.9364069 6.39728729 62.8735293 6.86582672 62.8735293 7.33842277 62.8735293 8.16394463 63.1453228 8.57771971 63.6909379 8.57771971 63.9383917 8.57771971 64.1675906 8.49861565 64.3765065 8.33635091 64.5854223 8.17611448 64.7983948 7.9388023 65.0133956 7.62644268L65.4697651 4.47445015C65.2365096 4.37911961 64.976886 4.33044019 64.6868378 4.33044019 64.275091 4.33044019 63.9282501 4.48256338 63.6564567 4.78680977ZM69.8407715 8.06050086 69.8286016 8.19234096C69.8286016 8.38503033 69.9198756 8.48036086 70.1044517 8.48036086 70.2078955 8.48036086 70.3214808 8.46007777 70.441151 8.41951159L70.67035 9.62229896C70.3011977 9.77442215 69.9239322 9.8514979 69.5385534 9.8514979 69.0821839 9.8514979 68.729258 9.73385597 68.4858609 9.49654379 68.2404355 9.25923161 68.118737 8.91239073 68.118737 8.45602115 68.118737 8.32823767 68.1309068 8.19234096 68.1552465 8.04630269L69.1896842.742361176 70.8853508.5496718 69.8407715 8.06050086Z"/><polygon points="76.072 9.661 74.327 9.661 75.494 1.335 77.25 1.335 76.782 4.618 79.477 4.618 79.946 1.335 81.69 1.335 80.524 9.661 78.78 9.661 79.285 6.016 76.589 6.016"/><path d="M86.931305 6.58592005C86.1808306 6.95912895 85.1889874 7.20455436 83.9537471 7.32625292 83.9943133 8.15177477 84.3898336 8.56554985 85.1443646 8.56554985 85.4242713 8.56554985 85.6940364 8.51687043 85.9496034 8.4215399 86.2051703 8.32620936 86.4871053 8.17611448 86.7913517 7.97531187L87.4160709 9.00974957C86.6372002 9.57159123 85.8116783 9.8514979 84.9374771 9.8514979 84.0632758 9.8514979 83.395962 9.61215741 82.9335075 9.13550474 82.4730814 8.65885208 82.2418541 8.00573651 82.2418541 7.18021465 82.2418541 6.53926894 82.3615243 5.90440815 82.6028931 5.27968891 82.8442619 4.65496967 83.2276124 4.1336942 83.7570011 3.7158625 84.2863898 3.2980308 84.9597885 3.09114326 85.7771971 3.09114326 86.4992752 3.09114326 87.0590885 3.253408 87.4566371 3.57793747 87.8541857 3.90246695 88.0529682 4.31421372 88.0529682 4.81114948 88.0549883 5.62247317 87.6797511 6.21271115 86.931305 6.58592005ZM85.7873386 5.79285114C86.1605475 5.55553896 86.347152 5.25332089 86.347152 4.88416861 86.347152 4.71581895 86.2923876 4.57180899 86.1848872 4.45011044 86.0773868 4.33044019 85.9029522 4.26959092 85.6615834 4.26959092 85.2052139 4.26959092 84.8441748 4.45822367 84.5784663 4.83548919 84.3147861 5.21275471 84.1342666 5.68129414 84.0369078 6.24313579 84.832005 6.18025821 85.4141297 6.02813501 85.7873386 5.79285114ZM94.6246819 3.72803235 94.0222741 7.91446259C94.0060476 8.05847255 93.9979344 8.15583139 93.9979344 8.2024825 93.9979344 8.33026598 94.0243024 8.43370975 94.0750101 8.50875719 94.1277462 8.58583294 94.2169918 8.65073884 94.3447752 8.7075315L93.864066 9.82715819C93.077082 9.74602582 92.6125992 9.39512832 92.4685892 8.76838077 91.9473137 9.49045886 91.3144813 9.8514979 90.5680635 9.8514979 89.9108913 9.8514979 89.4017857 9.62432727 89.0407466 9.17201431 88.6797076 8.71970135 88.4991881 8.10715197 88.4991881 7.33639446 88.4991881 6.67110904 88.6229149 6.01393685 88.872397 5.36284959 89.121879 4.71379064 89.515371 4.17223207 90.0569295 3.7381739 90.5984881 3.30614403 91.2820283 3.08911495 92.1075502 3.08911495 92.991893 3.09114326 93.831613 3.30411573 94.6246819 3.72803235ZM91.0386312 4.78680977C90.7668378 5.09105615 90.5680635 5.4744066 90.4423083 5.9368611 90.3185814 6.39728729 90.2557038 6.86582672 90.2557038 7.33842277 90.2557038 8.16394463 90.5274973 8.57771971 91.0731125 8.57771971 91.3205662 8.57771971 91.5497651 8.49861565 91.758681 8.33635091 91.9675968 8.17611448 92.1805693 7.9388023 92.3955701 7.62644268L92.8519396 4.47445015C92.6186841 4.37911961 92.3590605 4.33044019 92.0690123 4.33044019 91.6572655 4.33044019 91.3124529 4.48256338 91.0386312 4.78680977ZM97.222946 8.06050086 97.2107762 8.19234096C97.2107762 8.38503033 97.3020501 8.48036086 97.4866262 8.48036086 97.59007 8.48036086 97.7036553 8.46007777 97.8233256 8.41951159L98.0525245 9.62229896C97.6833722 9.77442215 97.3061067 9.8514979 96.920728 9.8514979 96.4643584 9.8514979 96.1114326 9.73385597 95.8680355 9.49654379 95.62261 9.25923161 95.5009115 8.91239073 95.5009115 8.45602115 95.5009115 8.32823767 95.5130814 8.19234096 95.5374211 8.04630269L96.5718588.742361176 98.2675253.5496718 97.222946 8.06050086ZM100.953007 7.65078239C100.93678 7.81101882 100.928667 7.91243428 100.928667 7.95097216 100.928667 8.14366153 100.969233 8.27955825 101.048337 8.36069062 101.12947 8.44182299 101.24914 8.48036086 101.409376 8.48036086 101.618292 8.48036086 101.873859 8.40734173 102.180134 8.26333178L102.636503 9.38295847C102.387021 9.53508166 102.117256 9.6527236 101.82518 9.73182766 101.533103 9.81296002 101.24914 9.8514979 100.977346 9.8514979 100.407392 9.8514979 99.9733333 9.70140302 99.6711153 9.40121325 99.3709255 9.10102349 99.2208306 8.66899362 99.2208306 8.10715197 99.2208306 7.96314201 99.2330005 7.8069622 99.2573402 7.63861254L99.7015399 4.49878986 98.7624327 4.49878986 98.9307824 3.28383263 99.9408804 3.28383263 100.338429 1.85184632 101.770415 1.68349666 101.553386 3.28383263 103.021882 3.28383263 102.673013 4.49878986 101.385037 4.49878986 100.953007 7.65078239ZM108.851243 3.50086172C109.110866 3.77265516 109.242706 4.15397729 109.242706 4.64279981 109.242706 4.81926272 109.234593 4.95515943 109.218367 5.05251828L108.569308 9.66083683 106.885811 9.66083683 107.488219 5.38921761C107.504445 5.22898118 107.512559 5.12553741 107.512559 5.07685799 107.512559 4.8598289 107.474021 4.70973402 107.398973 4.62657334 107.323926 4.54341266 107.212369 4.50081817 107.068359 4.50081817 106.555197 4.50081817 106.025808 5.02615026 105.480193 6.07681443L104.987314 9.66286514 103.303817 9.66286514 104.555284.748446104 106.26312.567926583 105.721562 4.38114792C105.96293 3.98765593 106.261092 3.67529631 106.618074 3.44204075 106.975057 3.20878519 107.358407 3.09317157 107.768126 3.09317157 108.228552 3.09114326 108.591619 3.22703998 108.851243 3.50086172ZM2.57392441 17.7213377 1.68349666 24.0983419 0 24.0983419.890427749 17.7213377 2.57392441 17.7213377ZM1.28594805 16.181851C1.11759838 16.0135013 1.03240939 15.8005289 1.03240939 15.5449619 1.03240939 15.224489 1.13990978 14.9587805 1.35693887 14.7498647 1.57396796 14.5409488 1.84170478 14.4375051 2.16217763 14.4375051 2.44208431 14.4375051 2.66722663 14.5206657 2.83557629 14.6849588 3.00392596 14.8492518 3.08911495 15.0642526 3.08911495 15.3279328 3.08911495 15.6484057 2.98161456 15.9141142 2.76458547 16.12303 2.54755639 16.3319459 2.27981957 16.4353896 1.95934671 16.4353896 1.67944004 16.4333613 1.45429771 16.3502007 1.28594805 16.181851ZM7.44592316 17.7456774C7.83130191 17.8896874 8.17205786 18.0864333 8.46819101 18.3359154L7.70960336 19.2871924C7.48446104 19.1188427 7.24106393 18.9910593 6.97535542 18.9018137 6.70964691 18.8145964 6.45002333 18.7699736 6.19242806 18.7699736 5.88818168 18.7699736 5.65289781 18.8247379 5.48860476 18.9322383 5.32431171 19.0397387 5.24115103 19.1878053 5.24115103 19.3723814 5.24115103 19.4920516 5.27968891 19.5954954 5.35473635 19.6786561 5.4318121 19.7638451 5.55148235 19.8409208 5.71577539 19.91394 5.88006844 19.9869591 6.1356354 20.078233 6.48044797 20.18979 7.05040286 20.3662529 7.47431949 20.60965 7.75625447 20.917953 8.03616114 21.226256 8.17814279 21.6258329 8.17814279 22.1146555 8.17814279 22.5324872 8.0706424 22.9056961 7.85361331 23.2342822 7.63658423 23.5628683 7.31813968 23.8224918 6.89625136 24.0111246 6.47436304 24.1997573 5.96728574 24.2930596 5.37501944 24.2930596 4.8375175 24.2930596 4.34463836 24.197729 3.89435371 24.0111246 3.44406906 23.8224918 3.07694509 23.5770664 2.78689687 23.2707917L3.65298491 22.3681941C4.17426038 22.8184788 4.75638513 23.0415928 5.39733084 23.0415928 5.75836989 23.0415928 6.02813501 22.9685737 6.20865453 22.8245637 6.38917406 22.6805537 6.47841966 22.5081475 6.47841966 22.3073448 6.47841966 22.1471084 6.44191009 22.0193249 6.37091927 21.9219661 6.29992845 21.8246072 6.17620159 21.73739 6.0037953 21.6582859 5.83138902 21.5771535 5.5636522 21.4777664 5.20464147 21.3580961 4.63468658 21.1654068 4.21888319 20.9280946 3.95317468 20.642103 3.68746617 20.3581397 3.55562607 19.9869591 3.55562607 19.5285612 3.55562607 19.1756354 3.65501322 18.8470493 3.85581583 18.5428029 4.05661845 18.2385565 4.3547799 17.9931311 4.75232851 17.808555 5.14987712 17.6239788 5.6285581 17.5306355 6.19039975 17.5306355 6.64474102 17.5286483 7.06054441 17.6016674 7.44592316 17.7456774ZM17.3907233 17.9383668C17.6503469 18.2101602 17.782187 18.5914823 17.782187 19.0803049 17.782187 19.2080883 17.7700171 19.3520983 17.7456774 19.514363L17.1087883 24.0983419 15.4252916 24.0983419 16.0276995 19.8267227C16.043926 19.6664862 16.0520392 19.5670991 16.0520392 19.5265329 16.0520392 19.3095038 16.011473 19.1573806 15.932369 19.0701633 15.8512366 18.982946 15.735623 18.9383232 15.5834998 18.9383232 15.0946772 18.9383232 14.5774584 19.4636553 14.0318432 20.5143195L13.5227376 24.0983419 11.8392409 24.0983419 12.7296687 17.7213377 14.1859947 17.7213377 14.1373153 18.8754456C14.4253352 18.451529 14.7539213 18.1188863 15.1230736 17.8836024 15.4922259 17.6462902 15.8897745 17.5286483 16.3136911 17.5286483 16.7700607 17.5286483 17.1290714 17.664545 17.3907233 17.9383668ZM19.3926645 23.5750381C18.9362949 23.0983854 18.707096 22.4371566 18.707096 21.5954083 18.707096 20.9544626 18.8227096 20.3216301 19.0559652 19.7009675 19.2892207 19.0803049 19.6685145 18.563086 20.1938466 18.1493109 20.7191787 17.7355359 21.3905491 17.5286483 22.209986 17.5286483 23.0355079 17.5286483 23.6784819 17.7659605 24.1348515 18.2385565 24.591221 18.7111526 24.82042 19.3622399 24.82042 20.1877617 24.82042 20.8287074 24.708863 21.4635682 24.4837206 22.0882874 24.2585783 22.7130067 23.8853694 23.2383388 23.3640939 23.6581988 22.8428185 24.0800871 22.1653632 24.2890157 21.3317281 24.2890157 20.4960647 24.2910313 19.8510624 24.0516908 19.3926645 23.5750381ZM22.7028651 22.0882874C22.9523472 21.4797947 23.0801307 20.8165376 23.0882439 20.1025727 23.0882439 19.6543164 23.0050832 19.3257303 22.8407902 19.1168144 22.6764971 18.9078986 22.4290434 18.8044548 22.1004573 18.8044548 21.6826256 18.8044548 21.3520112 18.9626629 21.1086141 19.2790792 20.8631887 19.5954954 20.6928107 19.9768175 20.5974802 20.4230456 20.5021496 20.8672453 20.4534702 21.2992752 20.4534702 21.7171069 20.4534702 22.1592783 20.5346026 22.4838077 20.7009239 22.6906953 20.865217 22.8996111 21.1126707 23.0030549 21.4412568 23.0030549 22.0314948 23.0030549 22.4533831 22.6988085 22.7028651 22.0882874Z"/><polygon points="34.384 17.721 32.159 24.098 30.114 24.098 29.897 19.249 28.309 24.098 26.277 24.098 25.796 17.721 27.48 17.721 27.54 22.835 29.297 17.721 30.98 17.721 31.197 22.835 32.761 17.721"/><path d="M38.1382983 17.7213377 39.6189641 17.7213377 39.6067942 18.4434158C40.1929756 17.834923 40.8258081 17.5286483 41.50732 17.5286483 42.1401524 17.5286483 42.6269466 17.7456774 42.963646 18.1777073 43.3003453 18.6117654 43.468695 19.2243148 43.468695 20.019412 43.468695 20.6928107 43.3551097 21.3560678 43.1259107 22.0112117 42.8967118 22.6643273 42.5295878 23.2079141 42.0245388 23.6419723 41.5194898 24.0760305 40.8724592 24.2910313 40.0875035 24.2910313 39.6534453 24.2910313 39.2660383 24.2261254 38.9212257 24.0983419L38.5601867 26.5647659 36.87669 26.7574553 38.1382983 17.7213377ZM40.9779312 22.5527703C41.2355265 22.2444673 41.422131 21.8611168 41.5438295 21.4027189 41.6634998 20.9463494 41.724349 20.4838949 41.724349 20.019412 41.724349 19.5792689 41.6493016 19.264881 41.501235 19.0803049 41.3531685 18.8957287 41.1462809 18.8044548 40.8826007 18.8044548 40.4262311 18.8044548 39.9881163 19.0620501 39.5702846 19.5752123L39.1139151 22.859045C39.3796236 22.9624887 39.6717001 23.0152248 39.992173 23.0152248 40.3917499 23.0152248 40.720336 22.8610733 40.9779312 22.5527703ZM50.3487199 18.1655374 49.746312 22.3519676C49.7300855 22.4959776 49.7219723 22.5933364 49.7219723 22.6399876 49.7219723 22.767771 49.7483403 22.8712148 49.8010764 22.9462622 49.8538124 23.023338 49.943058 23.0882439 50.0708415 23.1450366L49.5901322 24.2646632C48.8031482 24.1835309 48.3386654 23.8326334 48.1946555 23.2058858 47.67338 23.9279639 47.0405475 24.289003 46.2941297 24.289003 45.6369575 24.289003 45.1278519 24.0618323 44.7668129 23.6095194 44.4057738 23.1572064 44.2252543 22.544657 44.2252543 21.7738995 44.2252543 21.1086141 44.3489812 20.4514419 44.5984632 19.8003546 44.8479452 19.1512957 45.2414372 18.6097371 45.7829958 18.175679 46.3245544 17.7436491 47.0080946 17.52662 47.8336164 17.52662 48.7179592 17.5286483 49.555651 17.7416208 50.3487199 18.1655374ZM46.7646975 19.2243148C46.4908757 19.5285612 46.2941297 19.9119117 46.1683746 20.3743662 46.0446477 20.8347923 45.9817701 21.3033318 45.9817701 21.7759278 45.9817701 22.6014497 46.2535635 23.0152248 46.7991787 23.0152248 47.0486608 23.0152248 47.2758314 22.9361207 47.4847472 22.773856 47.6936631 22.6136195 47.9066356 22.3763074 48.1216363 22.0639477L48.5780059 18.9119552C48.3447503 18.8166247 48.0851268 18.7679452 47.7950786 18.7679452 47.3813035 18.7679452 47.0364909 18.9200684 46.7646975 19.2243148ZM55.8718059 17.6361487 55.3910966 19.297334C55.2146337 19.2405413 55.0341142 19.212145 54.849538 19.212145 54.4803858 19.212145 54.1700544 19.3683248 53.9165158 19.6806844 53.6629771 19.993044 53.4337782 20.4473853 53.2248623 21.0396516L52.7928325 24.0983419 51.1093358 24.0983419 51.9997636 17.7213377 53.4560896 17.7213377 53.41958 18.9362949C53.6447224 18.4799253 53.9144875 18.1330845 54.2309037 17.8957723 54.54732 17.6584601 54.881991 17.5408182 55.2349168 17.5408182 55.4499176 17.5408182 55.66289 17.5732711 55.8718059 17.6361487ZM57.9062 22.0882874C57.8899736 22.2485239 57.8818603 22.3499393 57.8818603 22.3884772 57.8818603 22.5811666 57.9224265 22.7170633 58.0015306 22.7981957 58.0806346 22.879328 58.2023332 22.9178659 58.3625696 22.9178659 58.5714855 22.9178659 58.8270524 22.8448468 59.1333271 22.7008368L59.5896967 23.8204635C59.3402147 23.9725867 59.0704495 24.0902287 58.778373 24.1693327 58.4862965 24.2504651 58.2023332 24.289003 57.9305397 24.289003 57.3605848 24.289003 56.9265267 24.1389081 56.6243086 23.8387183 56.3241188 23.5385285 56.174024 23.1064987 56.174024 22.544657 56.174024 22.4006471 56.1861938 22.2444673 56.2105335 22.0761176L56.6547332 18.9362949 55.7156261 18.9362949 55.8839757 17.7213377 56.8940737 17.7213377 57.2916223 16.2893514 58.7236086 16.1210017 58.5065796 17.7213377 59.9750754 17.7213377 59.6262063 18.9362949 58.3382299 18.9362949 57.9062 22.0882874ZM63.7882968 23.5750381C63.3319272 23.0983854 63.1027283 22.4371566 63.1027283 21.5954083 63.1027283 20.9544626 63.2183419 20.3216301 63.4515974 19.7009675 63.684853 19.0803049 64.0621185 18.563086 64.5894789 18.1493109 65.114811 17.7355359 65.7861814 17.5286483 66.6056183 17.5286483 67.4311401 17.5286483 68.0741142 17.7659605 68.5304837 18.2385565 68.9868533 18.7111526 69.2160523 19.3622399 69.2160523 20.1877617 69.2160523 20.8287074 69.1044953 21.4635682 68.8793529 22.0882874 68.6542106 22.7130067 68.2810017 23.2383388 67.7597262 23.6581988 67.2384508 24.0800871 66.5609955 24.2890157 65.7273604 24.2890157 64.891697 24.2910313 64.2446664 24.0516908 63.7882968 23.5750381ZM67.0964691 22.0882874C67.3459512 21.4797947 67.4737346 20.8165376 67.4818479 20.1025727 67.4818479 19.6543164 67.3986872 19.3257303 67.2343942 19.1168144 67.0701011 18.9078986 66.8226474 18.8044548 66.4940613 18.8044548 66.0762296 18.8044548 65.7456152 18.9626629 65.5022181 19.2790792 65.2567927 19.5954954 65.0864147 19.9768175 64.9910841 20.4230456 64.8957536 20.8672453 64.8470742 21.2992752 64.8470742 21.7171069 64.8470742 22.1592783 64.9302349 22.4838077 65.0945279 22.6906953 65.258821 22.8996111 65.5062747 23.0030549 65.8348608 23.0030549 66.4271271 23.0030549 66.8490154 22.6988085 67.0964691 22.0882874ZM73.1550288 16.4881257C72.998849 16.628079 72.8994618 16.851193 72.8609239 17.1554394L72.775735 17.7213377 74.2807404 17.7213377 73.9197014 18.9362949 72.6094136 18.9362949 71.9725245 23.4837642C71.8832789 24.1247099 71.7149292 24.6520703 71.4674755 25.0658454 71.2179935 25.4796205 70.9096905 25.8102349 70.5405382 26.0576886 70.1713859 26.3051423 69.7069031 26.5343413 69.1450614 26.7432571L68.7130316 25.4917903C69.2018541 25.2991009 69.5669498 25.0658454 69.8083186 24.794052 70.0496874 24.5222585 70.2099238 24.1003702 70.2890278 23.5304153L70.9259169 18.9342666 69.9401587 18.9342666 70.1085083 17.7193094 71.0942666 17.7193094 71.1895971 17.0580806C71.2707295 16.4414746 71.5283248 15.9404822 71.9664396 15.5591601 72.4045544 15.1778379 72.9826225 14.9871769 73.7047006 14.9871769 74.3131933 14.9871769 74.8831482 15.1595831 75.4125369 15.5043957L74.8101291 16.5388334C74.5383357 16.3623705 74.2117779 16.2731249 73.8365407 16.2731249 73.5383792 16.2771815 73.3112086 16.3481723 73.1550288 16.4881257Z"/><polygon points="83.051 15.772 82.69 17.072 79.719 17.072 79.418 19.226 81.992 19.226 81.836 20.502 79.25 20.502 78.926 22.8 82.102 22.8 81.909 24.1 76.989 24.1 78.155 15.774 83.051 15.774"/><path d="M84.9516752 22.4980059 84.9395054 22.629846C84.9395054 22.8225354 85.0307793 22.9178659 85.2153554 22.9178659 85.3187992 22.9178659 85.4323845 22.8975828 85.5520548 22.8570166L85.7812537 24.059804C85.4121014 24.2119272 85.0348359 24.289003 84.6494571 24.289003 84.1930876 24.289003 83.8401618 24.171361 83.5967647 23.9340488 83.3513392 23.6967367 83.2296407 23.3498958 83.2296407 22.8935262 83.2296407 22.7657427 83.2418105 22.629846 83.2661503 22.4838077L84.300588 15.1798662 85.9962545 14.9871769 84.9516752 22.4980059ZM92.6267973 18.1655374 92.0243895 22.3519676C92.008163 22.4959776 92.0000498 22.5933364 92.0000498 22.6399876 92.0000498 22.767771 92.0264178 22.8712148 92.0771255 22.9462622 92.1298616 23.023338 92.2191072 23.0882439 92.3468907 23.1450366L91.8661814 24.2646632C91.0791974 24.1835309 90.6147146 23.8326334 90.4707046 23.2058858 89.9494291 23.9279639 89.3165967 24.289003 88.5701789 24.289003 87.9130067 24.289003 87.4039011 24.0618323 87.042862 23.6095194 86.681823 23.1572064 86.5013035 22.544657 86.5013035 21.7738995 86.5013035 21.1086141 86.6250303 20.4514419 86.8745124 19.8003546 87.1239944 19.1512957 87.5174864 18.6097371 88.059045 18.175679 88.6006035 17.7436491 89.2841437 17.52662 90.1096656 17.52662 90.9940084 17.5286483 91.8337284 17.7416208 92.6267973 18.1655374ZM89.0427749 19.2243148C88.7709815 19.5285612 88.5722072 19.9119117 88.446452 20.3743662 88.3227252 20.8347923 88.2598476 21.3033318 88.2598476 21.7759278 88.2598476 22.6014497 88.531641 23.0152248 89.0772562 23.0152248 89.3247099 23.0152248 89.5539089 22.9361207 89.7628247 22.773856 89.9717406 22.6136195 90.184713 22.3763074 90.3997138 22.0639477L90.8560834 18.9119552C90.6228278 18.8166247 90.3632042 18.7679452 90.073156 18.7679452 89.6593809 18.7679452 89.3145684 18.9200684 89.0427749 19.2243148ZM98.9368673 17.9383668C99.1964909 18.2101602 99.328331 18.5914823 99.328331 19.0803049 99.328331 19.2080883 99.3161611 19.3520983 99.2918214 19.514363L98.6549323 24.0983419 96.9714357 24.0983419 97.5738435 19.8267227C97.59007 19.6664862 97.5981832 19.5670991 97.5981832 19.5265329 97.5981832 19.3095038 97.557617 19.1573806 97.478513 19.0701633 97.3973806 18.982946 97.281767 18.9383232 97.1296438 18.9383232 96.6408213 18.9383232 96.1236024 19.4636553 95.5779872 20.5143195L95.0688816 24.0983419 93.385385 24.0983419 94.2758127 17.7213377 95.7321387 17.7213377 95.6834593 18.8754456C95.9714792 18.451529 96.3000653 18.1188863 96.6692176 17.8836024 97.0383699 17.6462902 97.4359185 17.5286483 97.8598351 17.5286483 98.318233 17.5286483 98.6772437 17.664545 98.9368673 17.9383668ZM105.741845 18.3115757 104.900096 19.3095038C104.723634 19.1492674 104.545142 19.0356821 104.364623 18.9667196 104.184103 18.897757 103.981272 18.8653041 103.75613 18.8653041 103.137496 18.8653041 102.695324 19.1492674 102.427587 19.7192223 102.157822 20.2891772 102.023954 20.9301229 102.023954 21.6440877 102.023954 22.1004573 102.115228 22.4290434 102.299804 22.6237611 102.48438 22.8205071 102.74806 22.9178659 103.094901 22.9178659 103.320044 22.9178659 103.528959 22.8813564 103.725705 22.8103655 103.922451 22.7373464 104.149622 22.6217328 104.405189 22.4614963L105.042078 23.581123C104.360566 24.0537191 103.642545 24.2910313 102.888014 24.2910313 102.062492 24.2910313 101.415461 24.0476342 100.950978 23.5628683 100.486496 23.0781023 100.25324 22.4128169 100.25324 21.5710686 100.25324 20.9625758 100.374939 20.3459698 100.620364 19.7253072 100.865789 19.1046446 101.247112 18.5813408 101.770415 18.1614808 102.291691 17.7395925 102.948863 17.5306766 103.74396 17.5306766 104.539057 17.5306766 105.204343 17.7903002 105.741845 18.3115757ZM106.366564 23.5750381C105.910194 23.0983854 105.680995 22.4371566 105.680995 21.5954083 105.680995 20.9544626 105.796609 20.3216301 106.029865 19.7009675 106.26312 19.0803049 106.640386 18.563086 107.167746 18.1493109 107.693078 17.7355359 108.364449 17.5286483 109.183886 17.5286483 110.009407 17.5286483 110.652381 17.7659605 111.108751 18.2385565 111.565121 18.7111526 111.794319 19.3622399 111.794319 20.1877617 111.794319 20.8287074 111.682762 21.4635682 111.45762 22.0882874 111.232478 22.7130067 110.859269 23.2383388 110.337993 23.6581988 109.816718 24.0800871 109.139263 24.2890157 108.305628 24.2890157 107.469964 24.2910313 106.824962 24.0516908 106.366564 23.5750381ZM109.674736 22.0882874C109.924218 21.4797947 110.052002 20.8165376 110.060115 20.1025727 110.060115 19.6543164 109.976954 19.3257303 109.812661 19.1168144 109.648368 18.9078986 109.400915 18.8044548 109.072329 18.8044548 108.654497 18.8044548 108.323882 18.9626629 108.080485 19.2790792 107.83506 19.5954954 107.664682 19.9768175 107.569351 20.4230456 107.474021 20.8672453 107.425341 21.2992752 107.425341 21.7171069 107.425341 22.1592783 107.508502 22.4838077 107.672795 22.6906953 107.837088 22.8996111 108.084542 23.0030549 108.413128 23.0030549 109.005394 23.0030549 109.427283 22.6988085 109.674736 22.0882874Z"/></g></g></svg>