<svg xmlns="http://www.w3.org/2000/svg" width="162" height="80" viewBox="0 0 162 80"><g fill="none"><polygon fill="#0072CE" points="9.262 80 161.277 53.105 161.277 0 0 28.309"/><polygon fill="#FFF" points="9.983 58.127 15.991 29.836 32.432 29.836 30.645 35.801 21.999 35.801 20.984 40.55 28.046 40.55 26.83 46.316 19.768 46.316 18.549 52.081 28.25 52.081 26.951 58.127"/><path fill="#FFF" d="M34.0540389,29.5091698 L41.401092,28.2928741 C41.4817304,29.3075738 41.2398152,31.4579308 40.7918242,33.5276494 L37.4654907,49.0706986 C36.6927061,52.7643847 36.6120678,53.7410052 38.1957161,53.7410052 C38.4376312,53.7410052 38.6817864,53.698446 38.9662607,53.6178076 L39.1700966,58.0014 C38.1553969,58.3665127 36.4082318,58.648747 34.4617108,58.648747 C28.4944701,58.648747 29.0230995,55.5665687 29.9168417,51.3845723 L32.9609408,37.0958981 C34.0137197,32.2307154 34.0943581,30.6896262 34.0540389,29.5091698"/><path fill="#FFF" d="M51.6421672 41.8894022C51.1157777 41.8894022 50.098838 41.851323 49.0863783 43.0295394 47.5833683 44.7744645 46.6918662 48.8735825 46.6918662 51.4719306 46.6918662 52.8943021 47.0972981 53.49909 48.0716786 53.49909 48.9251015 53.49909 50.3855523 52.0386392 50.549069 51.350973L52.4955901 42.1783564C52.251435 41.9722806 51.8840823 41.8894022 51.6421672 41.8894022M59.150497 43.6365673 57.5668487 51.1874563C57.4055719 51.8751225 57.4436511 53.3378132 58.3777124 54.3547529L52.6546269 58.9399412C51.801204 58.4919502 51.1941761 57.2353353 51.0709786 56.4625507 50.1369173 57.4391712 48.0671987 58.7786644 45.6301274 58.7786644 41.3674927 58.7786644 39.5822484 56.0974381 39.5822484 51.6332073 39.5822484 47.1689766 41.3674927 42.5412292 44.0890382 39.8219236 46.4835503 37.4274115 49.0415792 36.6568669 52.7352653 36.6568669 55.6158477 36.6568669 59.1885762 37.1429371 60.7296654 37.9134817 60.1271175 39.3761725 59.5178496 41.8894022 59.150497 43.6365673M75.0631387 36.6546269C80.297914 36.6546269 80.8265435 39.6180876 80.1769565 42.6621868L76.8887022 58.1268375 69.8261235 58.1268375 72.6663867 44.7341453C73.0314994 43.1101778 72.8299034 42.3799524 71.651687 42.3799524 70.5160297 42.3799524 69.6222876 42.9466611 68.7285454 44.3287134L65.7650847 58.1290774 58.7025059 58.1290774 61.50021 44.9379812C62.152037 41.7706846 62.3939521 39.9048019 62.0691586 37.8328433L68.3208736 36.6568669C68.4843903 37.349013 68.6456671 38.0792384 68.6859863 38.9281814 70.3121938 37.5080498 72.7470251 36.6546269 75.0631387 36.6546269M87.201456 58.6554669C81.3551729 58.6554669 78.5126697 54.9214616 80.0156797 47.8588828 81.5186896 40.7537449 85.8194036 36.6568669 91.9904802 36.6568669 94.9942601 36.6568669 96.6204676 37.4274115 98.3228335 39.1320174L94.1811564 43.3946521C93.5718886 42.5434691 92.5168697 41.8535629 91.5424892 41.8535629 89.9185216 41.8535629 88.702226 43.150497 87.8084838 47.4153717 86.9147417 51.6757665 86.9953801 53.4229315 89.0247795 53.4229315 90.6061879 53.4229315 92.0688786 52.650147 93.2470951 51.5570489L95.3571329 55.6942461C92.6400672 57.9252415 89.7572449 58.6554669 87.201456 58.6554669"/><path fill="#FFF" d="M102.807224,51.7944841 C102.807224,53.0958981 103.252975,53.700686 104.388632,53.700686 C107.314014,53.700686 108.530309,44.8954221 108.530309,43.4730505 C108.530309,42.050679 108.00168,41.5668487 106.946661,41.5668487 C104.02352,41.5690886 102.807224,50.3340333 102.807224,51.7944841 M115.99832,44.0823184 C115.99832,49.5634887 112.954221,58.6554669 103.170097,58.6554669 C98.2175556,58.6554669 95.4176116,55.9339213 95.4176116,51.1045779 C95.4176116,45.7062859 98.3407532,36.6546269 108.245835,36.6546269 C112.629427,36.6568669 115.99832,38.8072239 115.99832,44.0823184"/><polygon fill="#000" points="156.138 57.3 156.974 57.3 156.974 59.536 157.35 59.536 157.35 57.3 158.183 57.3 158.183 56.96 156.138 56.96"/><polygon fill="#000" points="159.111 59.536 159.111 57.206 159.129 57.206 159.839 59.536 160.146 59.536 160.876 57.206 160.889 57.206 160.889 59.536 161.27 59.536 161.27 56.96 160.589 56.96 160.02 58.873 160.002 58.873 159.395 56.96 158.734 56.96 158.734 59.536"/></g></svg>