<svg width="368px" height="200px" viewBox="0 0 368 200" version="1.1" xmlns="http://www.w3.org/2000/svg" xmlns:xlink="http://www.w3.org/1999/xlink">
	<g id="Mapa-Elanco--Leishmaniosis" stroke="none" stroke-width="1" fill="none" fill-rule="evenodd">
		<g id="Elanco_LandingMapaElanco_Leishmaniosis-Copy" transform="translate(-545.000000, -3031.000000)" fill-rule="nonzero">
			<g id="Logo-Expertos" transform="translate(545.000000, 3031.000000)">
				<polygon id="Path" fill="#00A198" points="30.7943302 28.7220757 46.0621935 28.7220757 126.062537 199.805076 110.794673 199.805076"></polygon>
				<g id="Group" transform="translate(0.000000, 79.033726)" fill="#000000">
					<path d="M40.3916779,34.4696468 C43.9641027,22.7848406 38.9350642,14.2081857 27.7535162,14.2081857 C16.0651659,14.2081857 4.92614676,22.8663542 1.14816573,35.2280783 C-2.68297639,47.7563737 3.3242261,56.1629131 15.4307769,56.1629131 C23.670745,56.1629131 29.7488289,53.0512177 34.6680012,48.5112611 L31.1097526,44.4745628 C27.6365618,47.5862583 23.0469882,49.9395223 17.5855729,49.9395223 C9.84886313,49.9395223 6.01063287,44.8963074 7.42471771,37.2446554 L39.3745292,37.2446554 C39.5269243,36.7413971 40.054991,35.5647652 40.3916779,34.4696468 M25.7652917,20.4315766 C32.4919408,20.4315766 35.4760497,24.9715332 34.4270043,31.6981823 L9.28889972,31.6981823 C12.6841209,24.719904 19.208758,20.4315766 25.7652917,20.4315766 M110.794673,72.3061623 L117.60638,72.3061623 L124.854008,48.5963189 L124.939066,48.5963189 C126.52681,53.3028468 130.698183,56.1629131 137.173203,56.1629131 C148.439809,56.1629131 159.617813,47.9229451 163.424146,35.4797074 C167.124158,23.3696125 161.602493,14.2081857 149.999201,14.2081857 C143.779354,14.2081857 137.690638,17.068252 133.090432,21.9413514 L133.005374,21.9413514 L135.216875,14.711444 L128.405168,14.711444 L110.794673,72.3061623 Z M138.147823,49.9395223 C130.326056,49.9395223 125.878245,44.137876 128.525667,35.4797074 C131.098663,27.0696239 138.760948,20.4280325 147.085973,20.4280325 C154.819139,20.4280325 159.298846,26.3962502 156.523838,35.4797074 C154.007546,43.7232195 146.387791,49.9395223 138.147823,49.9395223 M212.073626,34.4696468 C215.646051,22.7848406 210.617013,14.2081857 199.435465,14.2081857 C187.747114,14.2081857 176.608095,22.8663542 172.830114,35.2280783 C168.998972,47.7563737 175.002631,56.1629131 187.112725,56.1629131 C195.356238,56.1629131 201.430777,53.0512177 206.34995,48.5112611 L202.791701,44.4745628 C199.31851,47.5862583 194.732481,49.9395223 189.267521,49.9395223 C181.530812,49.9395223 177.692581,44.8963074 179.106666,37.2446554 L211.056478,37.2446554 C211.212417,36.7413971 211.740484,35.5647652 212.073626,34.4696468 M197.450784,20.4315766 C204.177433,20.4315766 207.161542,24.9715332 206.112497,31.6981823 L180.974392,31.6981823 C184.366069,24.719904 190.890707,20.4315766 197.450784,20.4315766 M217.283413,55.6596549 L224.09512,55.6596549 L230.137763,35.901452 C232.657598,27.661484 239.10781,21.6897222 246.926033,21.6897222 C247.599407,21.6897222 248.581115,21.7712359 249.562823,21.8598377 L251.877102,14.2932434 C251.313595,14.2081857 250.810336,14.2081857 250.22202,14.2081857 C244.590489,14.2081857 238.955415,17.2348234 234.496972,22.1965246 L234.326856,22.1965246 L236.616327,14.714988 L229.80462,14.714988 L217.283413,55.6596549 Z M260.010748,56.1629131 C264.883847,56.1629131 268.020351,54.9862812 270.703214,53.6430778 L270.763463,47.6748601 C268.410199,48.7664343 265.582029,49.7764949 263.143708,49.7764949 C259.277125,49.7764949 258.904997,47.4232309 260.42186,42.4615298 L267.105981,20.6016921 L280.644337,20.6016921 L282.441181,14.714988 L268.902825,14.714988 L273.403797,0 L266.361725,0.758431464 L262.094662,14.7185321 L256.796274,14.7185321 L254.99943,20.6052361 L260.297818,20.6052361 L253.305363,43.4751344 C250.774896,51.7080143 252.777296,56.1629131 260.010748,56.1629131 M297.170346,56.1629131 C309.276896,56.1629131 320.873101,47.671316 324.67589,35.2280783 C328.482224,22.7848406 322.106438,14.2081857 309.999887,14.2081857 C297.30502,14.2081857 285.985253,23.4546702 282.384476,35.2280783 C278.783699,46.9979423 284.475479,56.1629131 297.170346,56.1629131 M299.073512,49.9395223 C290.581915,49.9395223 286.867727,43.3829886 289.362754,35.2245342 C291.857781,27.0696239 299.520065,20.4280325 308.09672,20.4280325 C316.000001,20.4280325 320.369843,26.4813079 317.697612,35.2245342 C315.021838,43.9748486 306.891736,49.9395223 299.073512,49.9395223 M342.488398,56.1629131 C352.326742,56.1629131 358.823027,50.8645251 360.77581,44.4781069 C363.29919,36.489768 358.046875,34.9764492 350.416487,31.6131246 C346.447126,30.014748 343.657941,28.4199155 344.636105,25.2231623 C345.585917,22.1114668 349.264664,20.2650052 352.457873,20.2650052 C355.991313,20.2650052 359.439695,21.3565795 361.966619,24.6348463 L367.144508,19.2549446 C363.731567,15.5584772 359.521209,14.2117298 354.559508,14.2117298 C346.822798,14.2117298 339.667316,18.9182577 337.739341,25.2231623 C335.44987,32.7082429 340.26272,35.3981938 346.184865,37.7514577 C351.486797,39.9381503 354.959988,40.9482109 353.854237,44.5631646 C352.904426,47.6748601 349.300104,50.1096377 344.338403,50.1096377 C338.621815,50.1096377 335.570369,48.2631761 333.326971,45.1514806 L328.2873,50.3648109 C331.182807,53.8096492 335.676691,56.1629131 342.488398,56.1629131" id="Shape"></path>
					<path d="M145.352922,89.7819826 L155.719333,89.7819826 L155.719333,87.985138 L147.330514,87.985138 L147.330514,82.6442211 L153.809078,82.6442211 L153.809078,80.8509205 L147.330514,80.8509205 L147.330514,75.4391222 L155.240884,75.4391222 L155.240884,73.6422775 L145.349378,73.6422775 L145.349378,89.7819826 L145.352922,89.7819826 Z M159.376816,89.7819826 L161.354408,89.7819826 L161.354408,77.0764836 L161.400481,77.0764836 L170.423689,89.7819826 L172.447354,89.7819826 L172.447354,73.6422775 L170.469762,73.6422775 L170.469762,86.4859954 L170.448498,86.4859954 L161.333144,73.6422775 L159.376816,73.6422775 L159.376816,89.7819826 Z M183.178805,89.7819826 L193.137648,89.7819826 L193.137648,87.985138 L185.156398,87.985138 L185.156398,73.6422775 L183.175261,73.6422775 L183.175261,89.7819826 L183.178805,89.7819826 Z M196.387563,89.7819826 L206.753974,89.7819826 L206.753974,87.985138 L198.365155,87.985138 L198.365155,82.6442211 L204.840175,82.6442211 L204.840175,80.8509205 L198.365155,80.8509205 L198.365155,75.4391222 L206.275524,75.4391222 L206.275524,73.6422775 L196.387563,73.6422775 L196.387563,89.7819826 L196.387563,89.7819826 Z M210.524867,89.7819826 L212.502459,89.7819826 L212.502459,73.6422775 L210.524867,73.6422775 L210.524867,89.7819826 Z M221.823369,89.9202014 C224.644451,89.9202014 227.231624,88.328913 227.231624,85.3731567 C227.231624,82.346519 224.935065,81.6199842 222.230938,80.5532185 C220.207272,79.7806107 218.750659,79.2135591 218.775467,77.6647996 C218.796732,76.1195841 220.139935,75.3009034 221.663886,75.3009034 C222.865326,75.3009034 224.254603,75.8679549 225.548189,76.9382647 L226.753174,75.3682407 C225.232767,74.1419917 223.460731,73.4827943 221.663886,73.4827943 C218.888877,73.4827943 216.730537,75.3469763 216.730537,77.7569454 C216.730537,80.5992914 219.161771,81.6199842 221.550476,82.5060023 C223.71236,83.324683 225.165429,83.8031327 225.165429,85.5999774 C225.165429,87.1700014 223.82577,88.0772839 221.848178,88.0772839 C220.281698,88.0772839 218.552191,87.3507491 217.393279,85.8941354 L216.120957,87.4180864 C217.729966,89.1475937 219.799704,89.9202014 221.823369,89.9202014 M230.89265,89.7819826 L232.870242,89.7819826 L232.870242,83.0092605 L241.305134,83.0092605 L241.305134,89.7819826 L243.282727,89.7819826 L243.282727,73.6422775 L241.305134,73.6422775 L241.305134,81.2124159 L232.870242,81.2124159 L232.870242,73.6422775 L230.89265,73.6422775 L230.89265,89.7819826 Z M247.829771,89.7819826 L249.828628,89.7819826 L249.828628,77.4840519 L249.849893,77.4840519 L255.102208,86.5320684 L256.445411,86.5320684 L261.697726,77.4840519 L261.743799,77.4840519 L261.743799,89.7819826 L263.721392,89.7819826 L263.721392,73.6422775 L261.743799,73.6422775 L255.811022,84.0760263 L255.764949,84.0760263 L249.832172,73.6422775 L247.833316,73.6422775 L247.833316,89.7819826 L247.829771,89.7819826 Z M266.836631,89.7819826 L268.906369,89.7819826 L270.338174,85.8480624 L277.543273,85.8480624 L278.999887,89.7819826 L281.066081,89.7819826 L274.927748,73.6422775 L272.950156,73.6422775 L266.836631,89.7819826 Z M270.972563,84.1220992 L273.903511,76.0274382 L273.949584,76.0274382 L276.926605,84.1220992 L270.972563,84.1220992 Z M284.181321,89.7819826 L286.158913,89.7819826 L286.158913,77.0764836 L286.204986,77.0764836 L295.228194,89.7819826 L297.251859,89.7819826 L297.251859,73.6422775 L295.270723,73.6422775 L295.270723,86.4859954 L295.249458,86.4859954 L286.13056,73.6422775 L284.177777,73.6422775 L284.177777,89.7819826 L284.181321,89.7819826 Z M301.912314,89.7819826 L303.889907,89.7819826 L303.889907,73.6422775 L301.912314,73.6422775 L301.912314,89.7819826 Z M315.961017,89.9202014 C320.483253,89.9202014 324.006061,86.6242142 324.006061,81.7121301 C324.006061,76.7787815 320.483253,73.4827943 315.961017,73.4827943 C311.254489,73.4827943 307.845091,76.9170003 307.845091,81.7121301 C307.845091,86.5072599 311.254489,89.9202014 315.961017,89.9202014 M315.961017,88.0524754 C312.459473,88.0524754 309.911285,85.3483482 309.911285,81.708586 C309.911285,78.0475594 312.459473,75.3434322 315.961017,75.3434322 C319.299533,75.3434322 321.939867,77.9589576 321.939867,81.708586 C321.939867,85.43695 319.303077,88.0524754 315.961017,88.0524754 M332.398424,89.9202014 C335.215961,89.9202014 337.810222,88.328913 337.810222,85.3731567 C337.810222,82.346519 335.513663,81.6199842 332.809536,80.5532185 C330.785871,79.7806107 329.329257,79.2135591 329.350522,77.6647996 C329.371786,76.1195841 330.71499,75.3009034 332.238941,75.3009034 C333.440381,75.3009034 334.829657,75.8679549 336.123244,76.9382647 L337.328228,75.3682407 C335.804277,74.1419917 334.032241,73.4827943 332.235397,73.4827943 C329.460388,73.4827943 327.302048,75.3469763 327.302048,77.7569454 C327.302048,80.5992914 329.733281,81.6199842 332.121986,82.5060023 C334.280326,83.324683 335.73694,83.8031327 335.73694,85.5999774 C335.73694,87.1700014 334.393737,88.0772839 332.416144,88.0772839 C330.84612,88.0772839 329.120157,87.3507491 327.961245,85.8941354 L326.688923,87.4180864 C328.30502,89.1475937 330.374759,89.9202014 332.398424,89.9202014 M341.581115,89.7819826 L343.558707,89.7819826 L343.558707,73.6422775 L341.581115,73.6422775 L341.581115,89.7819826 Z M352.876073,89.9202014 C355.697155,89.9202014 358.287872,88.328913 358.287872,85.3731567 C358.287872,82.346519 355.991313,81.6199842 353.287186,80.5532185 C351.26352,79.7806107 349.806907,79.2135591 349.831715,77.6647996 C349.85298,76.1195841 351.196183,75.3009034 352.720134,75.3009034 C353.925119,75.3009034 355.314395,75.8679549 356.607981,76.9382647 L357.812966,75.3682407 C356.292559,74.1419917 354.516979,73.4827943 352.720134,73.4827943 C349.94867,73.4827943 347.786786,75.3469763 347.786786,77.7569454 C347.786786,80.5992914 350.218019,81.6199842 352.606724,82.5060023 C354.765064,83.324683 356.221678,83.8031327 356.221678,85.5999774 C356.221678,87.1700014 354.878474,88.0772839 352.900882,88.0772839 C351.334402,88.0772839 349.604895,87.3507491 348.445983,85.8941354 L347.173661,87.4180864 C348.786214,89.1475937 350.852408,89.9202014 352.876073,89.9202014" id="Shape"></path>
				</g>
				<polygon id="Path" fill="#0073C8" points="76.7361389 28.7220757 134.426547 28.7220757 82.0628796 200 24.3689272 200"></polygon>
				<path d="M192.623758,19.713044 C193.091575,18.6462782 193.559393,14.8364006 193.559393,14.8364006 C194.891964,5.66434155 197.177891,2.34708991 197.791015,1.58865845 C195.792158,3.90293764 193.573569,8.43580606 191.812165,12.2669482 C191.911399,14.4678171 192.237454,20.5919739 192.623758,19.713044 M191.776725,23.586715 C193.134104,21.3149647 197.496857,13.3018173 197.496857,13.3018173 C197.14245,5.85572145 198.755003,1.65245175 199.516978,0.103692172 C199.077513,0.284439857 198.59552,0.684920023 198.085173,1.24842751 C196.203271,4.36012296 194.023666,13.631416 194.10518,14.9675312 C194.190238,16.3071906 191.776725,23.586715 191.776725,23.586715 M191.018293,24.323882 L191.776725,20.2481989 C191.347892,18.2316218 191.46839,13.0182915 191.46839,13.0147474 C190.936779,14.1913794 190.468962,15.2581452 190.103922,16.1051784 C189.508518,17.4909107 188.732367,19.5748252 187.938494,21.8111348 C187.754203,24.323882 187.34309,30.0440146 187.34309,30.1999538 C187.34309,30.4019659 191.018293,24.323882 191.018293,24.323882 M189.561679,56.7627754 C189.157655,56.9151705 187.927862,56.9080824 187.927862,56.6174685 C187.927862,56.5359548 188.168859,56.1283865 188.852865,55.9370066 C191.518007,55.1750311 193.325484,54.4024233 195.870128,53.3037609 C196.586031,52.9989707 197.780383,53.3427457 198.496286,53.9806787 L189.561679,56.7627754 Z M187.34309,48.8701265 C187.410428,48.3491479 189.008804,48.746084 189.660913,48.6574822 L195.395222,52.7721501 C193.109296,53.6085511 190.532755,53.6546241 188.020008,54.5760828 C188.186579,49.0331538 187.098549,50.8193662 187.34309,48.8701265 M177.752831,51.2907279 C176.661256,50.2877554 175.683092,49.3875611 174.676576,48.4625582 C174.970734,48.0797984 175.264892,47.6970386 175.55905,47.3107347 C175.059336,47.1689718 174.605694,47.1583396 174.304448,46.935063 C173.106552,46.0596772 172.961245,44.0643645 173.960673,42.9515258 C174.690752,42.1399333 175.48108,42.1576536 176.200527,42.9763343 C176.902253,43.7772947 176.948326,44.773179 177.086545,45.7442548 C177.299189,47.229221 177.540186,48.7141873 177.745743,50.1991536 C177.79536,50.560649 177.752831,50.9363206 177.752831,51.2907279 M171.036814,46.8216527 L165.752602,43.9970271 C165.851836,43.8091913 166.511033,43.6816047 166.815824,43.989939 C168.020808,44.5924313 168.991884,45.2197321 170.019665,45.8789295 C170.902139,46.442437 171.086431,46.6798898 171.036814,46.8216527 M239.915858,77.9456953 C239.189323,76.8115922 235.30502,75.5888873 235.156169,75.5888873 C235.007318,75.5888873 231.19744,72.9343772 231.19744,72.9343772 L219.22202,68.2739221 L217.818568,66.4239164 L211.006861,60.2111577 L209.603408,58.7616322 C209.603408,58.7616322 212.959645,60.714416 213.962617,62.1674856 C214.965589,63.6170112 216.819139,63.8721844 216.819139,63.8721844 L226.887848,68.4794783 C226.887848,68.4794783 227.586031,69.2839827 227.738426,69.3300557 C227.887277,69.3796727 230.690638,69.8333139 230.690638,69.8333139 C230.690638,69.8333139 235.099464,71.9845658 235.301476,71.9845658 C235.503488,71.9845658 237.257804,71.7860978 237.257804,71.7860978 L238.009147,73.6892646 C238.009147,73.6892646 239.4126,72.7394532 238.211159,71.0347544 C237.009719,69.3300557 235.152625,70.6342743 235.152625,70.6342743 C235.152625,70.6342743 230.042073,68.4298613 229.843605,68.3306273 C229.641593,68.2313933 228.340918,66.8279407 228.340918,66.8279407 C228.340918,66.8279407 226.536985,66.6259285 226.338517,66.6259285 C226.136505,66.6259285 215.76655,62.1178686 215.76655,62.1178686 L214.912428,61.4657593 C214.632447,61.2141302 213.827942,60.8278263 213.562137,60.565565 C212.754088,59.7752369 212.516635,59.7362521 211.77238,58.8785866 C211.527839,58.5915167 210.36184,57.6771461 210.120843,57.3829881 C210.120843,57.3829881 209.270265,56.7663195 209.245457,56.4154564 C209.210016,55.9689032 212.65131,56.3091342 213.438094,56.2559731 C213.93072,56.2240765 215.323541,57.3546355 215.692124,56.9895961 C216.057164,56.6245566 216.95027,56.2559731 217.265692,56.936435 C217.581115,57.6168968 218.63016,58.6659422 218.63016,58.6659422 C218.63016,58.6659422 219.991084,56.936435 217.896537,53.6865207 C215.80199,50.4366064 208.692582,47.3851602 208.586259,47.3284551 C207.090661,46.4778777 205.531269,45.7336226 204.01795,44.9184859 C203.688351,44.7412823 203.333944,44.6349602 202.993713,44.479021 C202.657026,44.3230818 202.334516,44.1139815 202.072255,43.7347658 C201.742656,43.2634042 200.764492,43.2811245 200.112383,42.9975988 C199.534699,42.7424256 199.024352,42.3384013 198.457301,42.0584196 C198.02138,41.8422312 197.550018,41.686292 197.075113,41.5587054 C196.784499,41.4807358 196.493885,41.4133985 196.217447,41.3212526 C196.125301,41.2929 196.033155,41.2574593 195.944554,41.2184745 C195.586602,41.0696235 195.260548,40.853435 195.005374,40.4883956 C194.891964,40.3218242 194.580086,40.2580309 194.346177,40.2225902 C193.506232,40.0879154 192.662743,39.9851373 192.02481,39.8965355 C191.56408,39.2515144 191.191953,38.7305358 190.695783,38.0358976 C191.308907,37.7275633 191.890135,37.4298612 192.478451,37.1392473 C192.549332,37.1038066 192.669831,37.1357032 192.715904,37.0860862 C193.095119,36.6891501 193.492056,36.2957581 193.803934,35.849205 C193.807478,35.8421169 193.807478,35.8279406 193.803934,35.8102202 C193.761405,35.6790895 193.474335,35.306962 193.272323,35.2396246 C192.800961,35.0836854 192.336688,35.1191261 191.957472,35.4345486 C191.872415,35.5018859 191.794445,35.5798555 191.720019,35.6790895 C191.209673,36.3453751 190.695783,37.0152048 190.160628,37.66377 C190.107467,37.7275633 190.033041,37.7736363 189.933807,37.7984448 C189.831029,37.8232533 189.706986,37.8303414 189.554591,37.809077 C189.643193,37.6744022 189.724707,37.5290953 189.809764,37.3908764 C189.894822,37.2526576 189.986968,37.1179829 190.100378,37.0010285 C190.656798,36.4304329 190.359096,36.1539952 189.781412,35.9555272 C189.480166,35.849205 189.168287,35.7712354 188.601236,35.604664 C188.79616,35.4699893 188.962731,35.3424027 189.125759,35.2219042 C189.349035,35.0517888 189.551047,34.9029377 189.749515,34.7753511 C189.862926,34.7009256 189.976336,34.6371323 190.089746,34.5804271 L188.643765,34.3394302 C189.930263,33.8113635 192.513892,32.7658621 196.904997,31.2100144 C202.862583,29.0942033 206.874472,24.7030977 209.266721,20.8967641 C208.182235,21.2901562 201.377616,25.8053042 199.931635,27.070538 C198.829428,28.0345257 190.295302,32.8013029 188.165315,34.2614606 L187.711674,34.1870351 C187.43878,34.1976673 187.236768,34.13033 187.236768,34.13033 L188.416944,33.2124152 C188.952099,31.5431572 190.55402,26.2802099 190.55402,26.2802099 C190.55402,26.2802099 186.375558,32.8296554 185.808507,33.8716127 L185.223735,33.7759227 L186.807935,31.0753397 L187.219048,23.8666967 C185.617127,28.4952551 184.139249,33.0777405 184.139249,33.0777405 C184.139249,33.0777405 184.117984,33.3293696 184.110896,33.591631 L184.100264,33.591631 C183.866355,33.5065732 183.611182,33.446324 183.380817,33.3329137 C181.888763,32.5957467 180.336459,32.4114549 178.727451,32.5461297 C178.48291,32.56385 178.238369,32.5922026 177.990283,32.6276433 C177.437408,32.7056129 176.927062,32.8615521 176.466332,33.0954609 C175.782326,33.4392359 175.215275,33.9460382 174.807707,34.5875153 C174.396594,35.2254483 174.144965,35.994512 174.08826,36.8628097 C174.031555,37.7559159 174.081172,38.6561102 174.081172,39.623642 C173.762205,39.7264201 173.195154,39.7051556 172.918716,39.8079337 C172.13902,40.1020917 171.749172,40.3927057 171.603865,41.1227845 C171.603865,41.1227845 167.755003,34.2047555 167.755003,34.0559044 C167.755003,33.9105975 162.14828,25.9364349 156.789643,23.586715 L155.524409,23.586715 C155.524409,23.586715 160.560536,26.9748481 163.711216,30.6925799 C166.978851,34.5414423 170.728479,41.5090884 170.728479,41.5090884 L170.873786,42.030067 C171.171488,42.5510457 170.749744,42.4766201 171.118327,42.9550699 L166.145994,37.5609919 C166.145994,37.5609919 161.567053,33.4675885 152.405626,29.71796 L150.360696,29.7640329 C150.360696,29.7640329 156.793187,32.3476616 158.838117,33.7121294 C160.883047,35.0765973 164.831143,36.4906821 169.899167,43.3094771 L170.214589,43.7489421 C170.221677,43.8091913 170.225221,43.8765287 170.218133,43.9509542 C170.040929,43.8339998 169.860182,43.7312217 169.69361,43.6036351 C169.016693,43.0862006 168.357495,42.5475016 167.666401,42.0548755 C167.425404,41.8847601 167.177319,41.8032464 166.936322,41.8209668 C166.695325,41.8386871 166.252316,42.3986506 166.04676,42.6254712 C165.883733,42.8026748 165.727793,42.8912766 165.564766,42.9019088 C165.401739,42.9160851 165.231623,42.8522918 165.036699,42.7353374 C164.494456,42.4092828 163.580086,41.3744137 163.023666,41.0731675 C162.832286,40.9703894 162.665715,40.9278606 162.51332,40.9384928 C162.502688,40.9384928 162.492055,40.9455809 162.481423,40.9455809 C162.385733,40.9597572 162.293587,40.9951979 162.212074,41.0554472 C162.151825,41.097976 162.098663,41.1511371 162.041958,41.2149304 C161.985253,41.2822678 161.928548,41.3602374 161.871843,41.4523833 C161.871843,41.4523833 158.29233,43.5575622 157.31771,44.727106 C156.34309,45.8966499 150.254374,51.8436031 148.889906,52.768606 C147.521894,53.6936089 141.528868,59.931176 140.1644,60.565565 C138.799932,61.1964098 130.808049,67.923059 130.808049,67.923059 L131.832286,69.6313018 C131.832286,69.6313018 132.661599,68.412141 132.661599,68.266834 C132.661599,68.117983 144.406655,58.5702523 145.622272,57.6417054 C146.841432,56.7167025 150.15514,54.1685145 150.25083,53.8353717 C150.350064,53.502229 157.852865,46.3857318 158.047789,45.9462669 C158.242713,45.510346 161.212645,42.7991307 161.602493,42.7672341 C161.992341,42.7317933 162.72242,42.5368694 163.115812,42.9763343 C163.50566,43.4157993 164.090432,44.2451122 164.090432,44.2451122 L154.833315,54.0409279 C154.833315,54.0409279 152.10438,56.9151705 150.594605,58.2760943 C149.08483,59.6441062 144.551962,63.1988107 143.722649,64.5632785 C142.89688,65.9277463 139.38116,68.3483477 138.9984,68.706299 C135.723678,71.7223045 134.85538,71.7754655 134.85538,71.7754655 L135.83,73.5297813 C135.83,73.5297813 136.000115,72.0235506 136.772723,71.7223045 C138.785756,70.9355204 148.840289,60.863267 148.840289,60.863267 C148.840289,60.863267 156.732938,54.2854689 156.732938,54.0905449 C156.732938,53.895621 163.799818,46.247513 163.799818,46.1022061 C163.799818,45.953355 165.164286,44.4435802 166.723678,45.7619751 C168.28307,47.0768259 171.352236,49.1749167 171.352236,49.1749167 C171.352236,49.1749167 171.937008,49.7100716 170.671774,51.1241565 C169.40654,52.5382413 167.698298,54.877329 164.239283,57.6523376 C160.780269,60.4308902 153.663771,65.9844515 153.227851,66.2289924 C152.788386,66.4735334 147.819596,69.0075451 147.819596,69.0075451 L148.259061,70.9071678 L149.478222,69.982165 C149.478222,69.982165 155.180634,67.0583054 155.375558,66.9129984 C155.570482,66.7641474 165.366298,58.4816505 165.366298,58.4816505 L170.434321,53.3143931 C170.434321,53.3143931 169.899167,57.4077966 170.969476,58.6269574 L171.699555,58.2867265 C171.699555,58.2867265 171.26009,57.5105747 171.455014,55.6074079 C171.649938,53.7077851 172.674175,51.2694634 172.674175,51.2694634 L172.723792,55.2671769 C172.723792,55.2671769 174.722649,54.0976331 174.478108,51.3190804 L174.818339,50.6386186 L175.303877,51.0284665 L177.253116,53.0733962 L174.768722,57.7515716 L173.503488,61.0652792 C173.503488,61.0652792 169.750315,64.8645246 168.045617,66.1829195 C166.337374,67.483594 160.879503,71.8215385 160.879503,71.8215385 L160.783813,73.0867723 C160.783813,73.0867723 153.961474,77.7649477 153.716933,78.0094886 C153.472392,78.2504856 153.76655,80.0544183 153.76655,80.0544183 C153.76655,80.0544183 154.206015,79.5192634 154.790786,78.8848745 C155.375558,78.2504856 161.907284,73.7176171 162.052591,73.5226932 C162.197897,73.3277692 168.924547,66.5550471 168.924547,66.5550471 L175.041615,61.4409508 C175.041615,61.4409508 176.087117,58.5170912 176.0375,58.2725502 C175.987883,58.0315533 177.891049,53.6936089 177.891049,53.6936089 C177.891049,53.6936089 179.741055,54.6682287 179.889906,53.8389158 C179.889906,53.8389158 179.741055,51.2092142 180.230137,51.0142902 C180.715675,50.8193662 180.910599,54.2819249 181.25083,55.1573107 C181.591061,56.0362406 181.789529,57.4963984 183.738769,57.5920883 C183.738769,57.5920883 183.689152,54.9127697 183.689152,54.7178457 C183.689152,54.5229218 184.369614,52.672916 184.518465,51.2552871 C184.663772,49.8447464 185.29816,49.5045154 185.493084,50.9646732 C185.688008,52.424831 185.347778,57.4432373 185.592318,58.3221672 C185.833315,59.1975531 186.403911,59.4066533 186.403911,59.4066533 C186.44644,59.4491822 186.506689,59.4917111 186.574027,59.5306959 C186.776039,59.6405621 187.063108,59.6937232 187.22968,59.633474 C191.33726,58.1449636 195.434207,56.6316448 199.520522,55.0970615 C199.665829,55.0439004 200.427805,54.7001254 200.555392,54.6788609 C200.938151,54.6186117 201.983653,54.5725388 202.440838,54.6788609 C204.014406,55.0439004 204.421974,55.9440947 205.428491,56.6174685 C206.431463,57.2908422 207.657712,57.7125868 208.444496,58.6269574 C210.411457,60.90934 212.222477,63.1562818 213.466447,64.6164396 C213.466447,64.6164396 217.024695,68.8232533 217.825656,69.0217214 C218.626616,69.2237335 219.328342,69.2733505 220.030069,69.7730647 C220.731795,70.276323 230.049161,75.135246 230.049161,75.135246 C230.049161,75.135246 232.104723,75.2344801 232.253574,75.2840971 C232.402425,75.3337141 236.311537,77.9882242 237.06288,78.1902363 C237.814223,78.3922485 238.966047,77.538127 239.398424,79.3739565 C239.798904,81.0928315 240.266721,78.4950265 239.915858,77.9456953 M203.879731,5.22842066 C203.344576,2.53492574 201.898595,-0.05579108 200.08403,0.000914076199 C197.915058,4.7003539 197.964675,12.4335196 197.964675,12.4335196 C199.984796,9.35372078 202.681835,6.45821374 203.879731,5.22842066 M175.020351,43.0153191 C174.417859,43.0543039 173.857895,43.940322 173.87916,44.8121638 C173.903968,45.7159022 174.456843,46.4637014 175.0806,46.442437 C175.690181,46.4211726 176.211159,45.6273004 176.196983,44.7377382 C176.186351,43.7702065 175.640564,42.9763343 175.020351,43.0153191 M193.555849,20.889676 C195.682292,18.0154334 202.111239,10.6118664 203.982509,8.78666922 C204.145537,7.94672409 204.138449,6.94020757 203.996686,5.91597068 C199.708358,9.84280275 193.555849,20.889676 193.555849,20.889676 M212.360696,9.8357146 C212.307535,7.33714366 211.729851,5.00868818 209.723907,5.08665777 C209.617584,5.09020185 209.514806,5.11501035 209.412028,5.12918664 C207.044588,7.76243233 204.645251,16.1937802 204.645251,16.4418653 C204.645251,16.7076707 212.236654,9.94558085 212.360696,9.8357146 M199.034985,18.2457981 C199.297246,17.8275976 202.054534,12.894249 203.241798,10.7678056 C200.636905,12.1748023 191.418773,25.0787694 191.418773,25.0787694 C191.128159,26.283754 189.823941,30.5295525 189.331315,32.1066647 L193.488511,27.1307872 C193.488511,27.1307872 198.698298,18.780953 199.034985,18.2457981 M211.992113,14.7052699 C212.13742,13.7554585 212.325256,12.2456837 212.357152,10.7040123 C212.013377,10.9520974 204.510576,17.4483818 204.308564,17.8453179 C204.106552,18.2457981 196.692353,25.1248423 196.62856,25.3268545 C196.561222,25.5253225 200.232881,23.3209096 200.232881,23.3209096 C204.173889,21.5914023 209.727451,17.7106432 211.488855,16.4489534 C211.758204,15.7295068 211.931864,15.1163823 211.992113,14.7052699 M190.103922,32.6063789 C192.148852,31.7026405 198.297818,27.5950607 199.921003,26.2589455 C201.544188,24.9263743 208.160971,20.7301927 209.560879,20.400594 C210.198812,19.3338283 210.70207,18.337944 211.088374,17.4483818 C208.118442,19.9150561 201.370528,23.3209096 200.502231,23.9234018 C199.633933,24.5258941 195.225107,26.528295 194.491484,27.1945805 C193.757861,27.8608661 188.062537,33.5101173 190.103922,32.6063789 M199.633933,18.3131355 C198.49983,21.0491592 193.290043,27.6659422 194.891964,26.0144045 C196.493885,24.3664109 203.844291,17.2357375 203.844291,17.2357375 C204.928777,12.3413737 207.023323,7.8687545 208.263749,5.48713794 C205.797074,6.68503436 203.900996,10.246827 203.518236,11.0088025 C203.52178,11.0052585 200.77158,15.5735676 199.633933,18.3131355" id="Shape" fill="#000000"></path>
			</g>
		</g>
	</g>
</svg>