<svg width="489px" height="230px" viewBox="0 0 489 230" version="1.1" xmlns="http://www.w3.org/2000/svg" xmlns:xlink="http://www.w3.org/1999/xlink">
	<defs>
		<polygon id="path-rvzngjslfe-1" points="0 0 51.7278 0 51.7278 55.858 0 55.858"></polygon>
		<polygon id="path-rvzngjslfe-3" points="0 0 135.325 0 135.325 228.35 0 228.35"></polygon>
	</defs>
	<g id="Symbols" stroke="none" stroke-width="1" fill="none" fill-rule="evenodd">
		<g id="logo_antiparasitarios" transform="translate(0.000000, -21.000000)">
			<g id="Group-16" transform="translate(0.000084, 89.808200)">
				<path d="M12.3678164,42.2009 L45.8358164,42.2009 C47.2318164,33.2449 43.2578164,27.2019 34.3048164,27.2019 C25.5718164,27.2019 16.8888164,32.9099 12.3678164,42.2009 M52.4208164,49.5899 L9.88381644,49.5899 C8.00281644,59.7739 13.1128164,66.4909 23.4118164,66.4909 C30.6868164,66.4909 36.7928164,63.3589 41.4178164,59.2169 L46.1558164,64.5889 C39.6058164,70.6329 31.5128164,74.7749 20.5428164,74.7749 C4.42281644,74.7749 -3.57018356,63.5799 1.52781644,46.9019 C6.55781644,30.4479 21.3888164,18.9169 36.9468164,18.9169 C51.8348164,18.9169 58.5308164,30.3349 53.7738164,45.8929 C53.3288164,47.3509 52.6258164,48.9179 52.4208164,49.5899" id="Fill-1" fill="#000000"></path>
				<path d="M208.391116,47.238 C212.087116,35.149 206.121116,27.202 195.822116,27.202 C184.742116,27.202 174.537116,36.045 171.115116,47.238 C167.591116,58.768 173.513116,66.491 183.922116,66.491 C194.892116,66.491 205.037116,58.208 208.391116,47.238 L208.391116,47.238 Z M180.015116,19.589 L177.072116,29.216 L177.185116,29.216 C183.312116,22.724 191.416116,18.917 199.699116,18.917 C215.145116,18.917 222.496116,31.118 217.569116,47.238 C212.504116,63.805 197.620116,74.775 182.622116,74.775 C174.002116,74.775 168.449116,70.969 166.337116,64.701 L166.224116,64.701 L156.573116,96.267 L147.506116,96.267 L170.949116,19.589 L180.015116,19.589 Z" id="Fill-3" fill="#000000"></path>
				<path d="M240.934116,42.2009 L274.402116,42.2009 C275.798116,33.2449 271.825116,27.2019 262.871116,27.2019 C254.138116,27.2019 245.455116,32.9099 240.934116,42.2009 M280.987116,49.5899 L238.450116,49.5899 C236.569116,59.7739 241.679116,66.4909 251.978116,66.4909 C259.252116,66.4909 265.359116,63.3589 269.984116,59.2169 L274.723116,64.5889 C268.173116,70.6329 260.079116,74.7749 249.109116,74.7749 C232.989116,74.7749 224.996116,63.5799 230.094116,46.9019 C235.124116,30.4479 249.956116,18.9169 265.514116,18.9169 C280.401116,18.9169 287.096116,30.3349 282.340116,45.8929 C281.896116,47.3509 281.193116,48.9179 280.987116,49.5899" id="Fill-5" fill="#000000"></path>
				<path d="M315.007116,19.589 L311.962116,29.552 L312.186116,29.552 C318.122116,22.948 325.622116,18.917 333.123116,18.917 C333.906116,18.917 334.578116,18.917 335.328116,19.029 L332.247116,29.105 C330.938116,28.994 329.629116,28.882 328.735116,28.882 C318.325116,28.882 309.737116,36.829 306.383116,47.798 L298.341116,74.102 L289.274116,74.102 L305.940116,19.589 L315.007116,19.589 Z" id="Fill-7" fill="#000000"></path>
				<path d="M337.109116,57.872 L346.417116,27.426 L339.361116,27.426 L341.758116,19.589 L348.812116,19.589 L354.493116,1.009 L363.869116,0 L357.878116,19.589 L375.899116,19.589 L373.502116,27.426 L355.481116,27.426 L346.584116,56.529 C344.566116,63.133 345.063116,66.268 350.213116,66.268 C353.459116,66.268 357.226116,64.925 360.357116,63.469 L360.280116,71.416 C356.709116,73.206 352.536116,74.775 346.042116,74.775 C336.416116,74.775 333.755116,68.843 337.109116,57.872" id="Fill-9" fill="#000000"></path>
				<path d="M422.959116,46.9019 C426.517116,35.2619 420.698116,27.2019 410.175116,27.2019 C398.759116,27.2019 388.555116,36.0449 385.234116,46.9019 C381.916116,57.7609 386.857116,66.4909 398.163116,66.4909 C408.575116,66.4909 419.398116,58.5439 422.959116,46.9019 M375.944116,46.9019 C380.736116,31.2309 395.807116,18.9169 412.708116,18.9169 C428.828116,18.9169 437.314116,30.3349 432.249116,46.9019 C427.184116,63.4689 411.751116,74.7749 395.630116,74.7749 C378.729116,74.7749 371.155116,62.5729 375.944116,46.9019" id="Fill-11" fill="#000000"></path>
				<g id="Group-15" transform="translate(437.057116, 18.916900)">
					<mask id="mask-rvzngjslfe-2" fill="white">
						<use xlink:href="#path-rvzngjslfe-1"></use>
					</mask>
					<g id="Clip-14"></g>
					<path d="M0,48.134 L6.71,41.196 C9.701,45.335 13.759,47.798 21.37,47.798 C27.974,47.798 32.773,44.552 34.039,40.41 C35.511,35.598 30.886,34.253 23.826,31.344 C15.942,28.208 9.539,24.626 12.583,14.666 C15.15,6.27 24.677,0 34.976,0 C41.58,0 47.191,1.792 51.728,6.717 L44.837,13.881 C41.469,9.515 36.876,8.06 32.177,8.06 C27.925,8.06 23.029,10.522 21.763,14.666 C20.463,18.918 24.178,21.044 29.459,23.171 C39.621,27.651 46.616,29.664 43.25,40.3 C40.65,48.805 32.003,55.858 18.905,55.858 C9.839,55.858 3.857,52.723 0,48.134" id="Fill-13" fill="#000000" mask="url(#mask-rvzngjslfe-2)"></path>
				</g>
			</g>
			<g id="Group-19" transform="translate(40.454000, 21.672000)">
				<mask id="mask-rvzngjslfe-4" fill="white">
					<use xlink:href="#path-rvzngjslfe-3"></use>
				</mask>
				<g id="Clip-18"></g>
				<polygon id="Fill-17" fill="#9D9D9C" mask="url(#mask-rvzngjslfe-4)" points="119.4654 250.507 -5.5066 -13.816 11.1094 -21.672 136.0804 242.652"></polygon>
			</g>
			<polygon id="Fill-20" fill="#0078BF" points="102.1602 22.8301 178.9682 22.8301 109.2532 250.8561 32.4462 250.8561"></polygon>
			<polygon id="Fill-22" fill="#000000" points="205.3152 189.6571 205.3152 191.8491 195.6682 191.8491 195.6682 198.4441 203.5692 198.4441 203.5692 200.6351 195.6682 200.6351 195.6682 207.1491 205.8972 207.1491 205.8972 209.3391 193.2572 209.3391 193.2572 189.6571"></polygon>
			<polygon id="Fill-24" fill="#000000" points="211.9482 189.6571 223.0632 205.3191 223.0922 205.3191 223.0922 189.6571 225.5042 189.6571 225.5042 209.3391 223.0362 209.3391 212.0322 193.8441 211.9762 193.8441 211.9762 209.3391 209.5652 209.3391 209.5652 189.6571"></polygon>
			<path d="M243.9252,192.5682 L243.8692,192.5682 L240.2932,202.4372 L247.5562,202.4372 L243.9252,192.5682 Z M245.1162,189.6572 L252.6012,209.3392 L250.0792,209.3392 L248.3042,204.5422 L239.5182,204.5422 L237.7712,209.3392 L235.2482,209.3392 L242.7052,189.6572 L245.1162,189.6572 Z" id="Fill-26" fill="#000000"></path>
			<polygon id="Fill-28" fill="#000000" points="257.9892 189.6571 269.1042 205.3191 269.1322 205.3191 269.1322 189.6571 271.5442 189.6571 271.5442 209.3391 269.0762 209.3391 258.0722 193.8441 258.0162 193.8441 258.0162 209.3391 255.6052 209.3391 255.6052 189.6571"></polygon>
			<polygon id="Fill-30" fill="#000000" points="274.6872 191.8491 274.6872 189.6571 288.9332 189.6571 288.9332 191.8491 282.9752 191.8491 282.9752 209.3391 280.5632 209.3391 280.5632 191.8491"></polygon>
			<polygon id="Fill-32" fill="#000000" points="292.186 209.339 294.599 209.339 294.599 189.657 292.186 189.657"></polygon>
			<path d="M310.3732,195.7011 C310.3732,193.1781 308.7392,191.8491 306.1052,191.8491 L301.8912,191.8491 L301.8912,199.6381 L305.7172,199.6381 C308.9882,199.6381 310.3732,197.9741 310.3732,195.7011 L310.3732,195.7011 Z M306.3532,189.6571 C310.9562,189.6571 312.8702,192.2641 312.8702,195.7551 C312.8702,199.9131 310.0422,201.8271 305.9382,201.8271 L301.8912,201.8271 L301.8912,209.3391 L299.4812,209.3391 L299.4812,189.6571 L306.3532,189.6571 Z" id="Fill-34" fill="#000000"></path>
			<path d="M321.5262,192.5682 L321.4722,192.5682 L317.8942,202.4372 L325.1572,202.4372 L321.5262,192.5682 Z M322.7172,189.6572 L330.2022,209.3392 L327.6782,209.3392 L325.9042,204.5422 L317.1182,204.5422 L315.3732,209.3392 L312.8492,209.3392 L320.3072,189.6572 L322.7172,189.6572 Z" id="Fill-35" fill="#000000"></path>
			<path d="M344.2092,195.7011 C344.2092,193.1781 342.5752,191.8491 339.8582,191.8491 L335.6172,191.8491 L335.6172,199.6381 L339.5262,199.6381 C342.7962,199.6381 344.2092,197.9741 344.2092,195.7011 L344.2092,195.7011 Z M340.1922,189.6571 C344.7382,189.6571 346.7062,192.2641 346.7062,195.7551 C346.7062,199.0551 344.9022,200.9671 341.7992,201.6061 L347.2322,209.3391 L344.3492,209.3391 L339.1382,201.8271 L335.6172,201.8271 L335.6172,209.3391 L333.2062,209.3391 L333.2062,189.6571 L340.1922,189.6571 Z" id="Fill-36" fill="#000000"></path>
			<path d="M357.7772,192.5682 L357.7202,192.5682 L354.1452,202.4372 L361.4092,202.4372 L357.7772,192.5682 Z M358.9692,189.6572 L366.4532,209.3392 L363.9322,209.3392 L362.1582,204.5422 L353.3692,204.5422 L351.6242,209.3392 L349.1012,209.3392 L356.5582,189.6572 L358.9692,189.6572 Z" id="Fill-37" fill="#000000"></path>
			<path d="M368.1822,206.4562 L369.7352,204.5992 C371.1482,206.3732 373.2542,207.2602 375.1682,207.2602 C377.5782,207.2602 379.2152,206.1522 379.2152,204.2382 C379.2152,202.0482 377.4412,201.4662 374.8062,200.4682 C371.8952,199.3872 368.9292,198.1392 368.9292,194.6742 C368.9292,191.7362 371.5632,189.4632 374.9442,189.4632 C377.1362,189.4632 379.2982,190.2692 381.1532,191.7652 L379.6862,193.6772 C378.1062,192.3742 376.4132,191.6812 374.9442,191.6812 C373.0892,191.6812 371.4532,192.6792 371.4252,194.5642 C371.3962,196.4482 373.1702,197.1412 375.6372,198.0852 C378.9372,199.3872 381.7362,200.2742 381.7362,203.9602 C381.7362,207.5652 378.5762,209.5062 375.1382,209.5062 C372.6712,209.5062 370.1502,208.5622 368.1822,206.4562" id="Fill-38" fill="#000000"></path>
			<polygon id="Fill-39" fill="#000000" points="385.541 209.339 387.954 209.339 387.954 189.657 385.541 189.657"></polygon>
			<polygon id="Fill-40" fill="#000000" points="391.2002 191.8491 391.2002 189.6571 405.4492 189.6571 405.4492 191.8491 399.4902 191.8491 399.4902 209.3391 397.0772 209.3391 397.0772 191.8491"></polygon>
			<path d="M413.5792,192.5682 L413.5252,192.5682 L409.9472,202.4372 L417.2102,202.4372 L413.5792,192.5682 Z M414.7702,189.6572 L422.2552,209.3392 L419.7322,209.3392 L417.9582,204.5422 L409.1712,204.5422 L407.4262,209.3392 L404.9032,209.3392 L412.3602,189.6572 L414.7702,189.6572 Z" id="Fill-41" fill="#000000"></path>
			<path d="M436.2632,195.7011 C436.2632,193.1781 434.6282,191.8491 431.9112,191.8491 L427.6702,191.8491 L427.6702,199.6381 L431.5792,199.6381 C434.8502,199.6381 436.2632,197.9741 436.2632,195.7011 L436.2632,195.7011 Z M432.2452,189.6571 C436.7912,189.6571 438.7592,192.2641 438.7592,195.7551 C438.7592,199.0551 436.9562,200.9671 433.8522,201.6061 L439.2852,209.3391 L436.4022,209.3391 L431.1912,201.8271 L427.6702,201.8271 L427.6702,209.3391 L425.2592,209.3391 L425.2592,189.6571 L432.2452,189.6571 Z" id="Fill-42" fill="#000000"></path>
			<polygon id="Fill-43" fill="#000000" points="443.063 209.339 445.476 209.339 445.476 189.657 443.063 189.657"></polygon>
			<path d="M466.6842,199.4981 C466.6842,194.9251 463.4702,191.7361 459.3932,191.7361 C455.1252,191.7361 452.0212,195.0361 452.0212,199.4981 C452.0212,203.9331 455.1252,207.2331 459.3932,207.2331 C463.4702,207.2331 466.6842,204.0441 466.6842,199.4981 M449.4982,199.4981 C449.4982,193.6501 453.6562,189.4631 459.3932,189.4631 C464.9092,189.4631 469.2072,193.4831 469.2072,199.4981 C469.2072,205.4861 464.9092,209.5061 459.3932,209.5061 C453.6562,209.5061 449.4982,205.3461 449.4982,199.4981" id="Fill-44" fill="#000000"></path>
			<path d="M471.6872,206.4562 L473.2402,204.5992 C474.6532,206.3732 476.7592,207.2602 478.6732,207.2602 C481.0842,207.2602 482.7202,206.1522 482.7202,204.2382 C482.7202,202.0482 480.9462,201.4662 478.3122,200.4682 C475.4012,199.3872 472.4352,198.1392 472.4352,194.6742 C472.4352,191.7362 475.0692,189.4632 478.4502,189.4632 C480.6412,189.4632 482.8042,190.2692 484.6592,191.7652 L483.1922,193.6772 C481.6122,192.3742 479.9192,191.6812 478.4502,191.6812 C476.5942,191.6812 474.9582,192.6792 474.9312,194.5642 C474.9022,196.4482 476.6762,197.1412 479.1432,198.0852 C482.4422,199.3872 485.2412,200.2742 485.2412,203.9602 C485.2412,207.5652 482.0812,209.5062 478.6442,209.5062 C476.1772,209.5062 473.6562,208.5622 471.6872,206.4562" id="Fill-45" fill="#000000"></path>
		</g>
	</g>
</svg>