<svg xmlns="http://www.w3.org/2000/svg" width="222" height="66" viewBox="0 0 222 66"><g fill="none"><rect width="221.05" height="65.62" fill="#FFF"/><g transform="translate(2.339 2.133)"><rect width="216.372" height="61.353" fill="#A71830"/><path fill="#FFF" d="M13.4926344 1.1243862 19.8795587 1.1243862 33.3721931 32.8331038 26.1304272 32.8331038 23.2527173 25.7710343 9.93977936 25.7710343 7.06206948 32.8331038 0 32.8331038 13.4926344 1.1243862ZM20.7780408 19.6536546 16.5962483 9.44433065 12.4144558 19.6536546 20.7780408 19.6536546ZM32.8356709 20.8242485 32.8356709 20.7344003C32.8356709 12.6840005 38.0982091 8.2737368 43.8099883 8.2737368 47.4526915 8.2737368 49.7014639 9.93721227 51.3212988 11.8727995L51.3212988 0 58.1574642 0 58.1574642 32.8331038 51.3212988 32.8331038 51.3212988 29.370097C49.6578233 31.6188694 47.3628433 33.2823449 43.8099883 33.2823449 38.1880573 33.2823449 32.8356709 28.8746483 32.8356709 20.8242485ZM51.411147 20.8242485 51.411147 20.7344003C51.411147 16.7297371 48.7567741 14.0779313 45.5633119 14.0779313 42.3698498 14.0779313 39.6718363 16.6860965 39.6718363 20.7344003L39.6718363 20.8242485C39.6718363 24.8263446 42.3698498 27.4807175 45.5633119 27.4807175 48.7567741 27.4807175 51.411147 24.8263446 51.411147 20.8242485ZM59.8671473 8.72554495 67.1089132 8.72554495 72.5075072 24.8725522 77.9497418 8.72554495 85.0554518 8.72554495 75.5649135 33.0128003 69.3576856 33.0128003 59.8671473 8.72554495ZM84.3828738 25.9070902 84.3828738 25.817242C84.3828738 20.5547039 88.3849699 18.126235 94.0967491 18.126235 96.5252179 18.126235 98.2785416 18.5292684 99.9882247 19.1145654L99.9882247 18.711532C99.9882247 15.8774626 98.234901 14.3038354 94.8155348 14.3038354 92.2073695 14.3038354 90.3616305 14.7992841 88.1590658 15.607918L86.4493827 10.3915875C89.1037556 9.22356075 91.7119208 8.4585674 95.8038651 8.4585674 99.5364166 8.4585674 102.23443 9.44689774 103.944113 11.1565809 105.743644 12.9561122 106.552278 15.6104851 106.552278 18.8475878L106.552278 32.8356709 99.9420171 32.8356709 99.9420171 30.2249386C98.2785416 32.0681105 95.9835615 33.2823449 92.6566106 33.2823449 88.1154252 33.2823449 84.3828738 30.6741796 84.3828738 25.9070902ZM100.08064 24.3308959 100.08064 23.1166615C98.9126133 22.5775722 97.3826266 22.2156122 95.7191511 22.2156122 92.7952335 22.2156122 90.9957022 23.3862061 90.9957022 25.5451303L90.9957022 25.6349785C90.9957022 27.4781504 92.5256889 28.558896 94.7282537 28.558896 97.9217158 28.558896 100.08064 26.8055723 100.08064 24.3308959ZM110.202683 8.72554495 117.038848 8.72554495 117.038848 12.1449112C118.612476 10.1194758 120.637911 8.27630389 124.100918 8.27630389 129.273608 8.27630389 132.287373 11.6956701 132.287373 17.2277529L132.287373 32.8356709 125.451208 32.8356709 125.451208 19.3866771C125.451208 16.1470073 123.921221 14.4835318 121.313056 14.4835318 118.704891 14.4835318 117.041415 16.1470073 117.041415 19.3866771L117.041415 32.8356709 110.20525 32.8356709 110.20525 8.72554495 110.202683 8.72554495ZM136.784918 25.9969384 136.784918 14.5708129 133.907208 14.5708129 133.907208 8.72554495 136.784918 8.72554495 136.784918 2.56452469 143.621084 2.56452469 143.621084 8.72554495 149.289222 8.72554495 149.289222 14.57338 143.621084 14.57338 143.621084 24.8725522C143.621084 26.4461795 144.296229 27.2111728 145.826215 27.2111728 147.08409 27.2111728 148.211044 26.8954205 149.199374 26.3563313L149.199374 31.8447735C147.761803 32.6996151 146.09576 33.2387043 143.803347 33.2387043 139.618988 33.2361372 136.784918 31.5726618 136.784918 25.9969384ZM152.662381 0 159.857939 0 159.857939 6.07117205 152.662381 6.07117205 152.662381 0ZM152.842077 8.72554495 159.678243 8.72554495 159.678243 32.8331038 152.842077 32.8331038 152.842077 8.72554495ZM173.532837 15.7850473 178.076589 8.72297786 185.228507 8.72297786 177.088259 20.5084962 185.5879 32.8331038 178.256286 32.8331038 173.399348 25.3217933 168.542411 32.8331038 161.390493 32.8331038 169.846493 20.5983444 161.706245 8.72297786 169.037859 8.72297786 173.532837 15.7850473ZM190.313916 9.60349034C187.623604 9.60349034 185.708553 7.58832329 185.708553 4.92368203 185.708553 2.10758235 187.834105.243873719 190.313916.243873719 192.765489.243873719 194.893608 2.10758235 194.893608 4.92368203 194.893608 7.73978171 192.765489 9.60349034 190.313916 9.60349034ZM190.313916 1.0602089C188.285913 1.0602089 186.709719 2.64923871 186.709719 4.92624912 186.709719 7.05180111 188.08568 8.79228934 190.313916 8.79228934 192.316248 8.79228934 193.892442 7.21609498 193.892442 4.92624912 193.889875 2.64667162 192.316248 1.0602089 190.313916 1.0602089ZM189.387196 7.60372584 188.534921 7.60372584 188.534921 2.42076755 190.498747 2.42076755C191.74892 2.42076755 192.388126 2.85974024 192.388126 3.90968078 192.388126 4.84923637 191.813098 5.23686722 191.035269 5.32414835L192.488243 7.60115875 191.525583 7.60115875 190.188128 5.38575855 189.387196 5.38575855 189.387196 7.60372584 189.387196 7.60372584ZM190.33702 4.66183867C190.973659 4.66183867 191.538419 4.59766137 191.538419 3.84807057 191.538419 3.22170018 190.924884 3.14725452 190.411465 3.14725452L189.387196 3.14725452 189.387196 4.66183867 190.33702 4.66183867Z" transform="translate(13.495 14.055)"/></g></g></svg>