<svg xmlns="http://www.w3.org/2000/svg" width="218" height="66" viewBox="0 0 218 66"><g fill="none"><rect width="217.854" height="65.62" fill="#FFF"/><rect width="213.587" height="61.353" x="2.133" y="2.133" fill="#01648F"/><path fill="#FFF" d="M188.22687 9.72414365C185.536558 9.72414365 183.621508 7.70897661 183.621508 5.04433534 183.621508 2.22823566 185.74706.364527032 188.22687.364527032 190.678443.364527032 192.806562 2.22823566 192.806562 5.04433534 192.806562 7.86043502 190.678443 9.72414365 188.22687 9.72414365ZM188.22687 1.17829513C186.198868 1.17829513 184.622673 2.76732494 184.622673 5.04433534 184.622673 7.16988733 185.998635 8.91037556 188.22687 8.91037556 190.229202 8.91037556 191.805396 7.33418121 191.805396 5.04433534 191.802829 2.76732494 190.226635 1.17829513 188.22687 1.17829513ZM187.30015 7.72181206 186.447876 7.72181206 186.447876 2.54142086 188.411701 2.54142086C189.661875 2.54142086 190.301081 2.98039355 190.301081 4.03033409 190.301081 4.96988968 189.726052 5.35752054 188.948223 5.44480166L190.401197 7.72181206 189.438538 7.72181206 188.101083 5.50641186 187.30015 5.50641186 187.30015 7.72181206 187.30015 7.72181206ZM188.249974 4.78249198C188.886613 4.78249198 189.451373 4.71831469 189.451373 3.96872389 189.451373 3.34235349 188.837838 3.26790783 188.32442 3.26790783L187.30015 3.26790783 187.30015 4.78249198 188.249974 4.78249198ZM-3.64805683e-15 31.4699781 4.71061341 25.8275104C7.97081997 28.5203896 11.3876191 30.2275057 15.5283382 30.2275057 18.7885447 30.2275057 20.754937 28.9336914 20.754937 26.8107065L20.754937 26.7080228C20.754937 24.6902887 19.5124646 23.6531836 13.4566951 22.1000931 6.15845317 20.2363845 1.44783976 18.2186503 1.44783976 11.0230921L1.44783976 10.9204084C1.44783976 4.34608638 6.72834755 1.82402841e-15 14.1292731 1.82402841e-15 19.4097809 1.82402841e-15 23.9124599 1.6557742 27.5885353 4.60792974L23.4478163 10.6123574C20.2389516 8.38668883 17.0814287 7.04153274 14.0265895 7.04153274 10.9717503 7.04153274 9.36731789 8.43546358 9.36731789 10.1964885L9.36731789 10.2991722C9.36731789 12.6788663 10.9204084 13.4566951 17.1841124 15.0611275 24.5336961 16.9761779 28.6744151 19.6151483 28.6744151 25.930194L28.6744151 26.0328777C28.6744151 33.228436 23.18854 37.2639068 15.3717456 37.2639068 9.88587043 37.2664713 4.34608638 35.3514209-3.64805683e-15 31.4699781ZM31.3647273 23.0345145 31.3647273 22.9292638C31.3647273 15.0097856 37.0071951 8.48937251 45.0806987 8.48937251 54.3453329 8.48937251 58.5913027 15.6849308 58.5913027 23.5530671 58.5913027 24.1743033 58.5399609 24.8982231 58.488619 25.6247101L39.1815218 25.6247101C39.9593506 29.1955348 42.4417283 31.0592434 45.9637783 31.0592434 48.6027486 31.0592434 50.5177991 30.2326399 52.6921258 28.2123386L57.1948048 32.1964651C54.6071763 35.4053298 50.879759 37.3717221 45.8585275 37.3717221 37.5231805 37.3717221 31.3647273 31.5213199 31.3647273 23.0345145ZM50.9311009 20.7035952C50.4664572 17.1841124 48.3948142 14.8018512 45.0806987 14.8018512 41.8204921 14.8018512 39.6975072 17.1302034 39.076271 20.7035952L50.9311009 20.7035952ZM62.8834802 9.00535795 70.7516165 9.00535795 70.7516165 14.5964838C72.3560488 10.7663829 74.9436773 8.28143807 79.6029489 8.48937251L79.6029489 16.7194687 79.1896471 16.7194687C73.9604812 16.7194687 70.7516165 19.8769916 70.7516165 26.5026555L70.7516165 36.7504859 62.8834802 36.7504859 62.8834802 9.00535795ZM81.8773922 23.0345145 81.8773922 22.9292638C81.8773922 15.0097856 87.5198599 8.48937251 95.5933636 8.48937251 104.857998 8.48937251 109.103968 15.6849308 109.103968 23.5530671 109.103968 24.1743033 109.052626 24.8982231 109.001284 25.6247101L89.6941867 25.6247101C90.4720155 29.1955348 92.9543932 31.0592434 96.4764432 31.0592434 99.1154135 31.0592434 101.030464 30.2326399 103.204791 28.2123386L107.70747 32.1964651C105.119841 35.4053298 101.392424 37.3717221 96.3711924 37.3717221 88.0384125 37.3717221 81.8773922 31.5213199 81.8773922 23.0345145ZM101.443766 20.7035952C100.979122 17.1841124 98.9074791 14.8018512 95.5933636 14.8018512 92.333157 14.8018512 90.2101721 17.1302034 89.5889359 20.7035952L101.443766 20.7035952ZM110.705833 33.0744105 114.07129 27.8991534C117.07222 30.0734802 120.229743 31.2107018 122.819939 31.2107018 125.096949 31.2107018 126.131487 30.3840983 126.131487 29.1416259L126.131487 29.0389422C126.131487 27.3318261 123.438608 26.7619318 120.386336 25.8300775 116.504893 24.6928558 112.104898 22.880489 112.104898 17.4972976L112.104898 17.3946139C112.104898 11.7521462 116.661486 8.59462327 122.250045 8.59462327 125.769527 8.59462327 129.599628 9.78575385 132.600559 11.803488L129.599628 17.2380213C126.855407 15.6335889 124.113753 14.6503928 122.093452 14.6503928 120.178402 14.6503928 119.195205 15.4795634 119.195205 16.5654432L119.195205 16.6681269C119.195205 18.2212174 121.834176 18.9451373 124.837673 19.9796753 128.719116 21.2734896 133.224362 23.1371982 133.224362 28.2097715L133.224362 28.3124552C133.224362 34.4709084 128.616432 37.2664713 122.612005 37.2664713 118.730562 37.2664713 114.381908 35.9726571 110.705833 33.0744105ZM138.604986 28.8823496 138.604986 15.7362726 135.293438 15.7362726 135.293438 9.00535795 138.604986 9.00535795 138.604986 1.91505047 146.473123 1.91505047 146.473123 9.00535795 152.996103 9.00535795 152.996103 15.7337055 146.473123 15.7337055 146.473123 27.5859682C146.473123 29.398335 147.250951 30.2788475 149.009409 30.2788475 150.457249 30.2788475 151.75363 29.9168876 152.890852 29.2956514L152.890852 35.6106971C151.235078 36.5938933 149.320027 37.2151295 146.681057 37.2151295 141.865193 37.2151295 138.604986 35.300079 138.604986 28.8823496ZM154.595401 23.0345145 154.595401 22.9292638C154.595401 14.9584438 161.015698 8.48937251 169.659096 8.48937251 178.251152 8.48937251 184.617539 14.8557601 184.617539 22.8265801L184.617539 22.9292638C184.617539 30.9000837 178.19981 37.3717221 169.556412 37.3717221 160.961789 37.3717221 154.595401 31.0053345 154.595401 23.0345145ZM176.852087 23.0345145 176.852087 22.9292638C176.852087 18.8398866 173.902498 15.2690619 169.553845 15.2690619 165.051166 15.2690619 162.358287 18.7372029 162.358287 22.8265801L162.358287 22.9292638C162.358287 27.018641 165.307875 30.5920327 169.656528 30.5920327 174.161775 30.5894656 176.852087 27.1213246 176.852087 23.0345145Z" transform="translate(13.393 13.934)"/></g></svg>