<svg width="71px" height="63px" viewBox="0 0 71 63" version="1.1" xmlns="http://www.w3.org/2000/svg" xmlns:xlink="http://www.w3.org/1999/xlink">
	<g id="MAPA-ELANCO---GENERAL" stroke="none" stroke-width="1" fill="none" fill-rule="evenodd">
		<g id="Elanco_LandingMapaElanco_General_Madrid" transform="translate(-206.000000, -1634.000000)" fill="#000000">
			<path d="M231.83542,1634.29958 L232.036173,1634.30373 C235.108751,1634.32559 238.867737,1636.21242 241.065491,1644.06236 C243.077228,1636.87759 246.396754,1634.68813 249.300811,1634.35187 L249.621686,1634.32198 C249.674851,1634.31821 249.727852,1634.31504 249.780678,1634.31245 L250.095439,1634.30364 C250.157726,1634.30033 250.225175,1634.29958 250.297603,1634.29958 L250.529634,1634.30849 C250.570734,1634.31101 250.613031,1634.31408 250.656504,1634.31771 L250.931259,1634.3463 C251.027421,1634.35812 251.1281,1634.37228 251.23311,1634.38887 L251.560949,1634.44601 C251.617693,1634.45678 251.675473,1634.46818 251.734267,1634.48022 L252.099009,1634.56031 L252.099009,1634.56031 L252.486968,1634.65642 C252.5535,1634.67381 252.620954,1634.69189 252.689306,1634.71067 L253.110011,1634.83191 L253.110011,1634.83191 L253.55116,1634.97064 C253.626327,1634.99524 253.7023,1635.02061 253.779055,1635.04673 L254.248793,1635.21277 C254.488173,1635.30047 254.73418,1635.39527 254.986192,1635.49751 L255.498035,1635.71197 C255.671194,1635.78683 255.846838,1635.86508 256.02478,1635.94683 L256.565318,1636.20265 C256.656496,1636.24707 256.748202,1636.29239 256.840414,1636.33862 L257.399564,1636.62699 C257.870269,1636.87657 258.352455,1637.14952 258.843235,1637.44734 L259.436112,1637.81676 C261.623766,1639.2158 263.955449,1641.10823 266.185242,1643.62315 C274.696865,1653.22268 276.574094,1666.11254 275.980029,1677.60657 L275.922244,1678.60242 L275.922244,1678.60242 L275.852609,1679.59055 C275.84005,1679.75455 275.827022,1679.91821 275.813539,1680.0815 L275.72727,1681.05676 C275.712015,1681.21854 275.696329,1681.37992 275.680225,1681.5409 L275.578692,1682.50176 C275.560968,1682.66105 275.542852,1682.8199 275.524356,1682.97831 L275.408927,1683.92322 L275.408927,1683.92322 L275.284994,1684.85664 C275.263663,1685.01121 275.242004,1685.16528 275.220028,1685.31883 L275.08448,1686.23374 C275.06129,1686.38514 275.037809,1686.53599 275.014049,1686.68628 L274.868254,1687.58114 L274.868254,1687.58114 L274.716389,1688.46177 L274.716389,1688.46177 C273.879018,1693.21512 271.081788,1696.06038 266.841007,1696.47096 C266.680475,1696.48569 266.511265,1696.49367 266.330899,1696.49367 C262.033095,1696.49367 252.24806,1692.13311 246.101965,1686.57393 C243.863218,1684.54925 242.181057,1682.4854 241.064635,1680.3983 C239.950261,1682.48542 238.268347,1684.54927 236.030048,1686.57394 C233.012735,1689.30269 229.118816,1691.74288 225.427608,1693.52021 L224.611115,1693.90411 C221.09124,1695.51908 217.833476,1696.49367 215.801606,1696.49367 C215.621869,1696.49367 215.452049,1696.48569 215.291525,1696.47096 C211.051597,1696.06038 208.255141,1693.21574 207.415957,1688.46116 L207.264139,1687.58058 L207.264139,1687.58058 L207.11839,1686.68576 C207.094638,1686.53548 207.071164,1686.38463 207.047982,1686.23323 L206.912476,1685.31836 L206.912476,1685.31836 L206.78456,1684.39097 L206.78456,1684.39097 L206.664841,1683.45175 L206.664841,1683.45175 L206.553929,1682.50139 C206.536211,1682.3421 206.518885,1682.18238 206.501965,1682.02224 L206.405401,1681.05644 C206.390151,1680.89467 206.375331,1680.7325 206.360954,1680.56996 L206.280109,1679.59027 C206.255,1679.26226 206.231764,1678.93286 206.210503,1678.60216 L206.152744,1677.60634 C205.558974,1666.11258 207.4361,1653.22274 215.947255,1643.62323 C219.190716,1639.96456 222.653341,1637.62321 225.572834,1636.20182 L226.113688,1635.946 C226.202708,1635.90512 226.29115,1635.86512 226.378992,1635.82599 L226.898658,1635.60141 C227.069355,1635.52994 227.237466,1635.46181 227.402803,1635.39694 L227.890309,1635.212 L227.890309,1635.212 L228.360061,1635.046 C228.436812,1635.01988 228.512776,1634.99452 228.58793,1634.96992 L229.028957,1634.83124 C229.10078,1634.8096 229.171747,1634.78869 229.241835,1634.7685 L229.651624,1634.65583 L229.651624,1634.65583 L230.039191,1634.55978 L230.039191,1634.55978 L230.403421,1634.47976 L230.403421,1634.47976 L230.743196,1634.41519 C230.852255,1634.39618 230.957051,1634.37964 231.0574,1634.36549 L231.344917,1634.33007 C231.39055,1634.32533 231.435025,1634.32116 231.478318,1634.31754 L231.723709,1634.30247 C231.762182,1634.30104 231.799427,1634.29958 231.83542,1634.29958 L231.83542,1634.29958 Z M250.428194,1637.55981 L250.151223,1637.57053 L249.994789,1637.57386 L249.994789,1637.57386 L249.832783,1637.58434 L249.832783,1637.58434 L249.665553,1637.60272 L249.665553,1637.60272 L249.493448,1637.62974 L249.493448,1637.62974 L249.316819,1637.66614 L249.316819,1637.66614 L249.136014,1637.71267 C249.105551,1637.72131 249.074929,1637.7304 249.044155,1637.73996 L248.857741,1637.80308 L248.857741,1637.80308 L248.668024,1637.87818 C248.636149,1637.89173 248.604151,1637.90582 248.572037,1637.92045 L248.378022,1638.01493 L248.378022,1638.01493 L248.181577,1638.12324 C248.148653,1638.14249 248.115642,1638.16235 248.082552,1638.18283 L247.883118,1638.3133 C247.84974,1638.33634 247.816297,1638.36003 247.782796,1638.38439 L247.581159,1638.5387 C247.480053,1638.62 247.37856,1638.7076 247.276876,1638.80193 L247.073313,1638.99969 C247.039363,1639.03418 247.005406,1639.06946 246.97145,1639.10552 L246.767779,1639.33157 C246.598157,1639.52809 246.428914,1639.74522 246.260962,1639.98491 L246.060095,1640.28349 L246.060095,1640.28349 L245.860816,1640.60446 C245.761632,1640.77067 245.663174,1640.94555 245.565638,1641.12953 L245.371855,1641.50975 C245.179419,1641.90233 244.991198,1642.33242 244.808762,1642.80334 L244.628314,1643.288 C244.59858,1643.37109 244.569021,1643.45535 244.539645,1643.54078 L244.365638,1644.06768 C244.279788,1644.33834 244.195712,1644.6199 244.113606,1644.9128 L243.952081,1645.51381 C243.925617,1645.61653 243.899387,1645.72055 243.873397,1645.82587 L243.720408,1646.47358 L243.720408,1646.47358 L243.573547,1647.15335 C243.549601,1647.26935 243.525924,1647.38673 243.502524,1647.50549 L243.365509,1648.23474 C243.320985,1648.48344 243.277628,1648.73778 243.235496,1648.99791 L243.112832,1649.79575 L243.112832,1649.79575 L242.997868,1650.62899 C242.979369,1650.77086 242.961204,1650.91423 242.943383,1651.05912 L241.065035,1650.81258 L239.187837,1651.05919 L239.133377,1650.62906 L239.133377,1650.62906 L239.01846,1649.79582 C238.998656,1649.65991 238.978531,1649.52549 238.958092,1649.39252 L238.831752,1648.61211 L238.831752,1648.61211 L238.698232,1647.86599 L238.698232,1647.86599 L238.557883,1647.15342 C238.510001,1646.9214 238.461038,1646.69485 238.411053,1646.47365 L238.258093,1645.82594 C238.206123,1645.6153 238.15319,1645.40988 238.099351,1645.20955 L237.935177,1644.62374 C237.907381,1644.52861 237.879374,1644.43472 237.851162,1644.34206 L237.679495,1643.80072 L237.679495,1643.80072 L237.503269,1643.28808 C237.473537,1643.20499 237.443631,1643.12307 237.413556,1643.0423 L237.231147,1642.57135 C237.169711,1642.41888 237.10766,1642.27089 237.045054,1642.12725 L236.855625,1641.70926 C236.791965,1641.5742 236.727807,1641.44337 236.66321,1641.31664 L236.468158,1640.94865 C236.239195,1640.5334 236.005562,1640.16691 235.769756,1639.84387 L235.567163,1639.57749 L235.567163,1639.57749 L235.363855,1639.33165 C235.228155,1639.17444 235.092212,1639.03042 234.956491,1638.89861 L234.753135,1638.70991 L234.753135,1638.70991 L234.550461,1638.53878 C234.516758,1638.51168 234.483099,1638.48528 234.449489,1638.45957 L234.248495,1638.31339 L234.248495,1638.31339 L234.049057,1638.18291 L234.049057,1638.18291 L233.851524,1638.06739 L233.851524,1638.06739 L233.656247,1637.96609 C233.623908,1637.95035 233.591678,1637.93517 233.559563,1637.92054 L233.368324,1637.83917 L233.368324,1637.83917 L233.180213,1637.77015 L233.180213,1637.77015 L232.995581,1637.71275 L232.995581,1637.71275 L232.814775,1637.66622 L232.814775,1637.66622 L232.638147,1637.62982 L232.638147,1637.62982 L232.466046,1637.6028 L232.466046,1637.6028 L232.29882,1637.58443 L232.29882,1637.58443 L232.136819,1637.57394 L232.136819,1637.57394 L231.980393,1637.57062 L231.980393,1637.57062 L231.772597,1637.5614 L231.772597,1637.5614 L231.621653,1637.56627 C231.565803,1637.57011 231.50449,1637.57621 231.437938,1637.58464 L231.222779,1637.61706 C231.184373,1637.62366 231.144712,1637.63087 231.103824,1637.63869 L230.843993,1637.69314 L230.843993,1637.69314 L230.55604,1637.76294 L230.55604,1637.76294 L230.241295,1637.84861 L230.241295,1637.84861 L229.901086,1637.95068 L229.901086,1637.95068 L229.536741,1638.06967 C229.474079,1638.09094 229.410468,1638.11294 229.345933,1638.13568 L228.947877,1638.28104 C228.879762,1638.30677 228.810781,1638.33326 228.74096,1638.36053 L228.312181,1638.53344 C228.239113,1638.56383 228.16526,1638.59501 228.090651,1638.627 L227.634139,1638.82865 C227.556615,1638.86389 227.478389,1638.89996 227.39949,1638.93687 L226.918235,1639.16843 C226.836752,1639.20872 226.754652,1639.24988 226.671961,1639.2919 L226.168952,1639.55456 C226.08401,1639.6001 225.998533,1639.64654 225.912548,1639.69387 L225.390775,1639.98881 C223.193193,1641.26355 220.713088,1643.11577 218.382963,1645.71644 L217.933605,1646.22962 L217.933605,1646.22962 L217.592426,1646.63556 L217.592426,1646.63556 L217.251392,1647.05629 L217.251392,1647.05629 L216.910995,1647.49199 L216.910995,1647.49199 L216.571722,1647.94288 L216.571722,1647.94288 L216.234065,1648.40914 C216.177951,1648.48814 216.121924,1648.56779 216.065995,1648.6481 L215.731679,1649.1378 C215.676183,1649.22074 215.620805,1649.30433 215.565555,1649.3886 L215.235683,1649.9022 L215.235683,1649.9022 L214.909384,1650.43198 C214.855326,1650.52163 214.801438,1650.61197 214.747729,1650.703 L214.427711,1651.25743 C214.374761,1651.35122 214.322011,1651.4457 214.269471,1651.54089 L213.956835,1652.12041 L213.956835,1652.12041 L213.649733,1652.71693 L213.649733,1652.71693 L213.348654,1653.33062 C213.299004,1653.43435 213.249624,1653.5388 213.200527,1653.64398 L212.909402,1654.28383 C212.382168,1655.47303 211.891477,1656.7514 211.450911,1658.1245 L211.215656,1658.88289 C209.106209,1665.92153 208.311635,1675.35363 210.529741,1687.87444 C211.124732,1691.2432 212.731826,1692.94078 215.587161,1693.21696 C216.186594,1693.27539 217.164057,1693.1201 218.390227,1692.77554 L218.930579,1692.61636 C219.300462,1692.50261 219.68914,1692.37369 220.093596,1692.23017 L220.711736,1692.00403 L220.711736,1692.00403 L221.351282,1691.75642 C221.459531,1691.71339 221.568578,1691.66948 221.678375,1691.6247 L222.345787,1691.3457 C222.683619,1691.20106 223.027357,1691.04877 223.375728,1690.88908 L224.078273,1690.55989 C224.196268,1690.5034 224.314683,1690.44611 224.433472,1690.38802 L225.150309,1690.03 L225.150309,1690.03 L225.873847,1689.6533 C228.657364,1688.174 231.538716,1686.29228 233.944482,1684.11656 C236.250499,1682.02998 238.99705,1678.86217 239.473281,1675.30188 C239.451179,1675.08513 239.437081,1674.86809 239.429026,1674.65096 C239.411588,1674.18315 239.396257,1673.69643 239.382827,1673.19555 L239.348031,1671.65509 C239.343113,1671.39283 239.338619,1671.12821 239.334523,1670.86182 L239.314517,1669.24691 L239.314517,1669.24691 L239.302826,1667.61778 L239.302826,1667.61778 L239.298216,1666.00274 L239.298216,1666.00274 L239.163162,1666.791 L239.163162,1666.791 L239.066225,1667.30738 C239.049496,1667.39278 239.032459,1667.47783 239.015079,1667.56252 L238.906418,1668.06614 C238.887532,1668.14931 238.868237,1668.23208 238.848498,1668.31443 L238.724466,1668.80339 L238.724466,1668.80339 L238.588161,1669.28152 C237.77793,1671.95861 236.298482,1674.07289 232.822744,1674.92938 C227.898351,1676.14299 224.680297,1674.09982 222.08529,1670.34274 L222.033268,1670.27214 L222.033268,1670.27214 L221.97918,1670.18754 L221.97918,1670.18754 L221.78662,1669.90331 L221.78662,1669.90331 C221.120583,1669.02843 220.584328,1669.35795 220.267357,1669.74793 L220.174655,1669.87176 C220.160454,1669.89229 220.146887,1669.91265 220.133967,1669.93268 L220.035492,1670.09946 L220.035492,1670.09946 L219.962158,1670.24718 L219.962158,1670.24718 C219.747925,1672.03182 220.19345,1673.61794 220.742929,1675.12293 L221.001891,1675.81221 L221.001891,1675.81221 L221.391452,1676.83013 C221.770299,1677.84087 222.096511,1678.83435 222.185663,1679.84955 L222.086935,1679.93033 L222.086935,1679.93033 L221.817753,1680.16704 C221.755844,1680.22023 221.717188,1680.24556 221.688083,1680.23664 C218.361806,1679.24155 217.010931,1676.74256 216.211213,1673.9429 L216.075518,1673.44597 L216.075518,1673.44597 L215.949526,1672.94427 L215.949526,1672.94427 L215.831498,1672.43926 L215.831498,1672.43926 L215.665583,1671.67877 L215.665583,1671.67877 L215.507804,1670.91911 L215.507804,1670.91911 C214.81009,1667.52235 215.412327,1663.93325 218.593047,1662.18892 C219.17876,1661.86695 219.933393,1661.80609 220.74066,1661.87608 L220.948071,1661.93443 L220.948071,1661.93443 L221.161699,1662.00538 L221.161699,1662.00538 L221.340591,1662.07091 L221.340591,1662.07091 L221.548279,1662.15282 L221.548279,1662.15282 L221.913082,1662.30983 L221.913082,1662.30983 L222.19132,1662.43953 L222.19132,1662.43953 L222.497202,1662.59107 L222.497202,1662.59107 L222.8304,1662.766 L222.8304,1662.766 L223.190585,1662.96588 L223.190585,1662.96588 L223.577427,1663.19226 C223.644104,1663.23229 223.711878,1663.27349 223.780742,1663.31588 L224.206955,1663.58494 L224.206955,1663.58494 L224.659004,1663.8844 L224.659004,1663.8844 L225.13656,1664.21581 C225.299959,1664.33178 225.467556,1664.45333 225.639293,1664.58073 L226.166876,1664.98071 C226.256859,1665.05038 226.347864,1665.12158 226.439884,1665.19433 L226.576366,1665.33919 L226.576366,1665.33919 C226.963322,1665.69204 227.367147,1666.02435 227.778546,1666.34742 L228.339927,1666.78313 L228.339927,1666.78313 L228.512073,1666.90057 C228.534385,1666.91484 228.557701,1666.92939 228.581963,1666.94412 L228.738441,1667.03362 C229.406125,1667.39252 230.553059,1667.71749 231.38631,1666.40551 L231.837376,1665.45361 L231.837376,1665.45361 C231.910208,1665.26372 231.986711,1665.1006 232.066275,1664.96245 C232.249272,1664.57353 232.439614,1664.18766 232.611594,1663.79327 C232.785188,1663.39511 232.939217,1662.97575 233.084486,1662.54741 L233.297169,1661.89969 L233.297169,1661.89969 L233.609279,1660.9229 C234.065087,1659.51991 234.571008,1658.18346 235.497927,1657.33326 C237.212835,1655.76056 240.086316,1654.61207 242.322062,1654.81962 C245.242465,1655.09122 247.45999,1657.33318 248.137177,1660.63159 L248.191429,1660.91688 C248.308939,1661.58455 248.441138,1662.25161 248.585577,1662.95762 C248.949123,1663.85048 249.649285,1664.64291 251.001259,1664.37938 C251.487823,1664.21687 251.935829,1664.05619 252.36119,1663.85474 C253.200283,1663.39583 253.642781,1663.2741 253.823329,1663.3654 C255.72435,1662.99068 257.434095,1663.68902 259.102675,1664.8591 L259.34078,1665.02939 C261.913142,1666.90519 264.519777,1668.73352 267.138042,1670.54054 C267.38163,1670.70853 267.656584,1670.82721 267.966807,1670.94369 L268.45908,1671.12263 C268.632313,1671.18565 268.814851,1671.25401 269.007181,1671.33359 C265.381516,1673.81376 261.045283,1673.22339 257.755622,1670.84608 C256.811872,1670.16441 255.114713,1669.64768 254.180143,1670.06277 C248.55716,1672.56226 245.016862,1671.89682 242.829553,1667.5947 L242.818047,1669.22929 C242.815447,1669.50113 242.812491,1669.77229 242.809153,1670.04225 L242.784354,1671.64299 C242.76451,1672.69458 242.737785,1673.70917 242.70262,1674.65161 C242.694542,1674.86843 242.680439,1675.08516 242.660319,1675.30178 C243.134581,1678.8626 245.881051,1682.03012 248.187026,1684.11655 C250.593399,1686.2925 253.476751,1688.17301 256.261847,1689.65122 L256.985787,1690.02764 L256.985787,1690.02764 L257.703,1690.38539 C258.65379,1690.84976 259.58059,1691.2632 260.459193,1691.62123 L261.10873,1691.87928 L261.10873,1691.87928 L261.737924,1692.11614 L261.737924,1692.11614 L262.344505,1692.33137 C262.542678,1692.39947 262.736704,1692.46388 262.926204,1692.52456 L263.480752,1692.69528 C263.750861,1692.77495 264.009936,1692.84604 264.256702,1692.90831 L264.733444,1693.02101 C265.499398,1693.18902 266.119128,1693.25726 266.545355,1693.21696 C269.363038,1692.94446 271.017327,1691.19717 271.602434,1687.87504 L271.753118,1687.00078 L271.753118,1687.00078 L271.897647,1686.11177 L271.897647,1686.11177 L272.035358,1685.20879 L272.035358,1685.20879 L272.165593,1684.29259 L272.165593,1684.29259 L272.287692,1683.36396 C272.307327,1683.20819 272.326595,1683.05193 272.345484,1682.89521 L272.454141,1681.94935 L272.454141,1681.94935 L272.553012,1680.99296 L272.553012,1680.99296 L272.641438,1680.02682 C272.655268,1679.86503 272.668636,1679.70286 272.681528,1679.54034 L272.753048,1678.561 C273.485388,1667.57994 271.955437,1655.13328 264.028902,1646.03205 C261.525935,1643.15862 258.825609,1641.16117 256.475547,1639.83069 L255.959299,1639.54593 L255.959299,1639.54593 L255.455918,1639.28261 C255.373167,1639.24048 255.291009,1639.19923 255.209469,1639.15884 L254.727892,1638.92674 L254.727892,1638.92674 L254.262521,1638.71481 L254.262521,1638.71481 L253.81469,1638.52255 L253.81469,1638.52255 L253.385736,1638.34944 C253.315891,1638.32216 253.246888,1638.29565 253.178755,1638.26991 L252.780619,1638.12459 L252.780619,1638.12459 L252.404698,1637.99714 C252.34397,1637.97736 252.284223,1637.9583 252.225486,1637.93996 L251.885391,1637.83838 C251.830801,1637.82285 251.777276,1637.80801 251.724843,1637.79385 L251.42358,1637.71699 L251.42358,1637.71699 L251.149874,1637.65597 L251.149874,1637.65597 L250.905061,1637.61029 L250.905061,1637.61029 L250.690475,1637.57942 L250.690475,1637.57942 L250.507452,1637.56288 C250.479652,1637.56128 250.453224,1637.55981 250.428194,1637.55981 L250.428194,1637.55981 Z" id="Shape"></path>
		</g>
	</g>
</svg>