
<svg width="907px" height="665px" viewBox="0 0 907 665" version="1.1" xmlns="http://www.w3.org/2000/svg" xmlns:xlink="http://www.w3.org/1999/xlink">
    
		<!-- islas portugal -->
		<defs>
        <polygon id="path-a62zytlpdh-1" points="0 -8.52651283e-14 279.1018 -8.52651283e-14 279.1018 153.392 0 153.392"></polygon>
        <path d="M45.6595217,4.07266334 C46.165144,3.93385149 46.6305178,3.1519205 46.737428,2.45404073 C46.6607042,1.56258847 47.3373828,1.65810121 47.9562041,0.974229973 C48.3700094,0.648213145 49.0617812,0.438085112 49.5925588,0 C49.7799661,0.734811365 50.8842854,0.371862944 51,0.84305914 C50.5874525,1.56386197 51.1962116,1.91916937 50.87045,2.73166443 C50.7207757,3.01692916 49.0492035,2.30504085 48.5674788,3.28436484 C47.8870269,3.61292867 46.8808134,5.58813218 46.3085295,4.63173126 C45.8607644,4.79219266 45.8884353,4.32991099 45.6595217,4.07266334 M17.3962417,31.3358205 C17.006334,31.5816067 16.4956806,31.911444 16.1296705,31.8617774 C15.6768744,32.4106573 14.7121672,31.1486156 14.2216381,31.134607 C12.1513538,31.0531028 10.4621728,29.8445483 8.6384108,29.0460617 C7.67244582,29.3326 7.22593857,28.6334467 6.48259833,28.0514557 C5.32796832,27.0301061 3.86895872,26.5054228 2.61370735,25.6649106 C1.34084725,24.3914074 0.766047773,22.7116567 0.0969157824,21.0637435 C-0.475368157,19.9583427 1.6502579,19.3725312 2.20367534,18.3753781 C3.2312709,16.4982344 5.33174162,17.5781651 6.08137069,19.1445741 C6.43228766,20.2181373 7.7189832,19.7927872 7.94286571,20.3645902 C8.6346375,20.86253 9.66600636,20.8192308 10.4948747,21.1809058 C11.5916475,20.9580427 12.8330634,20.870171 13.6493541,19.9570692 C14.8379439,20.4155303 16.0604933,19.9341461 17.2666917,19.7711377 C18.4527659,19.301215 20.2161551,21.3974013 20.3494784,21.7272387 C20.5544944,22.5091696 21.4009715,22.6938276 21.9506157,23.3776988 C22.1103521,24.3239117 23.6209301,23.9049292 23.9919714,24.2958947 C24.65733,24.7760054 25.9779853,24.3290058 26.6295085,25.1516888 C27.0634381,25.0829197 27.6986104,25.2828597 28.0709094,25.1198513 C28.8821691,24.9504753 28.8381472,24.9122702 29.346285,25.5783124 C29.4481642,26.594568 28.4595594,24.3952279 28.429373,25.6292526 C27.4357371,25.5834064 26.0572246,25.5426543 25.7226586,26.4481151 C25.5352513,27.0364736 24.7705291,26.9218583 25.2082319,27.6235586 C24.8359329,27.8718918 24.6120504,28.1304129 24.5680286,28.6512757 C23.6875918,28.7085834 22.9933044,29.4828733 23.017202,30.324659 C22.6511918,30.6799664 22.1178987,31.1498891 21.7040934,31.514111 C21.1884089,31.8082902 20.2639503,31.8821534 19.6325513,31.4682649 C18.9445528,31.3281795 18.0779514,31.0556498 17.3962417,31.3358205" id="path-a62zytlpdh-3"></path>
        <path d="M58.9898778,15.7930929 C60.7926336,16.5847309 61.1244526,15.585971 60.2663001,14.117057 C60.9922335,12.777753 59.3916202,12.9924991 58.387264,11.5210437 C57.123555,10.5057649 55.7543251,10.7433834 55.0881445,12.0864994 C54.776667,12.9467544 56.0060498,14.7854383 56.9976927,14.8489726 C57.6689586,15.1984115 58.3198832,15.4576316 58.9898778,15.7930929 L58.9898778,15.7930929 Z M8.46058884,20.8339077 C7.75881082,19.6483569 6.83836283,18.0599983 6.40229424,17.0078696 C4.34018563,18.0142536 4.05794882,15.4881281 3.00655313,15.249239 C1.14150175,15.0357636 1.9437154,17.2493001 0.372342869,17.6482958 C0.98131329,19.3141662 -0.610400629,20.4730327 0.27444992,21.6420646 C-0.0802531016,22.9635789 0.88850569,24.3435448 0.533802668,25.4731855 C0.551601386,27.3563434 2.71668829,26.6434881 4.07066219,26.952265 C5.624236,26.9471822 6.46713243,26.2851544 6.95278316,24.793368 C7.09898692,23.1821371 7.96222474,22.9635789 7.94569736,21.4552736 C8.09062977,21.22655 8.59916457,21.2278207 8.49237226,20.8555094 L8.46058884,20.8339077 Z M8.22793417,1.46609856 C8.14783994,-0.478052338 10.6053344,-0.464074782 10.6638159,1.36190224 C11.5918919,2.68468726 8.64366137,5.27053503 8.64111869,3.63389035 C9.17635157,2.59700987 7.37868106,2.4102189 8.22793417,1.46609856 L8.22793417,1.46609856 Z M95.6247246,22.9038566 C97.5469862,23.178325 99.5073878,23.2253404 101.470332,23.8467063 C103.309957,23.8467063 104.314313,24.9877831 105.035161,26.4910056 C104.342282,27.3194935 105.514455,28.2000795 105.176279,29.4428112 C103.884601,30.8443788 103.724413,32.6474835 101.282174,31.9206506 C99.7146158,31.8774473 98.2665629,31.1455316 96.7663853,31.7351303 C95.6654074,31.2522693 93.8372248,31.6029789 92.7909145,30.9396804 C91.0351981,29.9790411 88.9006233,29.0692293 88.9870742,26.7019397 C88.5878744,24.732375 90.3130787,23.2062801 92.1196485,23.1973853 C93.2778365,22.7831414 94.4105978,22.6814864 95.6247246,22.9038566 L95.6247246,22.9038566 Z M22.3588449,34.8991406 L22.1656017,35.1316763 L22.0117699,35.3159259 L22.3588449,34.8991406 Z M22.6932065,34.3972193 L22.52539,34.6488153 L22.3588449,34.8991406 L22.3588449,34.8991406 L22.6932065,34.3972193 Z M21.6303688,35.7860801 C22.3003634,33.9537496 24.2887344,34.0350736 25.5880409,34.9715698 C26.456364,36.244798 28.6176369,36.0732553 28.7549413,37.6628845 C28.0913034,38.6031928 28.979968,40.18901 27.942557,40.6375625 C27.9374716,42.4101707 26.5873117,41.5003589 25.1964691,41.8370909 C23.7560442,41.5384795 21.9850718,42.429231 20.88028,41.2995904 C21.348132,39.621013 20.4060713,38.8128562 18.8664822,38.3846347 C17.4807248,37.6921103 16.3657623,36.2143015 18.7202784,36.179993 C19.6178423,35.9411038 20.9629169,36.3833029 21.6303688,35.7860801 L21.6303688,35.7860801 Z M46.462123,28.4961495 C48.5255029,29.7287158 51.2499781,30.1391476 53.4544765,31.4784516 C55.0512757,32.0807572 56.6417183,32.5801371 58.3071698,33.120179 C59.7094545,33.9219824 60.9006973,35.0300214 62.533094,35.4607842 C63.4891394,36.6755609 65.3313067,36.7873813 66.6153571,37.734043 C68.1066354,38.7328029 70.4586088,39.0377677 71.2036123,40.7570071 C69.3144055,41.718917 66.7869876,41.5804121 65.3007946,40.079731 C63.1115523,39.3312964 61.5528931,37.3083629 59.0864994,37.3261525 C57.0307474,37.2842199 55.836962,35.2612864 53.8155362,35.0656006 C52.1755115,34.6017999 50.8660344,33.4950316 49.3022898,32.84444 C47.8262676,32.4556098 47.9267032,30.5737225 46.2561664,30.4110746 C45.1602739,29.6321436 43.8813089,28.7185197 43.3664174,27.5126379 C44.3517036,27.6206463 45.6459246,27.8087079 46.462123,28.4961495 L46.462123,28.4961495 Z M33.2211482,45.9922369 C32.9528961,44.8981755 31.2493045,43.8219038 31.8239488,42.4368551 C31.9790519,40.1585135 34.6793717,38.5777791 36.8025045,39.4011842 C39.2066028,38.7442391 41.1962452,40.1572429 43.210043,41.1483786 C43.9944579,42.6490598 45.643382,43.2107034 47.265608,43.2500947 C48.325903,44.1167031 49.1853268,44.9998305 50.4159811,45.5995947 C51.8653052,45.788927 53.1913097,46.1040574 54.6241065,46.4534963 C55.7555964,46.5068651 57.3485817,47.2120963 57.5430963,48.4243316 C56.772666,49.1232094 54.776667,49.5120395 53.7087439,49.1092318 C52.4463062,48.9351477 50.4655632,48.2184803 49.4828197,49.1486231 C48.2534368,50.3011361 46.1468314,50.4307461 45.5543884,48.5399641 C43.334634,48.4637229 41.1644617,48.6251001 39.0870971,47.8817483 C37.8602569,47.3061272 36.4439875,48.1130133 35.1497664,47.0329295 C34.7925207,46.5970839 33.7970638,46.2235019 33.2211482,45.9922369 L33.2211482,45.9922369 Z M103.514642,66.0538411 C101.764011,66.2952716 99.9421851,65.9699758 98.3453858,66.4553782 C96.6201815,66.4947695 96.0061257,64.5302876 94.1881138,64.6891234 C92.4578242,63.7005291 90.8699243,66.0512998 89.14472,65.1084501 C88.1581625,64.3765345 87.2415285,63.7666048 86.1774194,62.8021534 C85.2404441,61.8046643 83.9716497,61.5911889 83.1630794,60.4183449 C81.5675515,59.2518544 82.2095767,57.6126683 83.4338742,56.5884947 C84.5462941,55.8845342 86.0083316,55.349575 87.1474496,56.3394401 C88.7671329,56.8006994 88.8828246,58.2302221 90.0499119,59.3636748 C91.1407191,60.2582383 92.7604024,59.5580899 93.8334108,60.5123757 C95.4683502,60.6470685 97.1846551,60.4920447 98.3708126,59.2035683 C99.7006311,60.0727181 100.857548,60.0943197 102.417478,59.8592427 C103.687544,59.3522386 105.454702,58.8198208 106.680271,58.0027692 C108.391491,57.8960315 110.08364,58.4271786 111.731293,58.1298379 C112.878039,57.9544831 114.837169,57.9786261 114.849883,59.480578 C115.143562,60.7004374 114.952861,62.4133233 114.73292,63.4222486 C114.113779,64.5340996 112.028786,65.2901583 110.889668,64.4883549 C109.290326,63.9127338 108.252915,65.2825342 106.88877,65.5239647 C105.602177,65.1796086 104.717327,66.5405142 103.514642,66.0538411 L103.514642,66.0538411 Z M106.106898,86.4979221 C107.098541,87.5017647 110.199332,86.9845951 108.641944,85.0874597 C106.982849,84.5588539 107.847359,82.679508 106.495927,82.8065767 C104.915655,82.5549807 103.685001,83.1547449 102.26746,83.0403831 C100.955441,84.0073758 101.908943,85.69866 102.937455,86.4140567 C103.958339,86.6669234 105.420376,85.0340908 106.106898,86.4979221 L106.106898,86.4979221 Z" id="path-a62zytlpdh-5"></path>
        <path d="M97.0975927,1.902 C96.0005927,3.788 90.5005927,2.691 85.4985927,1.902 L85.4985927,1.902 C80.4785927,1.114 74.0545927,8.654 73.5735927,9.904 L73.5735927,9.904 C73.2845927,10.692 68.4185927,14.097 64.9175927,16.463 L64.9175927,16.463 C64.9565927,17.213 65.0135927,17.964 65.0715927,18.675 L65.0715927,18.675 C65.2635927,21.464 64.4755927,25.619 65.2635927,27.811 L65.2635927,27.811 C66.0525927,29.985 66.2635927,29.792 66.0525927,32.967 L66.0525927,32.967 C65.8595927,36.14 65.0525927,46.854 64.2645927,47.853 L64.2645927,47.853 C63.4745927,48.854 66.2455927,51.432 67.0535927,53.009 L67.0535927,53.009 C67.8415927,54.586 66.4565927,59.164 66.6495927,63.126 L66.6495927,63.126 C66.8405927,67.088 66.6495927,65.703 68.4375927,67.088 L68.4375927,67.088 C70.2265927,68.473 69.0345927,70.454 67.8415927,71.647 L67.8415927,71.647 C66.6495927,72.839 67.8415927,75.417 68.6305927,78.187 L68.6305927,78.187 C69.4185927,80.956 65.6485927,84.131 65.6485927,85.726 L65.6485927,85.726 C65.6485927,87.304 65.6485927,88.112 65.2455927,90.286 L65.2455927,90.286 C64.8415927,92.478 60.5705927,90.9 59.5705927,92.497 L59.5705927,92.497 C58.5705927,94.094 58.5705927,97.864 60.1665927,97.864 L60.1665927,97.864 C61.7635927,97.864 64.6485927,99.826 65.0335927,98.229 L65.0335927,98.229 C65.4365927,96.652 66.4175927,99.018 66.8215927,100.807 L66.8215927,100.807 C67.2265927,102.595 65.8225927,103.384 63.6485927,103.384 L63.6485927,103.384 C61.4745927,103.384 56.3005927,113.501 55.9155927,114.694 L55.9155927,114.694 C55.5115927,115.886 44.6065927,134.794 44.6065927,135.987 L44.6065927,135.987 C44.6065927,137.179 46.9915927,135.929 47.9725927,137.717 L47.9725927,137.717 C48.9535927,139.507 47.7795927,140.892 47.3755927,142.68 L47.3755927,142.68 C46.9715927,144.469 33.8925927,171.647 33.8925927,172.244 L33.8925927,172.244 C33.8925927,172.84 31.9105927,173.821 32.1035927,176.417 L32.1035927,176.417 C32.2965927,178.995 25.1605927,182.765 24.3715927,183.765 L24.3715927,183.765 C23.5825927,184.766 23.5825927,185.554 22.3895927,187.132 L22.3895927,187.132 C21.1975927,188.709 15.8505927,189.901 14.0615927,191.882 L14.0615927,191.882 C12.2725927,193.864 14.4655927,195.845 15.0425927,199.23 L15.0425927,199.23 C15.6385927,202.596 11.6765927,205.77 9.29159272,207.962 L9.29159272,207.962 C6.90659272,210.136 7.31059272,216.888 7.11759272,220.85 L7.11759272,220.85 C6.92559272,224.812 2.34759272,227.601 0.770592715,231.756 L0.770592715,231.756 C-0.806407285,235.93 0.366592715,237.122 1.36659272,238.104 L1.36659272,238.104 C2.34759272,239.103 3.94459272,238.508 5.32859272,238.296 L5.32859272,238.296 C6.71359272,238.104 8.31059272,238.892 8.90659272,239.084 L8.90659272,239.084 C9.50259272,239.277 11.6765927,239.277 13.2725927,238.296 L13.2725927,238.296 C14.8495927,237.315 14.4655927,237.507 16.6385927,238.104 L16.6385927,238.104 C18.8125927,238.699 21.0045927,237.911 22.7935927,237.103 L22.7935927,237.103 C24.5835927,236.314 25.1785927,234.122 25.1785927,232.737 L25.1785927,232.737 C25.1785927,231.352 27.1595927,227.967 28.5445927,227.178 L28.5445927,227.178 C29.9305927,226.389 30.1225927,227.967 29.9305927,229.755 L29.9305927,229.755 C29.7375927,231.544 31.5065927,233.525 32.5075927,234.526 L32.5075927,234.526 C33.5075927,235.526 30.9295927,236.718 28.5445927,237.699 L28.5445927,237.699 C26.1595927,238.699 27.9495927,238.488 29.9305927,240.469 L29.9305927,240.469 C31.9105927,242.45 25.1605927,240.277 23.9675927,240.277 L23.9675927,240.277 C22.7755927,240.277 22.7755927,244.239 22.1785927,243.45 L22.1785927,243.45 C21.5825927,242.662 17.0245927,241.258 13.2535927,241.065 L13.2535927,241.065 C9.48359272,240.873 15.2345927,246.028 15.8305927,248.009 L15.8305927,248.009 C16.4275927,249.991 17.0245927,251.375 15.8305927,254.952 L15.8305927,254.952 C14.6385927,258.531 13.6575927,260.108 14.8305927,260.319 L14.8305927,260.319 C16.0235927,260.512 18.7935927,259.531 20.3905927,259.531 L20.3905927,259.531 C21.9855927,259.531 26.5455927,259.531 28.5265927,259.127 L28.5265927,259.127 C30.5065927,258.722 30.1025927,257.338 31.6995927,259.319 L31.6995927,259.319 C33.2965927,261.3 35.6625927,269.629 35.0655927,275.38 L35.0655927,275.38 C34.4695927,281.131 29.9115927,289.479 28.9105927,291.056 L28.9105927,291.056 C27.9105927,292.652 28.3145927,294.633 30.2955927,296.807 L30.2955927,296.807 C32.2765927,298.98 30.6995927,302.366 30.2955927,303.347 L30.2955927,303.347 C29.8915927,304.347 28.6985927,309.098 30.4875927,310.695 L30.4875927,310.695 C32.2765927,312.272 27.1215927,314.465 26.9105927,320.216 L26.9105927,320.216 C26.7175927,325.967 25.9095927,327.563 25.7185927,330.737 L25.7185927,330.737 C25.5255927,333.911 23.1405927,334.911 21.3515927,336.104 L21.3515927,336.104 C19.5625927,337.296 19.7545927,342.047 19.7545927,343.451 L19.7545927,343.451 C19.7545927,344.836 19.7545927,344.451 17.9665927,345.432 L17.9665927,345.432 C16.1775927,346.433 17.3695927,349.01 17.3695927,350.203 L17.3695927,350.203 C17.3695927,351.395 15.3885927,352.78 12.8115927,355.357 L12.8115927,355.357 C10.2335927,357.935 10.4265927,359.32 12.2155927,360.127 L12.2155927,360.127 C14.0035927,360.917 15.5815927,361.724 16.9855927,360.32 L16.9855927,360.32 C18.3705927,358.935 19.9665927,357.935 20.5625927,357.742 L20.5625927,357.742 C21.1585927,357.551 26.7175927,357.742 28.5065927,357.742 L28.5065927,357.742 C30.2955927,357.742 30.2955927,356.954 31.4875927,355.954 L31.4875927,355.954 C32.6805927,354.954 34.8535927,355.357 37.6425927,355.954 L37.6425927,355.954 C40.4135927,356.55 40.8165927,359.127 42.7985927,359.32 L42.7985927,359.32 C44.7795927,359.513 46.5685927,359.127 47.7605927,360.32 L47.7605927,360.32 C48.9535927,361.512 52.3195927,361.108 54.1075927,361.321 L54.1075927,361.321 C55.8965927,361.512 58.2815927,361.512 59.2625927,362.705 L59.2625927,362.705 C60.2625927,363.897 61.6475927,362.897 65.0135927,365.687 L65.0135927,365.687 C68.3795927,368.456 69.5725927,372.437 73.7465927,372.226 L73.7465927,372.226 C77.9205927,372.034 79.9015927,367.475 82.8835927,365.475 L82.8835927,365.475 C85.8645927,363.493 92.8075927,362.109 95.3855927,361.512 L95.3855927,361.512 C97.9625927,360.917 99.5595927,361.32 101.925593,361.32 L101.925593,361.32 C102.406593,361.32 102.848593,361.301 103.252593,361.262 L103.252593,361.262 C103.233593,360.705 103.290593,360.205 103.175593,358.378 L103.175593,358.378 C103.155593,355.896 102.367593,356.993 101.751593,355.262 L101.751593,355.262 C101.117593,353.53 101.597593,349.452 101.751593,348.048 L101.751593,348.048 C101.905593,346.644 101.751593,345.374 101.271593,344.124 L101.271593,344.124 C100.809593,342.874 102.521593,339.74 102.059593,339.258 L102.059593,339.258 C101.597593,338.777 99.7135927,333.296 99.8675927,331.257 L99.8675927,331.257 C100.021593,329.218 101.905593,327.333 103.155593,327.025 L103.155593,327.025 C104.406593,326.717 104.887593,325.294 104.887593,322.486 L104.887593,322.486 C104.887593,319.678 105.349593,320.447 106.291593,320.139 L106.291593,320.139 C107.233593,319.832 107.695593,318.254 107.868593,317.312 L107.868593,317.312 C108.022593,316.369 109.445593,315.581 111.484593,314.811 L111.484593,314.811 C113.523593,314.022 114.312593,310.887 114.312593,309.002 L114.312593,309.002 C114.312593,307.117 118.082593,303.828 118.543593,303.828 L118.543593,303.828 C119.005593,303.828 120.120593,304.771 122.929593,302.578 L122.929593,302.578 C125.756593,300.385 126.852593,300.693 127.949593,301.635 L127.949593,301.635 C129.046593,302.578 129.199593,302.578 131.392593,301.481 L131.392593,301.481 C133.584593,300.385 132.796593,297.25 132.796593,296.615 L132.796593,296.615 C132.796593,295.981 134.200593,295.365 134.681593,294.884 L134.681593,294.884 C135.143593,294.423 134.989593,292.383 134.989593,292.383 L134.989593,292.383 C134.989593,292.383 134.200593,291.922 133.584593,291.922 L133.584593,291.922 C132.970593,291.922 129.026593,291.768 127.776593,291.614 L127.776593,291.614 C126.526593,291.46 126.199593,289.883 126.045593,289.268 L126.045593,289.268 C125.891593,288.633 124.313593,283.786 124.313593,281.593 L124.313593,281.593 C124.313593,279.4 125.410593,278.304 120.871593,275.014 L120.871593,275.014 C116.312593,271.726 120.082593,272.341 118.678593,269.686 L118.678593,269.686 C117.274593,267.013 120.871593,264.204 121.352593,263.57 L121.352593,263.57 C121.813593,262.935 123.236593,262.781 123.236593,258.088 L123.236593,258.088 C123.236593,253.376 125.429593,251.972 126.064593,250.394 L126.064593,250.394 C126.698593,248.836 131.873593,246.625 133.912593,246.625 L133.912593,246.625 C135.950593,246.625 134.854593,243.181 134.854593,241.758 L134.854593,241.758 C134.854593,240.354 136.432593,239.411 137.528593,237.834 L137.528593,237.834 C138.624593,236.257 140.971593,232.352 140.971593,231.717 L140.971593,231.717 C140.971593,231.083 140.817593,228.275 140.971593,226.851 L140.971593,226.851 C141.125593,225.447 136.893593,224.024 136.432593,223.235 L136.432593,223.235 C135.950593,222.446 133.450593,222.292 132.816593,220.562 L132.816593,220.562 C132.180593,218.83 130.930593,219.004 129.988593,218.368 L129.988593,218.368 C129.046593,217.734 129.046593,216.964 129.046593,214.753 L129.046593,214.753 C129.046593,212.56 127.468593,210.213 126.852593,208.79 L126.852593,208.79 C126.218593,207.386 124.968593,206.905 124.968593,205.347 L124.968593,205.347 C124.968593,203.769 127.006593,200.807 127.314593,199.865 L127.314593,199.865 C127.622593,198.923 126.852593,198.461 125.737593,197.345 L125.737593,197.345 C124.641593,196.249 124.333593,196.711 123.698593,194.999 L123.698593,194.999 C123.063593,193.267 121.505593,192.959 120.717593,191.709 L120.717593,191.709 C119.929593,190.459 117.735593,188.728 117.101593,187.324 L117.101593,187.324 C116.466593,185.92 116.639593,184.035 116.947593,183.093 L116.947593,183.093 C117.255593,182.15 120.082593,182.939 121.025593,183.554 L121.025593,183.554 C121.967593,184.189 125.410593,183.554 128.699593,183.554 L128.699593,183.554 C131.989593,183.554 133.873593,182.765 135.297593,183.093 L135.297593,183.093 C136.701593,183.401 136.874593,186.381 139.836593,187.016 L139.836593,187.016 C142.817593,187.651 141.875593,186.862 142.664593,186.381 L142.664593,186.381 C143.452593,185.92 144.240593,186.074 145.491593,184.805 L145.491593,184.805 C146.741593,183.554 145.645593,181.977 145.953593,179.477 L145.953593,179.477 C146.261593,176.975 146.414593,178.072 146.895593,176.803 L146.895593,176.803 C147.357593,175.553 147.838593,175.706 148.145593,174.456 L148.145593,174.456 C148.453593,173.205 149.876593,170.84 150.646593,170.071 L150.646593,170.071 C151.435593,169.282 152.050593,166.935 152.050593,163.493 L152.050593,163.493 C152.050593,160.049 153.935593,161.453 154.243593,158.78 L154.243593,158.78 C154.551593,156.106 146.241593,150.932 144.991593,149.99 L144.991593,149.99 C143.741593,149.047 145.779593,146.7 145.779593,146.7 L145.779593,146.7 C145.779593,146.7 146.568593,145.124 146.875593,144.027 L146.875593,144.027 C147.183593,142.93 153.147593,143.873 153.147593,143.873 L153.147593,143.873 C153.147593,143.873 154.724593,143.084 155.339593,142.142 L155.339593,142.142 C155.974593,141.2 157.070593,141.046 158.629593,140.892 L158.629593,140.892 C160.205593,140.738 161.609593,138.218 161.456593,136.814 L161.456593,136.814 C161.302593,135.41 160.359593,134.775 159.417593,133.044 L159.417593,133.044 C158.475593,131.313 158.629593,130.216 159.571593,128.485 L159.571593,128.485 C160.513593,126.755 161.917593,124.869 162.091593,123.619 L162.091593,123.619 C162.245593,122.369 161.783593,121.099 161.609593,119.541 L161.609593,119.541 C161.456593,117.964 161.609593,117.503 162.091593,116.867 L162.091593,116.867 C162.552593,116.233 163.668593,115.925 164.129593,111.693 L164.129593,111.693 C164.591593,107.462 163.495593,99.152 163.495593,96.632 L163.495593,96.632 C163.495593,94.132 159.725593,90.824 159.571593,89.42 L159.571593,89.42 C159.417593,88.016 164.591593,88.939 165.226593,88.939 L165.226593,88.939 C165.860593,88.939 170.400593,82.668 171.342593,81.572 L171.342593,81.572 C172.285593,80.476 176.208593,76.552 177.613593,74.994 L177.613593,74.994 C179.017593,73.417 184.364593,74.359 184.980593,73.59 L184.980593,73.59 C185.614593,72.801 185.441593,71.397 188.750593,69.358 L188.750593,69.358 C192.038593,67.319 191.270593,68.416 193.308593,66.223 L193.308593,66.223 C195.347593,64.03 197.386593,61.684 197.694593,59.01 L197.694593,59.01 C198.002593,56.336 200.675593,56.971 201.618593,53.528 L201.618593,53.528 C202.150593,51.583 202.130593,51.585 201.671593,51.586 L201.671593,51.586 C201.318593,51.587 200.706593,51.587 199.886593,50.7 L199.886593,50.7 C198.002593,48.662 199.579593,50.066 200.194593,47.873 L200.194593,47.873 C200.829593,45.68 200.194593,46.295 197.848593,43.949 L197.848593,43.949 C195.501593,41.603 193.616593,43.487 193.462593,43.949 L193.462593,43.949 C193.308593,44.411 188.134593,43.487 185.942593,41.757 L185.942593,41.757 C183.749593,40.025 185.306593,34.389 185.942593,31.562 L185.942593,31.562 C186.576593,28.735 187.980593,27.177 187.038593,24.503 L187.038593,24.503 C186.358593,22.572 183.139593,22.778 181.048593,22.984 L181.048593,22.984 C180.244593,23.063 179.606593,23.142 179.344593,23.099 L179.344593,23.099 C178.402593,22.945 177.940593,21.367 176.824593,20.117 L176.824593,20.117 C175.728593,18.867 173.535593,19.655 172.901593,20.753 L172.901593,20.753 C172.265593,21.849 168.341593,21.541 166.149593,20.117 L166.149593,20.117 C163.957593,18.713 164.572593,19.329 162.533593,19.329 L162.533593,19.329 C160.494593,19.329 156.878593,18.386 155.320593,17.136 L155.320593,17.136 C153.742593,15.885 153.435593,19.021 153.589593,22.311 L153.589593,22.311 C153.742593,25.599 148.414593,24.503 148.414593,24.503 L148.414593,24.503 C148.414593,24.503 144.972593,24.965 141.202593,24.965 L141.202593,24.965 C137.432593,24.965 137.759593,23.388 136.970593,23.388 L136.970593,23.388 C136.182593,23.388 134.932593,24.792 132.738593,25.272 L132.738593,25.272 C130.546593,25.734 130.065593,22.772 128.968593,20.098 L128.968593,20.098 C127.872593,17.424 123.486593,19.79 121.121593,20.887 L121.121593,20.887 C118.774593,21.983 118.928593,21.041 117.986593,20.098 L117.986593,20.098 C117.043593,19.156 116.409593,19.002 116.101593,19.637 L116.101593,19.637 C115.793593,20.271 112.023593,21.675 111.081593,21.675 L111.081593,21.675 C110.138593,21.675 105.907593,22.311 104.483593,22.137 L104.483593,22.137 C103.079593,21.983 102.137593,20.733 101.809593,17.906 L101.809593,17.906 C101.501593,15.078 102.271593,10.212 105.098593,10.058 L105.098593,10.058 C107.926593,9.904 108.234593,8.019 108.387593,5.98 L108.387593,5.98 C108.541593,3.941 104.310593,2.691 102.906593,0.96 L102.906593,0.96 C102.365593,0.293 101.540593,0 100.668593,0 L100.668593,0 C99.2795927,0 97.7705927,0.744 97.0975927,1.902" id="path-a62zytlpdh-7"></path>
    </defs>




		<g id="islas-portugal-copy" transform="translate(0.000000, 502.234243)">
				<polyline id="Path-3" stroke="#979797" stroke-width="0.7" points="0 0 180.966379 0 180.966379 143.602504"></polyline>
				<g id="Group-2" transform="translate(119.792639, 106.765757)">
						<mask id="mask-a62zytlpdh-4" fill="white">
								<use xlink:href="#path-a62zytlpdh-3"></use>
						</mask>
						<use id="Mask" fill="#F7E4F9" xlink:href="#path-a62zytlpdh-3"></use>
						<g mask="url(#mask-a62zytlpdh-4)" stroke="#913393" stroke-linecap="square" stroke-width="0.634293331">
								<g transform="translate(-110.683487, -87.871723)">
										<line x1="33.3308229" y1="0.636751616" x2="0.62888345" y2="33.7478357" id="Line-3"></line>
										<line x1="38.3618905" y1="3.18375808" x2="5.65995105" y2="36.2948421" id="Line-3-Copy-2"></line>
										<line x1="54.7128602" y1="14.6452872" x2="22.0109208" y2="47.7563712" id="Line-3-Copy-4"></line>
										<line x1="59.7439278" y1="17.1922936" x2="27.0419884" y2="50.3033777" id="Line-3-Copy-6"></line>
										<line x1="71.0638299" y1="15.9187904" x2="34.5885898" y2="52.8503842" id="Line-3-Copy-8"></line>
										<line x1="69.806063" y1="13.3717839" x2="33.3308229" y2="50.3033777" id="Line-3-Copy-44"></line>
										<line x1="72.3215968" y1="22.2863066" x2="39.6196574" y2="55.3973906" id="Line-3-Copy-10"></line>
										<line x1="77.3526644" y1="24.833313" x2="44.650725" y2="57.9443971" id="Line-3-Copy-12"></line>
										<line x1="82.383732" y1="28.6538227" x2="49.6817926" y2="61.7649068" id="Line-3-Copy-14"></line>
										<line x1="112.570138" y1="18.4657969" x2="79.8681982" y2="51.5768809" id="Line-3-Copy-16"></line>
										<line x1="117.601205" y1="21.0128033" x2="84.8992658" y2="54.1238874" id="Line-3-Copy-18"></line>
										<line x1="117.601205" y1="40.1153518" x2="84.8992658" y2="73.2264359" id="Line-3-Copy-20"></line>
										<line x1="121.374506" y1="43.9358615" x2="88.6725665" y2="77.0469456" id="Line-3-Copy-22"></line>
										<line x1="125.147807" y1="47.7563712" x2="92.4458672" y2="80.8674553" id="Line-3-Copy-24"></line>
										<line x1="130.178874" y1="51.5768809" x2="97.4769348" y2="84.687965" id="Line-3-Copy-26"></line>
										<line x1="135.209942" y1="54.1238874" x2="102.508002" y2="87.2349714" id="Line-3-Copy-28"></line>
										<line x1="138.983242" y1="59.2179003" x2="106.281303" y2="92.3289844" id="Line-3-Copy-30"></line>
										<line x1="141.498776" y1="64.3119132" x2="108.796837" y2="97.4229973" id="Line-3-Copy-32"></line>
										<line x1="137.725476" y1="82.1409585" x2="105.023536" y2="115.252043" id="Line-3-Copy-34"></line>
										<line x1="141.498776" y1="85.9614682" x2="108.796837" y2="119.072552" id="Line-3-Copy-36"></line>
										<line x1="145.272077" y1="89.7819779" x2="112.570138" y2="122.893062" id="Line-3-Copy-38"></line>
										<line x1="150.303145" y1="93.6024876" x2="117.601205" y2="126.713572" id="Line-3-Copy-40"></line>
										<line x1="175.458483" y1="74.4999391" x2="142.756543" y2="107.611023" id="Line-3-Copy-42"></line>
										<line x1="34.5885898" y1="3.18375808" x2="1.88665035" y2="36.2948421" id="Line-3-Copy"></line>
										<line x1="39.6196574" y1="5.73076455" x2="6.91771795" y2="38.8418486" id="Line-3-Copy-3"></line>
										<line x1="55.9706271" y1="17.1922936" x2="23.2686877" y2="50.3033777" id="Line-3-Copy-5"></line>
										<line x1="61.0016947" y1="19.7393001" x2="28.2997553" y2="52.8503842" id="Line-3-Copy-7"></line>
										<line x1="68.5482961" y1="22.2863066" x2="35.8463567" y2="55.3973906" id="Line-3-Copy-9"></line>
										<line x1="73.5793637" y1="24.833313" x2="40.8774243" y2="57.9443971" id="Line-3-Copy-11"></line>
										<line x1="78.6104313" y1="27.3803195" x2="45.9084919" y2="60.4914036" id="Line-3-Copy-13"></line>
										<line x1="83.6414989" y1="31.2008292" x2="50.9395595" y2="64.3119132" id="Line-3-Copy-15"></line>
										<line x1="113.827904" y1="21.0128033" x2="81.1259651" y2="54.1238874" id="Line-3-Copy-17"></line>
										<line x1="118.858972" y1="23.5598098" x2="86.1570327" y2="56.6708939" id="Line-3-Copy-19"></line>
										<line x1="118.858972" y1="42.6623583" x2="86.1570327" y2="75.7734423" id="Line-3-Copy-21"></line>
										<line x1="122.632273" y1="46.482868" x2="89.9303334" y2="79.593952" id="Line-3-Copy-23"></line>
										<line x1="126.405573" y1="50.3033777" x2="93.7036341" y2="83.4144617" id="Line-3-Copy-25"></line>
										<line x1="131.436641" y1="54.1238874" x2="98.7347017" y2="87.2349714" id="Line-3-Copy-27"></line>
										<line x1="136.467709" y1="56.6708939" x2="103.765769" y2="89.7819779" id="Line-3-Copy-29"></line>
										<line x1="140.241009" y1="61.7649068" x2="107.53907" y2="94.8759908" id="Line-3-Copy-31"></line>
										<line x1="142.756543" y1="66.8589197" x2="110.054604" y2="99.9700038" id="Line-3-Copy-33"></line>
										<line x1="138.983242" y1="84.687965" x2="106.281303" y2="117.799049" id="Line-3-Copy-35"></line>
										<line x1="142.756543" y1="88.5084747" x2="110.054604" y2="121.619559" id="Line-3-Copy-37"></line>
										<line x1="146.529844" y1="92.3289844" x2="113.827904" y2="125.440068" id="Line-3-Copy-39"></line>
										<line x1="151.560911" y1="96.1494941" x2="118.858972" y2="129.260578" id="Line-3-Copy-41"></line>
										<line x1="176.716249" y1="77.0469456" x2="144.01431" y2="110.15803" id="Line-3-Copy-43"></line>
								</g>
						</g>
				</g>


				<g id="Group-2" transform="translate(13.792639, 15.765757)">
						<mask id="mask-a62zytlpdh-6" fill="white">
								<use xlink:href="#path-a62zytlpdh-5"></use>
						</mask>
						<use id="Mask" fill="#F7E4F9" xlink:href="#path-a62zytlpdh-5"></use>
						<g mask="url(#mask-a62zytlpdh-6)" stroke="#913393" stroke-linecap="square" stroke-width="0.634293331">
								<g transform="translate(-10.170696, -3.812061)">
										<line x1="33.6904304" y1="0.635343432" x2="0.635668498" y2="33.6732019" id="Line-3"></line>
										<line x1="38.7757784" y1="3.17671716" x2="5.72101648" y2="36.2145756" id="Line-3-Copy-2"></line>
										<line x1="55.3031593" y1="14.6128989" x2="22.2483974" y2="47.6507574" id="Line-3-Copy-4"></line>
										<line x1="60.3885073" y1="17.1542727" x2="27.3337454" y2="50.1921311" id="Line-3-Copy-6"></line>
										<line x1="71.8305403" y1="15.8835858" x2="34.9617674" y2="52.7335048" id="Line-3-Copy-8"></line>
										<line x1="70.5592033" y1="13.3422121" x2="33.6904304" y2="50.1921311" id="Line-3-Copy-44"></line>
										<line x1="73.1018773" y1="22.2370201" x2="40.0471154" y2="55.2748785" id="Line-3-Copy-10"></line>
										<line x1="78.1872253" y1="24.7783938" x2="45.1324634" y2="57.8162523" id="Line-3-Copy-12"></line>
										<line x1="83.2725733" y1="28.5904544" x2="50.2178114" y2="61.6283129" id="Line-3-Copy-14"></line>
										<line x1="113.784661" y1="18.4249595" x2="80.7298993" y2="51.462818" id="Line-3-Copy-16"></line>
										<line x1="118.870009" y1="20.9663332" x2="85.8152472" y2="54.0041917" id="Line-3-Copy-18"></line>
										<line x1="118.870009" y1="40.0266362" x2="85.8152472" y2="73.0644946" id="Line-3-Copy-20"></line>
										<line x1="122.68402" y1="43.8386968" x2="89.6292582" y2="76.8765552" id="Line-3-Copy-22"></line>
										<line x1="126.498031" y1="47.6507574" x2="93.4432692" y2="80.6886158" id="Line-3-Copy-24"></line>
										<line x1="131.583379" y1="51.462818" x2="98.5286172" y2="84.5006764" id="Line-3-Copy-26"></line>
										<line x1="136.668727" y1="54.0041917" x2="103.613965" y2="87.0420501" id="Line-3-Copy-28"></line>
										<line x1="140.482738" y1="59.0869391" x2="107.427976" y2="92.1247976" id="Line-3-Copy-30"></line>
										<line x1="143.025412" y1="64.1696866" x2="109.97065" y2="97.207545" id="Line-3-Copy-32"></line>
										<line x1="139.211401" y1="81.9593027" x2="106.156639" y2="114.997161" id="Line-3-Copy-34"></line>
										<line x1="143.025412" y1="85.7713633" x2="109.97065" y2="118.809222" id="Line-3-Copy-36"></line>
										<line x1="146.839423" y1="89.5834239" x2="113.784661" y2="122.621282" id="Line-3-Copy-38"></line>
										<line x1="151.924771" y1="93.3954844" x2="118.870009" y2="126.433343" id="Line-3-Copy-40"></line>
										<line x1="177.351511" y1="74.3351815" x2="144.296749" y2="107.37304" id="Line-3-Copy-42"></line>
										<line x1="34.9617674" y1="3.17671716" x2="1.90700549" y2="36.2145756" id="Line-3-Copy"></line>
										<line x1="40.0471154" y1="5.71809088" x2="6.99235348" y2="38.7559493" id="Line-3-Copy-3"></line>
										<line x1="56.5744963" y1="17.1542727" x2="23.5197344" y2="50.1921311" id="Line-3-Copy-5"></line>
										<line x1="61.6598443" y1="19.6956464" x2="28.6050824" y2="52.7335048" id="Line-3-Copy-7"></line>
										<line x1="69.2878663" y1="22.2370201" x2="36.2331044" y2="55.2748785" id="Line-3-Copy-9"></line>
										<line x1="74.3732143" y1="24.7783938" x2="41.3184524" y2="57.8162523" id="Line-3-Copy-11"></line>
										<line x1="79.4585623" y1="27.3197676" x2="46.4038004" y2="60.357626" id="Line-3-Copy-13"></line>
										<line x1="84.5439103" y1="31.1318281" x2="51.4891483" y2="64.1696866" id="Line-3-Copy-15"></line>
										<line x1="115.055998" y1="20.9663332" x2="82.0012363" y2="54.0041917" id="Line-3-Copy-17"></line>
										<line x1="120.141346" y1="23.507707" x2="87.0865842" y2="56.5455654" id="Line-3-Copy-19"></line>
										<line x1="120.141346" y1="42.5680099" x2="87.0865842" y2="75.6058684" id="Line-3-Copy-21"></line>
										<line x1="123.955357" y1="46.3800705" x2="90.9005952" y2="79.4179289" id="Line-3-Copy-23"></line>
										<line x1="127.769368" y1="50.1921311" x2="94.7146062" y2="83.2299895" id="Line-3-Copy-25"></line>
										<line x1="132.854716" y1="54.0041917" x2="99.7999542" y2="87.0420501" id="Line-3-Copy-27"></line>
										<line x1="137.940064" y1="56.5455654" x2="104.885302" y2="89.5834239" id="Line-3-Copy-29"></line>
										<line x1="141.754075" y1="61.6283129" x2="108.699313" y2="94.6661713" id="Line-3-Copy-31"></line>
										<line x1="144.296749" y1="66.7110603" x2="111.241987" y2="99.7489188" id="Line-3-Copy-33"></line>
										<line x1="140.482738" y1="84.5006764" x2="107.427976" y2="117.538535" id="Line-3-Copy-35"></line>
										<line x1="144.296749" y1="88.312737" x2="111.241987" y2="121.350595" id="Line-3-Copy-37"></line>
										<line x1="148.11076" y1="92.1247976" x2="115.055998" y2="125.162656" id="Line-3-Copy-39"></line>
										<line x1="153.196108" y1="95.9368582" x2="120.141346" y2="128.974717" id="Line-3-Copy-41"></line>
										<line x1="178.622848" y1="76.8765552" x2="145.568086" y2="109.914414" id="Line-3-Copy-43"></line>
								</g>
						</g>
				</g>
		</g>
		
		
		
		
		
		
		
		
		
		
		
		
		
		
		
		
		
		
		
		
		
		
		
		
		
				
		<!--
		<g id="portugal-stripes" opacity="0.443847656" transform="translate(130.801195, 114.577247)">
			<mask id="mask-a62zytlpdh-8" fill="white">
					<use xlink:href="#path-a62zytlpdh-7"></use>
			</mask>
			<g id="Clip-410"></g>
			<line x1="201.636893" y1="51.9911" x2="-176.730107" y2="288.4001" id="Stroke-334" stroke="#913393" stroke-width="0.906" mask="url(#mask-a62zytlpdh-8)"></line>
			<line x1="202.172993" y1="65.5332" x2="-175.614007" y2="301.5802" id="Stroke-337" stroke="#913393" stroke-width="0.906" mask="url(#mask-a62zytlpdh-8)"></line>
			<line x1="211.228193" y1="74.6171" x2="-166.558807" y2="310.6641" id="Stroke-340" stroke="#913393" stroke-width="0.906" mask="url(#mask-a62zytlpdh-8)"></line>
			<line x1="211.228193" y1="89.1987" x2="-166.558807" y2="325.2457" id="Stroke-343" stroke="#913393" stroke-width="0.906" mask="url(#mask-a62zytlpdh-8)"></line>
			<line x1="220.787593" y1="97.2919" x2="-156.999407" y2="333.3389" id="Stroke-346" stroke="#913393" stroke-width="0.906" mask="url(#mask-a62zytlpdh-8)"></line>
			<line x1="228.401993" y1="106.3726" x2="-149.385007" y2="342.4196" id="Stroke-349" stroke="#913393" stroke-width="0.906" mask="url(#mask-a62zytlpdh-8)"></line>
			<line x1="237.562993" y1="115.5336" x2="-140.224007" y2="351.5806" id="Stroke-352" stroke="#913393" stroke-width="0.906" mask="url(#mask-a62zytlpdh-8)"></line>
			<line x1="246.239393" y1="124.2099" x2="-131.547607" y2="360.2569" id="Stroke-355" stroke="#913393" stroke-width="0.906" mask="url(#mask-a62zytlpdh-8)"></line>
			<line x1="255.566693" y1="132.5765" x2="-122.220307" y2="368.6235" id="Stroke-358" stroke="#913393" stroke-width="0.906" mask="url(#mask-a62zytlpdh-8)"></line>
			<line x1="263.913993" y1="141.8845" x2="-113.873007" y2="377.9315" id="Stroke-361" stroke="#913393" stroke-width="0.906" mask="url(#mask-a62zytlpdh-8)"></line>
			<line x1="263.913993" y1="155.6775" x2="-113.873007" y2="391.7245" id="Stroke-364" stroke="#913393" stroke-width="0.906" mask="url(#mask-a62zytlpdh-8)"></line>
			<line x1="272.558593" y1="165.2582" x2="-105.228407" y2="401.3052" id="Stroke-367" stroke="#913393" stroke-width="0.906" mask="url(#mask-a62zytlpdh-8)"></line>
			<line x1="281.308593" y1="174.0082" x2="-96.4784073" y2="410.0552" id="Stroke-370" stroke="#913393" stroke-width="0.906" mask="url(#mask-a62zytlpdh-8)"></line>
			<line x1="290.571193" y1="182.2536" x2="-87.2168073" y2="418.3006" id="Stroke-373" stroke="#913393" stroke-width="0.906" mask="url(#mask-a62zytlpdh-8)"></line>
			<line x1="298.685193" y1="191.3847" x2="-79.1018073" y2="427.4317" id="Stroke-376" stroke="#913393" stroke-width="0.906" mask="url(#mask-a62zytlpdh-8)"></line>
			<line x1="308.402393" y1="199.5999" x2="-69.3846073" y2="435.6469" id="Stroke-379" stroke="#913393" stroke-width="0.906" mask="url(#mask-a62zytlpdh-8)"></line>
			<line x1="316.776193" y1="208.3618" x2="-61.0108073" y2="444.4088" id="Stroke-382" stroke="#913393" stroke-width="0.906" mask="url(#mask-a62zytlpdh-8)"></line>
			<line x1="336.890893" y1="210.2115" x2="-40.8961073" y2="446.2585" id="Stroke-385" stroke="#913393" stroke-width="0.906" mask="url(#mask-a62zytlpdh-8)"></line>
			<line x1="201.057393" y1="37.6543" x2="-176.729607" y2="273.7013" id="Stroke-388" stroke="#913393" stroke-width="0.906" mask="url(#mask-a62zytlpdh-8)"></line>
			<line x1="201.057393" y1="23.3032" x2="-176.729607" y2="259.3502" id="Stroke-391" stroke="#913393" stroke-width="0.906" mask="url(#mask-a62zytlpdh-8)"></line>
			<line x1="193.945893" y1="13.6473" x2="-183.841107" y2="249.6943" id="Stroke-394" stroke="#913393" stroke-width="0.906" mask="url(#mask-a62zytlpdh-8)"></line>
			<line x1="184.646493" y1="5.3773" x2="-193.140507" y2="241.4243" id="Stroke-397" stroke="#913393" stroke-width="0.906" mask="url(#mask-a62zytlpdh-8)"></line>
			<line x1="174.764893" y1="-3.0568" x2="-203.022107" y2="232.9902" id="Stroke-400" stroke="#913393" stroke-width="0.906" mask="url(#mask-a62zytlpdh-8)"></line>
			<line x1="165.232693" y1="-11.589" x2="-212.554307" y2="224.458" id="Stroke-403" stroke="#913393" stroke-width="0.906" mask="url(#mask-a62zytlpdh-8)"></line>
			<line x1="158.542793" y1="-21.5799" x2="-219.244207" y2="214.4671" id="Stroke-406" stroke="#913393" stroke-width="0.906" mask="url(#mask-a62zytlpdh-8)"></line>
			<line x1="147.997093" y1="-28.8246" x2="-229.789907" y2="207.2224" id="Stroke-409" stroke="#913393" stroke-width="0.906" mask="url(#mask-a62zytlpdh-8)"></line>
		</g>
		-->
</svg>