<svg width="100px" height="73px" viewBox="0 0 100 73" version="1.1" xmlns="http://www.w3.org/2000/svg" xmlns:xlink="http://www.w3.org/1999/xlink">
	<g id="mosquito" stroke="none" stroke-width="1" fill="none" fill-rule="evenodd">
		<g id="Elanco_LandingMapaElanco_General_Madrid" transform="translate(-191.000000, -1366.000000)" fill="#000000" fill-rule="nonzero">
			<path d="M234.69495,1384.20782 C235.043856,1385.00081 235.334296,1379.48001 235.426709,1377.49659 C233.838715,1374.04397 231.835805,1369.95847 230.03281,1367.87333 C230.587287,1368.55519 232.648662,1371.54445 233.851917,1379.8134 C233.851917,1379.8134 234.27249,1383.24719 234.69495,1384.20782 M235.458771,1387.69999 C235.458771,1387.69999 233.280465,1381.13757 233.355905,1379.93395 C233.431344,1378.73034 231.464268,1370.37286 229.765001,1367.56819 C229.304822,1367.05774 228.869161,1366.69986 228.473105,1366.53598 C229.161487,1367.92984 230.615577,1371.71774 230.296847,1378.43085 C230.294961,1378.43085 234.232885,1385.65441 235.458771,1387.69999 M236.141495,1388.36301 C236.141495,1388.36301 239.457047,1393.84049 239.457047,1393.65967 C239.457047,1393.52028 239.085509,1388.36301 238.919542,1386.10082 C238.204756,1384.0835 237.503172,1382.20556 236.965668,1380.95674 C236.637508,1380.19389 236.216935,1379.23137 235.73601,1378.17091 C235.73601,1378.1728 235.843511,1382.87424 235.456885,1384.69002 L236.141495,1388.36301 M229.397235,1415.09114 C230.044125,1414.51476 231.122905,1414.20586 231.76791,1414.48086 C234.063147,1415.47163 235.696404,1416.16856 238.101028,1416.85418 C238.715857,1417.02936 238.93463,1417.39477 238.93463,1417.46823 C238.93463,1417.73193 237.823789,1417.73758 237.459795,1417.60008 L229.397235,1415.09114 Z M239.458932,1410.48577 C239.681478,1412.24316 238.696997,1410.63269 238.845989,1415.62608 C236.579043,1414.79542 234.251745,1414.75586 232.19037,1414.00054 L237.367382,1410.29364 C237.953921,1410.37275 239.396695,1410.01675 239.458932,1410.48577 M248.115576,1412.66696 C248.115576,1412.34864 248.077856,1412.00959 248.121234,1411.68185 C248.307946,1410.34261 248.524833,1409.00715 248.717203,1407.66603 C248.841678,1406.79017 248.883169,1405.89169 249.514972,1405.17028 C250.165635,1404.43191 250.880421,1404.41684 251.536742,1405.14768 C252.43824,1406.14975 252.306221,1407.95046 251.227441,1408.7378 C250.95586,1408.93934 250.546603,1408.94876 250.093968,1409.07684 C250.359891,1409.42531 250.623928,1409.77 250.889851,1410.11658 C249.982695,1410.95101 249.098171,1411.76472 248.115576,1412.66696 M254.175226,1408.63985 C254.129963,1408.51365 254.297815,1408.29704 255.093698,1407.78847 C256.0216,1407.19514 256.89858,1406.63006 257.984904,1406.08759 C258.260257,1405.8107 258.85434,1405.9256 258.942981,1406.09512 L254.175226,1408.63985 M192.017131,1436.69214 C191.698401,1437.18941 192.122746,1439.52883 192.48674,1437.98428 C192.877138,1436.33049 193.918198,1437.099 194.595265,1436.91817 C195.274217,1436.73735 198.799112,1434.34519 198.934902,1434.2981 C199.070693,1434.25289 200.92461,1434.16248 200.92461,1434.16248 C200.92461,1434.16248 209.332304,1429.78314 209.967879,1429.33108 C210.599682,1428.8809 211.231485,1428.83381 211.955701,1428.65298 C212.678031,1428.47216 215.887967,1424.68049 215.887967,1424.68049 C217.010125,1423.36387 218.645269,1421.33901 220.419975,1419.28213 C221.132875,1418.45523 222.238058,1418.07663 223.143328,1417.47012 C224.050484,1416.8636 224.420136,1416.05177 225.840278,1415.72214 C226.255194,1415.62608 227.198183,1415.6694 227.543317,1415.72214 C227.658362,1415.74098 228.344858,1416.05177 228.474991,1416.10075 C232.16208,1417.4833 235.858599,1418.8489 239.566433,1420.19002 C239.719198,1420.24464 239.975691,1420.19567 240.158631,1420.09772 C240.220868,1420.06382 240.273675,1420.02615 240.311395,1419.98659 C240.311395,1419.98659 240.826267,1419.79823 241.045041,1419.00901 C241.2657,1418.2179 240.9564,1413.6954 241.133682,1412.37689 C241.309078,1411.06026 241.882415,1411.3654 242.012548,1412.63871 C242.144567,1413.9139 242.761282,1415.58088 242.761282,1415.75793 C242.761282,1415.93311 242.717904,1418.34787 242.717904,1418.34787 C244.475637,1418.26122 244.652919,1416.94459 244.962219,1416.15349 C245.269634,1415.36426 245.446916,1412.24504 245.884463,1412.42021 C246.325782,1412.59727 246.191877,1414.96683 246.191877,1414.96683 C246.323896,1415.71461 247.994873,1414.83497 247.994873,1414.83497 C247.994873,1414.83497 249.711114,1418.74342 249.665851,1418.96192 C249.622473,1419.18418 250.563577,1421.81932 250.563577,1421.81932 L256.085723,1426.43035 C256.085723,1426.43035 262.154803,1432.53506 262.286822,1432.71023 C262.418841,1432.88541 268.310639,1436.96903 268.838713,1437.54164 C269.364901,1438.11237 269.762843,1438.59457 269.762843,1438.59457 C269.762843,1438.59457 270.02688,1436.96903 269.80622,1436.75053 C269.585561,1436.53204 263.429725,1432.31468 263.429725,1432.31468 L263.34297,1431.17323 C263.34297,1431.17323 258.416793,1427.26478 256.877834,1426.07812 C255.338875,1424.89334 251.951657,1421.46709 251.951657,1421.46709 L250.808754,1418.4816 L248.566325,1414.26425 L250.324057,1412.42021 L250.76349,1412.06987 L251.070905,1412.68392 C250.850245,1415.18721 252.653241,1416.24202 252.653241,1416.24202 L252.696619,1412.63871 C252.696619,1412.63871 253.620749,1414.83497 253.796145,1416.54716 C253.971541,1418.26122 253.575485,1418.96192 253.575485,1418.96192 L254.235578,1419.26894 C255.203085,1418.17269 254.720274,1414.48274 254.720274,1414.48274 L259.293773,1419.13898 C259.293773,1419.13898 268.133357,1426.60364 268.308753,1426.73737 C268.484149,1426.86922 273.6291,1429.50437 273.6291,1429.50437 L274.728625,1430.3388 L275.124681,1428.62661 C275.124681,1428.62661 270.637937,1426.3437 270.243767,1426.12332 C269.849598,1425.90294 263.425953,1420.89636 260.304658,1418.39307 C257.181477,1415.88978 255.642518,1413.78205 254.499615,1412.50874 C253.356712,1411.23544 253.884786,1410.75324 253.884786,1410.75324 C253.884786,1410.75324 256.655289,1408.864 258.062229,1407.67922 C259.469169,1406.49256 260.700714,1407.85439 260.700714,1407.98624 C260.700714,1408.1181 267.077209,1415.01203 267.077209,1415.18721 C267.077209,1415.36426 274.198665,1421.29192 274.198665,1421.29192 C274.198665,1421.29192 283.273996,1430.37082 285.090194,1431.08093 C285.788006,1431.35405 285.94077,1432.71023 285.94077,1432.71023 L286.821522,1431.1299 C286.821522,1431.1299 286.038841,1431.08093 283.083512,1428.36291 C282.734606,1428.04082 279.564275,1425.85962 278.819314,1424.62964 C278.07058,1423.40154 273.981778,1420.19567 272.618215,1418.9638 C271.254652,1417.7357 268.791563,1415.14577 268.791563,1415.14577 L260.436677,1406.31738 C260.436677,1406.31738 260.964751,1405.57148 261.315543,1405.17405 C261.668221,1404.77849 262.328314,1404.95555 262.680992,1404.98757 C263.031784,1405.01771 265.713646,1407.46072 265.889042,1407.85439 C266.066324,1408.24995 272.836988,1414.66357 272.925629,1414.96306 C273.01427,1415.26443 276.003547,1417.56053 277.103073,1418.39496 C278.202599,1419.22939 288.799914,1427.83739 288.799914,1427.96924 C288.799914,1428.10109 289.548648,1429.19922 289.548648,1429.19922 L290.472778,1427.66033 C290.472778,1427.66033 283.260794,1421.59894 282.031136,1421.02821 C280.799592,1420.4556 275.390604,1414.83497 274.157174,1414.00054 C272.927515,1413.16611 267.429887,1407.8073 266.55102,1406.75249 C265.672154,1405.69768 262.441472,1403.80091 262.441472,1403.80091 C262.392437,1403.71803 262.341515,1403.65022 262.288708,1403.58806 C262.239673,1403.53156 262.190637,1403.48258 262.135944,1403.44491 C262.060505,1403.39029 261.979407,1403.35638 261.892652,1403.34508 C261.883222,1403.34508 261.875679,1403.33943 261.864363,1403.33943 C261.728572,1403.32813 261.577694,1403.36768 261.404184,1403.45998 C260.900627,1403.73122 260.076455,1404.66548 259.587986,1404.95932 C259.414476,1405.06668 259.259826,1405.12131 259.112719,1405.11 C258.965613,1405.10059 258.824165,1405.02148 258.677058,1404.86137 C258.490346,1404.65606 258.092405,1404.15314 257.873631,1404.13619 C257.656744,1404.12112 257.432312,1404.19458 257.215425,1404.34903 C256.591165,1404.79356 255.995196,1405.28141 255.384139,1405.74666 C255.233261,1405.86156 255.06918,1405.95574 254.910758,1406.06122 C254.906986,1405.99341 254.908872,1405.93313 254.91453,1405.87851 L255.201199,1405.48295 C259.774698,1399.33492 263.337312,1398.06161 265.1818,1396.83163 C267.030059,1395.60165 272.833216,1393.27353 272.833216,1393.27353 L270.986843,1393.23021 C262.720597,1396.61125 258.586531,1400.3012 258.586531,1400.3012 L254.099787,1405.16274 C254.433606,1404.7314 254.052638,1404.79733 254.320447,1404.32831 L254.452465,1403.85742 C254.452465,1403.85742 257.837798,1397.57942 260.785583,1394.10796 C263.627753,1390.75894 268.172962,1387.70376 268.172962,1387.70376 L267.030059,1387.70376 C262.192523,1389.82091 257.134327,1397.0068 257.134327,1397.13866 C257.134327,1397.27051 253.66224,1403.50707 253.66224,1403.50707 C253.530222,1402.84781 253.177544,1402.58411 252.474073,1402.32041 C252.223238,1402.22623 251.712138,1402.24507 251.423583,1402.15465 C251.423583,1401.28067 251.466961,1400.46884 251.416039,1399.66455 C251.365118,1398.88098 251.136914,1398.1897 250.767262,1397.61332 C250.399497,1397.03694 249.888396,1396.58111 249.269795,1396.27032 C248.85488,1396.06124 248.392815,1395.91809 247.894916,1395.8484 C247.672371,1395.81826 247.449825,1395.79189 247.229166,1395.77494 C245.776962,1395.65439 244.373794,1395.81826 243.029091,1396.48317 C242.821633,1396.58488 242.591544,1396.64139 242.380314,1396.71673 L242.370884,1396.71861 C242.36334,1396.48128 242.346366,1396.25337 242.346366,1396.25337 C242.346366,1396.25337 241.014865,1392.12266 239.566433,1387.95239 L239.936085,1394.44889 L241.367543,1396.88437 L240.841355,1396.97102 C240.332141,1396.02922 236.560183,1390.12794 236.560183,1390.12794 C236.560183,1390.12794 238.006729,1394.87081 238.489539,1396.37392 L239.557003,1397.2027 C239.557003,1397.2027 239.375949,1397.26297 239.128886,1397.25355 L238.719629,1397.32136 C236.799702,1396.00473 229.09925,1391.70827 228.103453,1390.83805 C226.800242,1389.6966 220.657608,1385.62616 219.678785,1385.27393 C221.836345,1388.70771 225.457425,1392.66136 230.834351,1394.57132 C234.794906,1395.9746 237.129748,1396.91639 238.28774,1397.39294 L236.984528,1397.60955 C237.090143,1397.66041 237.191986,1397.7188 237.291943,1397.78661 C237.471111,1397.90151 237.654051,1398.03901 237.853964,1398.1897 C237.999185,1398.29706 238.148177,1398.41196 238.325459,1398.53439 C237.814359,1398.6832 237.533348,1398.75477 237.259881,1398.84895 C236.737465,1399.0279 236.469656,1399.27653 236.971326,1399.79263 C237.071283,1399.89623 237.154266,1400.01866 237.231591,1400.14298 C237.308916,1400.2673 237.38247,1400.39726 237.463567,1400.5197 C237.32589,1400.53853 237.212732,1400.53477 237.122205,1400.51028 C237.033564,1400.48768 236.963782,1400.44624 236.916633,1400.38785 C236.435708,1399.80205 235.971757,1399.1993 235.511578,1398.59844 C235.443683,1398.50991 235.372016,1398.44022 235.296577,1398.37994 C234.955215,1398.0974 234.534641,1398.0635 234.110296,1398.20665 C233.927356,1398.26881 233.667091,1398.6022 233.629371,1398.72275 C233.623714,1398.73782 233.623714,1398.75289 233.627485,1398.75854 C233.910382,1399.16163 234.266832,1399.51386 234.610081,1399.87174 C234.651572,1399.91695 234.759073,1399.8887 234.823196,1399.91883 C235.353156,1400.18065 235.879344,1400.44812 236.431936,1400.72689 C235.984959,1401.35224 235.649255,1401.82314 235.232454,1402.40517 C234.653458,1402.48428 233.893409,1402.57658 233.137131,1402.69713 C232.925901,1402.73103 232.646776,1402.78942 232.543048,1402.93823 C232.311072,1403.26785 232.018745,1403.46186 231.694357,1403.5956 C231.61326,1403.6295 231.532163,1403.66152 231.447294,1403.68789 C231.196459,1403.77077 230.934308,1403.83293 230.672156,1403.90262 C230.245925,1404.01752 229.819694,1404.15879 229.425524,1404.3528 C228.914424,1404.6052 228.452359,1404.97062 227.931829,1405.20042 C227.34529,1405.45847 226.460765,1405.44152 226.164667,1405.86532 C225.927033,1406.21002 225.638479,1406.3965 225.33295,1406.53776 C225.025535,1406.67715 224.706805,1406.7751 224.40882,1406.93332 C223.041486,1407.66792 221.634545,1408.33848 220.28607,1409.1051 C220.189885,1409.15784 213.775671,1411.90788 211.884034,1414.83686 C209.992397,1417.76584 211.222055,1419.32357 211.222055,1419.32357 C211.222055,1419.32357 212.168817,1418.37989 212.451714,1417.76396 C212.73461,1417.14991 213.539923,1417.48142 213.86997,1417.81104 C214.201902,1418.14067 215.457964,1417.11977 215.903055,1417.14991 C216.612183,1417.19699 219.718391,1416.88997 219.686329,1417.29306 C219.661811,1417.60762 218.896104,1418.16516 218.896104,1418.16516 C218.67733,1418.42886 217.62684,1419.25576 217.40618,1419.51381 C216.736658,1420.28796 216.521656,1420.32187 215.791782,1421.03387 C215.550377,1421.2712 214.826161,1421.61966 214.57344,1421.84758 L213.80396,1422.43337 C213.80396,1422.43337 204.445733,1426.49816 204.264679,1426.49816 C204.085511,1426.49816 202.457911,1426.67898 202.457911,1426.67898 C202.457911,1426.67898 201.282946,1427.94287 201.100006,1428.03328 C200.920838,1428.12558 196.307734,1430.11088 196.307734,1430.11088 C196.307734,1430.11088 194.632984,1428.93741 193.548546,1430.47253 C192.464108,1432.00766 193.7296,1432.86469 193.7296,1432.86469 L194.406667,1431.14874 C194.406667,1431.14874 195.989003,1431.32768 196.170057,1431.32768 C196.351111,1431.32768 200.330527,1429.38758 200.330527,1429.38758 C200.330527,1429.38758 202.86151,1428.98073 202.995415,1428.93552 C203.133091,1428.8922 203.764894,1428.16702 203.764894,1428.16702 L212.851541,1424.0137 C212.851541,1424.0137 214.524404,1423.78579 215.429674,1422.47858 C216.333058,1421.1676 219.361941,1419.40833 219.361941,1419.40833 L218.096449,1420.71554 L211.948157,1426.31545 L210.682665,1427.98431 L199.876006,1432.18471 C199.876006,1432.18471 196.439752,1434.57687 196.303962,1434.57687 C196.175715,1434.56934 192.673452,1435.67124 192.017131,1436.69214 M224.535181,1371.15266 C225.615847,1372.26209 228.04876,1374.87087 229.872501,1377.64728 C229.872501,1377.64728 229.915879,1370.678 227.960119,1366.4418 C226.321203,1366.38906 225.017991,1368.72471 224.535181,1371.15266 M250.580551,1405.20983 C250.020415,1405.17405 249.528174,1405.89169 249.514972,1406.76191 C249.503657,1407.56244 249.973265,1408.2782 250.523971,1408.29892 C251.089765,1408.31776 251.585777,1407.64343 251.610295,1406.82972 C251.631041,1406.0405 251.123712,1405.24186 250.580551,1405.20983 M233.851917,1385.26828 C233.851917,1385.26828 228.301481,1375.31163 224.429566,1371.77236 C224.301319,1372.69532 224.297548,1373.60133 224.442768,1374.35853 C226.130719,1376.0029 231.933876,1382.67646 233.851917,1385.26828 M216.883764,1375.30597 C216.995037,1375.40581 223.844913,1381.49922 223.844913,1381.26 C223.844913,1381.03774 221.681695,1373.43745 219.542995,1371.06413 C219.450582,1371.05095 219.358169,1371.02834 219.261984,1371.02458 C217.455216,1370.95488 216.9328,1373.0532 216.883764,1375.30597 M228.908766,1382.88365 C229.210523,1383.36585 233.912268,1390.89079 233.912268,1390.89079 L237.663481,1395.37562 C237.220275,1393.95351 236.041539,1390.12605 235.781273,1389.04111 C235.781273,1389.04111 227.464106,1377.40994 225.11229,1376.14229 C226.183526,1378.05978 228.671133,1382.50694 228.908766,1382.88365 M217.21381,1379.69285 C217.27039,1380.0658 217.426926,1380.61581 217.666445,1381.26753 C219.25444,1382.40145 224.267372,1385.90116 227.822442,1387.46077 C227.822442,1387.46077 231.137993,1389.44796 231.077642,1389.26714 C231.019177,1389.08631 224.327723,1382.88554 224.144783,1382.52389 C223.965615,1382.16412 217.193065,1376.31181 216.881878,1376.08766 C216.91394,1377.47775 217.083678,1378.83582 217.21381,1379.69285 M236.967554,1395.82956 C238.810156,1396.64327 233.672749,1391.5557 233.008884,1390.95295 C232.34502,1390.3502 228.36749,1388.54572 227.582923,1388.00325 C226.800242,1387.46077 220.710415,1384.39241 218.030439,1382.16789 C218.37746,1382.96841 218.833866,1383.86689 219.40909,1384.82752 C220.672696,1385.12512 226.645591,1388.90549 228.109111,1390.10722 C229.572631,1391.31271 235.123067,1395.01397 236.967554,1395.82956 M228.36749,1382.94393 C227.341518,1380.47643 224.861455,1376.3589 224.861455,1376.3589 C224.516321,1375.67327 222.805738,1372.45987 220.580283,1371.38246 C221.700554,1373.52975 223.590305,1377.56251 224.569128,1381.972 C224.569128,1381.972 231.200231,1388.3988 232.646776,1389.88495 C234.091436,1391.37299 229.389691,1385.41143 228.36749,1382.94393" id="Shape"></path>
		</g>
	</g>
</svg>