<svg viewBox="0 0 230 32" version="1.1" xmlns="http://www.w3.org/2000/svg" xmlns:xlink="http://www.w3.org/1999/xlink">
	<g stroke="none" stroke-width="1" fill="none" fill-rule="evenodd">
		<g id="Elanco_LandingMapaElanco_Leishmaniosis-Copy" transform="translate(-231.000000, -705.000000)" fill-rule="nonzero">
			<g id="Group-7" transform="translate(231.686573, 705.667368)">
				<g id="Group" transform="translate(120.995653, 0.000000)">
					<rect id="Rectangle" fill="#A71830" x="-1.82088852e-15" y="-2.30406117e-16" width="108" height="31"></rect>
					<g transform="translate(6.735985, 7.101464)" fill="#FFFFFF" id="Shape">
						<path d="M6.73470405,0.568117155 L9.92266898,0.568117155 L16.657373,16.5895397 L13.0427231,16.5895397 L11.606345,13.0212971 L4.96133449,13.0212971 L3.5249564,16.5895397 L0,16.5895397 L6.73470405,0.568117155 Z M10.3711367,9.93037657 L8.28383974,4.77192469 L6.19654276,9.93037657 L10.3711367,9.93037657 Z M16.3895737,10.521841 L16.3895737,10.4764435 C16.3895737,6.40882845 19.0163133,4.18046025 21.8672868,4.18046025 C23.6855031,4.18046025 24.8079538,5.02096234 25.616477,5.99895397 L25.616477,0 L29.0286758,0 L29.0286758,16.5895397 L25.616477,16.5895397 L25.616477,14.8397908 C24.7861711,15.9760251 23.6406563,16.8165272 21.8672868,16.8165272 C19.0611601,16.8165272 16.3895737,14.5894561 16.3895737,10.521841 Z M25.6613238,10.521841 L25.6613238,10.4764435 C25.6613238,8.45301255 24.336422,7.11313808 22.7424395,7.11313808 C21.1484571,7.11313808 19.8017725,8.43096234 19.8017725,10.4764435 L19.8017725,10.521841 C19.8017725,12.5439749 21.1484571,13.8851464 22.7424395,13.8851464 C24.336422,13.8851464 25.6613238,12.5439749 25.6613238,10.521841 Z M29.8820459,4.40874477 L33.4966958,4.40874477 L36.1913462,12.5673222 L38.9077794,4.40874477 L42.4545185,4.40874477 L37.7174179,16.6803347 L34.6191465,16.6803347 L29.8820459,4.40874477 Z M42.1188084,13.0900418 L42.1188084,13.0446444 C42.1188084,10.3856485 44.1164118,9.15861925 46.9673852,9.15861925 C48.1795295,9.15861925 49.0546822,9.36225941 49.9080523,9.65799163 L49.9080523,9.45435146 C49.9080523,8.02238494 49.0328995,7.22728033 47.3261594,7.22728033 C46.0243217,7.22728033 45.1030408,7.47761506 44.0036542,7.88619247 L43.1502841,5.25054393 C44.475186,4.66037657 45.7770237,4.27384937 47.8194739,4.27384937 C49.682537,4.27384937 51.0292216,4.77322176 51.8825916,5.63707113 C52.7808084,6.54631799 53.1844294,7.88748954 53.1844294,9.52309623 L53.1844294,16.5908368 L49.8849882,16.5908368 L49.8849882,15.2717155 C49.0546822,16.2030126 47.9091675,16.8165272 46.2485555,16.8165272 C43.9818715,16.8165272 42.1188084,15.4987029 42.1188084,13.0900418 Z M49.9541804,12.2936402 L49.9541804,11.6801255 C49.3711723,11.4077406 48.6074958,11.2248536 47.7771898,11.2248536 C46.3177477,11.2248536 45.4195309,11.816318 45.4195309,12.9071548 L45.4195309,12.9525523 C45.4195309,13.8838494 46.1832074,14.4299163 47.282594,14.4299163 C48.8765765,14.4299163 49.9541804,13.5440167 49.9541804,12.2936402 Z M55.0064897,4.40874477 L58.4186885,4.40874477 L58.4186885,6.13644351 C59.2041477,5.11305439 60.2151221,4.18175732 61.9436449,4.18175732 C64.5255377,4.18175732 66.0298267,5.90945607 66.0298267,8.70464435 L66.0298267,16.5908368 L62.6176279,16.5908368 L62.6176279,9.79548117 C62.6176279,8.15857741 61.8539514,7.31807531 60.5521136,7.31807531 C59.2502758,7.31807531 58.4199699,8.15857741 58.4199699,9.79548117 L58.4199699,16.5908368 L55.0077711,16.5908368 L55.0077711,4.40874477 L55.0064897,4.40874477 Z M68.274728,13.1354393 L68.274728,7.36217573 L66.8383499,7.36217573 L66.8383499,4.40874477 L68.274728,4.40874477 L68.274728,1.29577406 L71.6869268,1.29577406 L71.6869268,4.40874477 L74.5161176,4.40874477 L74.5161176,7.3634728 L71.6869268,7.3634728 L71.6869268,12.5673222 C71.6869268,13.3624268 72.0239183,13.748954 72.7875948,13.748954 C73.4154496,13.748954 73.9779563,13.5894142 74.4712708,13.3170293 L74.4712708,16.0901674 C73.7537224,16.5220921 72.9221351,16.794477 71.7779017,16.794477 C69.6893234,16.7931799 68.274728,15.9526778 68.274728,13.1354393 Z M76.1997936,0 L79.7913795,0 L79.7913795,3.06757322 L76.1997936,3.06757322 L76.1997936,0 Z M76.2894871,4.40874477 L79.7016859,4.40874477 L79.7016859,16.5895397 L76.2894871,16.5895397 L76.2894871,4.40874477 Z M86.6170584,7.97569038 L88.8850238,4.4074477 L92.454827,4.4074477 L88.3917093,10.3623013 L92.6342141,16.5895397 L88.9747173,16.5895397 L86.5504289,12.7943096 L84.1261404,16.5895397 L80.5563373,16.5895397 L84.7770593,10.4076987 L80.7139417,4.4074477 L84.3734384,4.4074477 L86.6170584,7.97569038 Z"></path>
						<path d="M94.9931543,4.8523431 C93.6503138,4.8523431 92.6944369,3.83414226 92.6944369,2.48778243 C92.6944369,1.0648954 93.7553834,0.123221757 94.9931543,0.123221757 C96.2168306,0.123221757 97.2790585,1.0648954 97.2790585,2.48778243 C97.2790585,3.91066946 96.2168306,4.8523431 94.9931543,4.8523431 Z M94.9931543,0.535690377 C93.9808986,0.535690377 93.1941581,1.33857741 93.1941581,2.4890795 C93.1941581,3.56305439 93.8809544,4.44246862 94.9931543,4.44246862 C95.9925967,4.44246862 96.7793373,3.64606695 96.7793373,2.4890795 C96.7780559,1.33728033 95.9925967,0.535690377 94.9931543,0.535690377 Z M94.5305919,3.84192469 L94.1051882,3.84192469 L94.1051882,1.22313808 L95.0854106,1.22313808 C95.7094214,1.22313808 96.0284741,1.44493724 96.0284741,1.97543933 C96.0284741,2.45016736 95.7414548,2.6460251 95.3532099,2.69012552 L96.0784463,3.84062762 L95.5979451,3.84062762 L94.9303689,2.72125523 L94.5305919,2.72125523 L94.5305919,3.84192469 L94.5305919,3.84192469 Z M95.0046864,2.35548117 C95.3224578,2.35548117 95.6043518,2.32305439 95.6043518,1.94430962 C95.6043518,1.62782427 95.2981124,1.59020921 95.0418451,1.59020921 L94.5305919,1.59020921 L94.5305919,2.35548117 L95.0046864,2.35548117 Z"></path>
					</g>
				</g>
				<g id="Seresto_logo" transform="translate(0.000000, 0.332632)">
					<rect id="Rectangle" fill="#01648F" x="0" y="0" width="106" height="31"></rect>
					<g id="Group" transform="translate(6.000000, 6.000000)" fill="#FFFFFF">
						<path d="M93.7197332,4.94381096 C92.3802042,4.94381096 91.4266846,3.91928836 91.4266846,2.56456931 C91.4266846,1.13284792 92.4850147,0.185327655 93.7197332,0.185327655 C94.9403917,0.185327655 96,1.13284792 96,2.56456931 C96,3.9962907 94.9403917,4.94381096 93.7197332,4.94381096 Z M93.7197332,0.599052068 C92.7099738,0.599052068 91.9251734,1.40692403 91.9251734,2.56456931 C91.9251734,3.64521225 92.610276,4.53008655 93.7197332,4.53008655 C94.7167108,4.53008655 95.5015112,3.72874021 95.5015112,2.56456931 C95.500233,1.40692403 94.7154326,0.599052068 93.7197332,0.599052068 Z M93.2583115,3.92581399 L92.8339569,3.92581399 L92.8339569,1.29207309 L93.8117619,1.29207309 C94.4342338,1.29207309 94.7524998,1.51524935 94.7524998,2.0490452 C94.7524998,2.5267207 94.4661882,2.72379448 94.0789008,2.7681687 L94.8023486,3.92581399 L94.3230325,3.92581399 L93.6571025,2.79949169 L93.2583115,2.79949169 L93.2583115,3.92581399 L93.2583115,3.92581399 Z M93.7312368,2.43144663 C94.0482245,2.43144663 94.3294234,2.39881852 94.3294234,2.01772221 C94.3294234,1.69927188 94.0239392,1.66142327 93.7683039,1.66142327 L93.2583115,1.66142327 L93.2583115,2.43144663 L93.7312368,2.43144663 Z" id="Shape"></path>
							<path d="M-1.81639801e-15,15.9995192 L2.34545382,13.1308559 C3.96873793,14.4999313 5.66999081,15.367839 7.73168946,15.367839 C9.35497357,15.367839 10.3340567,14.7100563 10.3340567,13.6307185 L10.3340567,13.5785135 C10.3340567,12.5526858 9.71541934,12.0254156 6.70020105,11.2358154 C3.06634535,10.2882951 0.720891528,9.26246737 0.720891528,5.60420387 L0.720891528,5.5519989 C0.720891528,2.20957549 3.35010052,9.27346612e-16 7.03508328,9.27346612e-16 C9.66429228,9.27346612e-16 11.9062138,0.841805193 13.7365625,2.34269817 L11.6748639,5.39538398 C10.0771433,4.26384119 8.50498622,3.57995604 6.98395622,3.57995604 C5.46292623,3.57995604 4.66406593,4.28863855 4.66406593,5.18395384 L4.66406593,5.23615881 C4.66406593,6.44600907 5.4373627,6.84146174 8.55611328,7.65716445 C12.2155325,8.6307872 14.2772312,9.97245501 14.2772312,13.1830609 L14.2772312,13.2352658 C14.2772312,16.8935293 11.545768,18.9451861 7.65372069,18.9451861 C4.92225758,18.9464899 2.16395276,17.9728672 -1.81639801e-15,15.9995192 Z M15.6167601,11.7108806 L15.6167601,11.6573705 C15.6167601,7.63106196 18.426192,4.31604616 22.446057,4.31604616 C27.0589958,4.31604616 29.1730997,7.97430966 29.1730997,11.9745157 C29.1730997,12.2903558 29.1475362,12.6584009 29.1219727,13.0277511 L19.5088074,13.0277511 C19.8960949,14.843179 21.1320915,15.7906993 22.8857497,15.7906993 C24.1997151,15.7906993 25.1532347,15.3704492 26.2358502,14.3433164 L28.4777717,16.3688694 C27.1893698,18.0002748 25.3334576,19 22.8333444,19 C18.6831054,19 15.6167601,16.0256217 15.6167601,11.7108806 Z M25.3590211,10.5258277 C25.1276712,8.73650227 24.0961828,7.52534689 22.446057,7.52534689 C20.8227728,7.52534689 19.7657209,8.70909466 19.4564022,10.5258277 L25.3590211,10.5258277 Z M31.3102108,4.57837615 L35.2278216,4.57837615 L35.2278216,7.42093694 C36.0266819,5.47369144 37.3150838,4.21033109 39.6349741,4.31604616 L39.6349741,8.50027476 L39.4291877,8.50027476 C36.8255422,8.50027476 35.2278216,10.1055777 35.2278216,13.4741036 L35.2278216,18.6841599 L31.3102108,18.6841599 L31.3102108,4.57837615 Z M40.7674385,11.7108806 L40.7674385,11.6573705 C40.7674385,7.63106196 43.5768703,4.31604616 47.5967353,4.31604616 C52.2096742,4.31604616 54.3237781,7.97430966 54.3237781,11.9745157 C54.3237781,12.2903558 54.2982145,12.6584009 54.272651,13.0277511 L44.6594858,13.0277511 C45.0467733,14.843179 46.2827699,15.7906993 48.036428,15.7906993 C49.3503934,15.7906993 50.3039131,15.3704492 51.3865286,14.3433164 L53.6284501,16.3688694 C52.3400482,18.0002748 50.484136,19 47.9840228,19 C43.835062,19 40.7674385,16.0256217 40.7674385,11.7108806 Z M50.5096995,10.5258277 C50.2783496,8.73650227 49.2468611,7.52534689 47.5967353,7.52534689 C45.9734512,7.52534689 44.9163993,8.70909466 44.6070806,10.5258277 L50.5096995,10.5258277 Z M55.1213602,16.8152219 L56.7970495,14.1840912 C58.2912378,15.2895315 59.8633949,15.8677016 61.1530749,15.8677016 C62.2868175,15.8677016 62.8019226,15.4474516 62.8019226,14.8157714 L62.8019226,14.7635664 C62.8019226,13.8956587 61.4611155,13.6059211 59.9413637,13.132161 C58.0087608,12.5539909 55.8179664,11.6325732 55.8179664,8.89572744 L55.8179664,8.84352246 C55.8179664,5.97485918 58.0867296,4.36955626 60.8693198,4.36955626 C62.6216997,4.36955626 64.528739,4.97513395 66.0229273,6.00096167 L64.528739,8.76390988 C63.1623684,7.94820717 61.7972759,7.44834455 60.791351,7.44834455 C59.8378314,7.44834455 59.3482898,7.86989971 59.3482898,8.4219673 L59.3482898,8.47417228 C59.3482898,9.2637725 60.6622552,9.63181756 62.1577217,10.1577827 C64.0903245,10.8155653 66.3335242,11.7630856 66.3335242,14.3420113 L66.3335242,14.3942162 C66.3335242,17.5252095 64.0391974,18.9464899 61.0495427,18.9464899 C59.1169398,18.9464899 56.9517089,18.2887072 55.1213602,16.8152219 Z M69.012582,14.6839538 L69.012582,8.00041214 L67.3637344,8.00041214 L67.3637344,4.57837615 L69.012582,4.57837615 L69.012582,0.97362275 L72.9301929,0.97362275 L72.9301929,4.57837615 L76.1780393,4.57837615 L76.1780393,7.99910702 L72.9301929,7.99910702 L72.9301929,14.0248661 C72.9301929,14.9462838 73.3174804,15.3939415 74.1930313,15.3939415 C74.9139228,15.3939415 75.5594019,15.2099189 76.1256341,14.8940789 L76.1256341,18.1046847 C75.3012103,18.6045473 74.3476906,18.9203874 73.0337252,18.9203874 C70.6358662,18.9203874 69.012582,17.9467647 69.012582,14.6839538 Z M76.9743433,11.7108806 L76.9743433,11.6573705 C76.9743433,7.60495947 80.1710626,4.31604616 84.4746828,4.31604616 C88.7527394,4.31604616 91.9226171,7.5527545 91.9226171,11.6051655 L91.9226171,11.6573705 C91.9226171,15.7097816 88.7271759,19 84.4235557,19 C80.1442209,19 76.9743433,15.7632917 76.9743433,11.7108806 Z M88.0561332,11.7108806 L88.0561332,11.6573705 C88.0561332,9.57830746 86.5875085,7.76287952 84.4222776,7.76287952 C82.180356,7.76287952 80.8395489,9.52610249 80.8395489,11.6051655 L80.8395489,11.6573705 C80.8395489,13.7364336 82.3081737,15.5531666 84.4734046,15.5531666 C86.7166043,15.5518615 88.0561332,13.7886385 88.0561332,11.7108806 Z" id="Shape"></path>
					</g>
				</g>
			</g>
		</g>
	</g>
</svg>