<svg width="37px" height="37px" viewBox="0 0 37 37" version="1.1" xmlns="http://www.w3.org/2000/svg" xmlns:xlink="http://www.w3.org/1999/xlink">
	<g id="Page-1" stroke="none" stroke-width="1" fill="none" fill-rule="evenodd">
		<g id="Group" transform="translate(0.194000, 0.549000)">
			<path d="M26.937,36.066 L20.823,36.066 L18.033,35.144 L15.266,36.066 L9.129,36.066 C4.087,36.066 0,31.979 0,26.937 L0,9.129 C0,4.087 4.087,0 9.129,0 L26.937,0 C31.978,0 36.066,4.087 36.066,9.129 L36.066,26.937 C36.066,31.979 31.978,36.066 26.937,36.066" id="Fill-64" fill="#2869A5"></path>
			<path d="M15.249,14.109 L15.249,18.033 L10.727,18.033 L10.727,23.182 L15.249,23.182 L15.249,36.066 L20.816,36.066 L20.816,23.182 L24.967,23.182 L25.757,18.033 L20.816,18.033 L20.816,14.692 C20.816,13.283 21.506,11.91 23.719,11.91 L25.965,11.91 L25.965,7.526 C25.965,7.526 23.927,7.178 21.978,7.178 C17.909,7.178 15.249,9.644 15.249,14.109" id="Fill-65" fill="#FFFFFE"></path>
		</g>
	</g>
</svg>