<svg width="37px" height="37px" viewBox="0 0 37 37" version="1.1" xmlns="http://www.w3.org/2000/svg" xmlns:xlink="http://www.w3.org/1999/xlink">
	<g id="Page-1" stroke="none" stroke-width="1" fill="none" fill-rule="evenodd">
		<g id="Group-2" transform="translate(0.194000, 0.345000)">
			<path d="M26.937,36.065 L9.129,36.065 C4.087,36.065 0,31.978 0,26.936 L0,9.128 C0,4.087 4.087,0 9.129,0 L26.937,0 C31.978,0 36.066,4.087 36.066,9.128 L36.066,26.936 C36.066,31.978 31.978,36.065 26.937,36.065" id="Fill-56" fill="#00AECC"></path>
			<path d="M28.914605,11.1581295 C28.2476595,11.4721884 27.5104523,11.6624249 26.7905402,11.7884987 C27.1321201,11.7288388 27.6336805,11.0849616 27.834737,10.8249343 C28.1417265,10.4264508 28.3957495,9.9750614 28.5395157,9.48652521 C28.5578919,9.44712713 28.5719442,9.39984944 28.5351919,9.37058229 C28.4887111,9.35144608 28.4584445,9.36157702 28.4227732,9.38071323 C27.6196281,9.82872568 26.7883783,10.1540412 25.904162,10.3836758 C25.8317385,10.402812 25.7766101,10.3836758 25.7312102,10.3352724 C25.6577057,10.2497223 25.5885249,10.1686748 25.5106966,10.1011353 C25.1388501,9.77244271 24.7410609,9.51354104 24.2913861,9.3233046 C23.701188,9.07228255 23.0558614,8.96647056 22.4202634,9.00924562 C21.8019605,9.05089502 21.1944672,9.23325184 20.6453451,9.53155159 C20.0951421,9.830977 19.6043912,10.247471 19.2130877,10.7495151 C18.8088127,11.2695697 18.5104708,11.8819285 18.358057,12.5325596 C18.2110479,13.1606776 18.2229384,13.7809159 18.3126571,14.4157878 C18.3267095,14.5215998 18.3180619,14.5351077 18.2261812,14.5215998 C14.7671444,13.9846603 11.9015486,12.6969059 9.57426535,9.93453766 C9.47265614,9.81521776 9.41860869,9.81521776 9.33537562,9.94354294 C8.31712165,11.532974 8.81111535,14.0870953 10.0833923,15.3422055 C10.2531013,15.5099288 10.4271341,15.677652 10.6152192,15.829616 C10.5460385,15.8442496 9.69965543,15.7485686 8.94515303,15.3422055 C8.84462477,15.2757916 8.79382016,15.314064 8.78409162,15.4333839 C8.77544403,15.6056098 8.78949637,15.7632021 8.8121963,15.9500616 C9.00784807,17.5608802 10.0790685,19.0512533 11.5459163,19.6332192 C11.7210301,19.7097641 11.913439,19.776178 12.1015241,19.8088221 C11.7675109,19.8853669 11.4226882,19.9405242 10.4638864,19.8617281 C10.344982,19.8380892 10.2985012,19.9011262 10.344982,20.0193204 C11.064894,22.0646436 12.6203797,22.6736253 13.7845617,23.0203284 C13.9412993,23.0484699 14.096956,23.0484699 14.2536936,23.0867423 C14.2439651,23.1013759 14.2342365,23.1013759 14.2255889,23.1148838 C13.8396901,23.7283682 12.4993134,24.1853859 11.8756058,24.4116435 C10.7416903,24.8258861 9.50616556,25.0116199 8.30739311,24.8877974 C8.11606514,24.8585302 8.07498907,24.8607816 8.02310352,24.8877974 C7.97013702,24.9215672 8.01661783,24.9688449 8.07823192,25.0206252 C8.32144545,25.1883485 8.56898277,25.3369355 8.82084389,25.4798942 C9.58291294,25.9008909 10.3763295,26.2352117 11.2075793,26.4738515 C15.4935421,27.7064486 20.3232223,26.8002927 23.5412075,23.4705922 C26.0695472,20.8556853 26.9548445,17.2479469 26.9548445,13.6368315 C26.9548445,13.4961241 27.1159059,13.4173279 27.2110294,13.3430344 C27.8682464,12.828608 28.3989924,12.2128723 28.8897432,11.5250944 C29,11.3708791 29,11.2335486 29,11.17614 C29,11.1671347 29,11.1581295 29,11.1581295 C29,11.1007208 29,11.1176057 28.914605,11.1581295" id="Fill-57" fill="#FFFFFE"></path>
		</g>
	</g>
</svg>