<svg width="37px" height="37px" viewBox="0 0 37 37" version="1.1" xmlns="http://www.w3.org/2000/svg" xmlns:xlink="http://www.w3.org/1999/xlink">
	<defs>
		<linearGradient x1="10.1033955%" y1="13.3521467%" x2="90.9718468%" y2="91.4944755%" id="linearGradient-trzgkshbyh-1">
			<stop stop-color="#FFE793" offset="0%"></stop>
			<stop stop-color="#FF6F67" offset="24.9290049%"></stop>
			<stop stop-color="#FE3D8B" offset="45.1162315%"></stop>
			<stop stop-color="#C435BC" offset="69.6448369%"></stop>
			<stop stop-color="#7646E7" offset="100%"></stop>
		</linearGradient>
	</defs>
	<g id="Page-1" stroke="none" stroke-width="1" fill="none" fill-rule="evenodd">
		<g id="Group-4" transform="translate(0.194000, 0.447000)">
			<path d="M26.937,36.065 L9.129,36.065 C4.087,36.065 0,31.978 0,26.937 L0,9.129 C0,4.087 4.087,0 9.129,0 L26.937,0 C31.978,0 36.066,4.087 36.066,9.129 L36.066,26.937 C36.066,31.978 31.978,36.065 26.937,36.065" id="Fill-58" fill="url(#linearGradient-trzgkshbyh-1)"></path>
			<g id="Group-3" transform="translate(6.806000, 6.553000)" fill="#FFFFFE">
				<path d="M17.588624,4.10643493 C16.8442019,4.10643493 16.2407354,4.71100259 16.2407354,5.45542469 C16.2407354,6.19984679 16.8442019,6.80331322 17.588624,6.80331322 C18.3330461,6.80331322 18.9365125,6.19984679 18.9365125,5.45542469 C18.9365125,4.71100259 18.3330461,4.10643493 17.588624,4.10643493" id="Fill-61"></path>
				<path d="M11.5947046,15.1285071 C9.59379489,15.1285071 7.96619745,13.5009097 7.96619745,11.5 C7.96619745,9.4990903 9.59379489,7.87259408 11.5947046,7.87259408 C13.5945131,7.87259408 15.2221105,9.4990903 15.2221105,11.5 C15.2221105,13.5009097 13.5945131,15.1285071 11.5947046,15.1285071 Z M11.5947046,5.83534425 C8.47165565,5.83534425 5.93004884,8.37695107 5.93004884,11.5 C5.93004884,14.6230489 8.47165565,17.1646558 11.5947046,17.1646558 C14.7166523,17.1646558 17.2582591,14.6230489 17.2582591,11.5 C17.2582591,8.37695107 14.7166523,5.83534425 11.5947046,5.83534425 L11.5947046,5.83534425 Z" id="Fill-62"></path>
				<path d="M6.90902997,2.16388969 C4.29254046,2.16388969 2.16388969,4.29254046 2.16388969,6.90902997 L2.16388969,16.09097 C2.16388969,18.7074595 4.29254046,20.8361103 6.90902997,20.8361103 L16.09097,20.8361103 C18.7074595,20.8361103 20.8361103,18.7074595 20.8361103,16.09097 L20.8361103,6.90902997 C20.8361103,4.29254046 18.7074595,2.16388969 16.09097,2.16388969 L6.90902997,2.16388969 Z M16.09097,23 L6.90902997,23 C3.09882218,23 0,19.9011778 0,16.09097 L0,6.90902997 C0,3.09992339 3.09882218,0 6.90902997,0 L16.09097,0 C19.9000766,0 23,3.09992339 23,6.90902997 L23,16.09097 C23,19.9011778 19.9000766,23 16.09097,23 L16.09097,23 Z" id="Fill-63"></path>
			</g>
		</g>
	</g>
</svg>