<svg width="51px" height="51px" viewBox="0 0 51 51" version="1.1" xmlns="http://www.w3.org/2000/svg" xmlns:xlink="http://www.w3.org/1999/xlink">
    <g id="Mapa-Elanco---Espana" stroke="none" stroke-width="1" fill="none" fill-rule="evenodd">
        <g id="Elanco_LandingMapaElanco_General" transform="translate(-693.000000, -315.000000)">
            <g id="Group-5" transform="translate(693.000000, 315.000000)">
                <path d="M25.5,0 C11.4388705,0 0,11.4373076 0,25.4980851 C0,39.5588625 11.4388705,51 25.5,51 C39.5611295,51 51,39.5588625 51,25.4980851 C51,11.4373076 39.5611295,0 25.5,0" id="Fill-1" fill="#0072CE"></path>
                <path d="M25.5,47 C19.2070653,47 13.5361967,44.2727079 9.60117654,39.9364818 C9.76250075,39.4640274 10.8388559,36.3471221 11.5538448,34.9155203 C12.3269104,33.3622453 12.5850291,33.1913851 14.3053905,31.63811 C16.0244613,30.0861294 12.3527223,28.1911339 9.66183444,28.1885451 C7.99180623,27.7393897 7.84080677,26.0799743 6.48181163,25.8871093 C5.13443184,25.6282301 4.85566361,28.6946539 4.62077556,30.5715279 C4.21811033,28.9250563 4,27.2048043 4,25.4340707 C4,20.857087 5.43384957,16.6153518 7.86661864,13.1191886 C7.1813134,15.2484698 6.56699082,18.3537254 9.23335734,17.4114052 C12.1552614,16.3745942 12.4133802,15.1682172 12.4133802,15.1682172 L14.1324509,12.1496861 C14.1324509,12.1496861 14.3905697,16.3745942 14.7364488,16.9777826 C15.0797467,17.5822655 16.4555195,19.3076952 16.9704664,16.8923525 C17.9190528,12.4538691 18.0790864,11.2021883 19.712978,11.2021883 C21.345579,11.2021883 24.7088661,9.9064981 25.0534546,13.8751158 C25.3967525,17.8411447 24.7088661,15.5138209 22.558737,16.5480432 C20.4098986,17.5822655 19.8936611,21.2039851 21.8708506,21.6350189 C23.8493307,22.0673471 28.3199472,23.8769125 28.3199472,23.8769125 L30.5552554,26.3789797 L31.2444324,29.0519071 C31.2444324,29.0519071 31.6729095,32.0691439 31.6729095,32.328023 L31.6729095,35.0889694 C31.6729095,35.0889694 31.7606699,40.5202544 33.7365688,39.2271529 C35.7150489,37.9340515 41.13038,29.4829409 40.0140164,26.2909608 C38.8950717,23.1015694 38.8098926,22.7546713 40.8722612,21.6350189 C42.9359205,20.5140721 44.3981632,19.1342461 44.3116934,17.5822655 C44.2523261,16.4936786 44.3620265,15.8296535 44.3749325,15.115147 C46.0475419,18.1828652 47,21.6984443 47,25.4340707 C47,37.3256854 37.3553935,47 25.5,47" id="Fill-3" fill="#99C7EB"></path>
            </g>
        </g>
    </g>
</svg>